<svg id="Слой_1" data-name="Слой 1" xmlns="http://www.w3.org/2000/svg" viewBox="0 0 296.7 85.33"><defs><style>.cls-1{fill:#fff;}</style></defs><title>total222</title><g id="layer1"><g id="g2337"><path id="path16" class="cls-1" d="M80,55.24l-.2-.53c-6.1,7-21.07,11.47-34.55,10.47-7.94-.59-22.64-4.7-30.05-9.24A67.31,67.31,0,0,0,42.54,72.23c12.34,3.67,25.5,3.41,32.92-.45,5.43-3.67,6.66-10.22,4.5-16.54" transform="translate(-1.92 -7.67)"/><path id="path20" class="cls-1" d="M63,11.43c24.3,14.35,9.85,59.48-9.48,74-18,13.49-37.11,7.27-41.26-5.16,3.62,5.39,10.81,7.35,17.2,5.2C47.18,78.33,56.33,46.17,57.51,35c.79-9.62-.47-16.08-3.8-20.16-3.82-4-9.69-6-18.26-3.31C41.34,6.69,54,6.11,63,11.43" transform="translate(-1.92 -7.67)"/><path id="path24" class="cls-1" d="M76.57,71.15l.29-.19.06,0a12.47,12.47,0,0,0,1.45-1.11c.22-.2.44-.41.65-.62,9.45-9.59,11.45-36.26-11.83-48.9-8.29-4.5-27.56-10.8-46.78-1.08C14,22.43,7.48,29.1,4,38.17c2.6-4.31,7.11-7.22,16-8.48S41,30,53,34.16A65.3,65.3,0,0,1,71.81,44.49c4,3.45,6.62,6.73,7.95,10.22l.2.53c2.17,6.32.94,12.87-4.5,16.54h0l.77-.43.11-.07.23-.14" transform="translate(-1.92 -7.67)"/><path id="path28" class="cls-1" d="M7,53.51a27.14,27.14,0,0,0,2.11,2.67c4.67-11,30.24-18.11,37.77-18C29.91,32.71,13.3,35.31,6.63,41.1,4.2,43.8,3.45,47.85,7,53.51" transform="translate(-1.92 -7.67)"/><path id="path32" class="cls-1" d="M56.83,78.4c-13.61-.76-33.45-6-47.49-21.93l-.26-.3A27.14,27.14,0,0,1,7,53.51C3.45,47.85,4.2,43.8,6.63,41.1h0A11.81,11.81,0,0,0,5,42.78C1.44,47.44,1,55,3.47,63,8.81,80.35,32.23,90.8,51.23,87.93,63.38,86.09,71,79.26,74.14,76.47A48.88,48.88,0,0,1,56.83,78.4" transform="translate(-1.92 -7.67)"/><path id="path36" class="cls-1" d="M171.62,41C159.75,41,152.94,46,152.94,54.9s6.81,13.94,18.68,13.94S190.3,63.76,190.3,54.9,183.5,41,171.62,41m0,21.44c-6.49,0-9.78-2.52-9.78-7.49s3.29-7.49,9.78-7.49,9.79,2.52,9.79,7.49-3.29,7.49-9.79,7.49" transform="translate(-1.92 -7.67)"/><path id="path40" class="cls-1" d="M192.72,41.6v6H204c0,.58,0,18.46,0,18.46,0,1.78,2.67,2.41,5,2.41s5-.63,5-2.4V47.59h11.26v-6H192.72" transform="translate(-1.92 -7.67)"/><path id="path44" class="cls-1" d="M285,62c-2.73,0-4.63-.44-5.66-1.32a5.25,5.25,0,0,1-1.53-4.11v-13c0-1.71-2.55-2.32-4.74-2.32s-4.77.61-4.77,2.31V56.15c0,4.83,1.56,8.22,4.63,10.06,3.81,2.2,10.71,2.12,17.38,2.05l8.28,0,0-1.21V62H285" transform="translate(-1.92 -7.67)"/><path id="path48" class="cls-1" d="M131.29,60c0,4.71,4,7.89,10.67,8.46V40.1h15.09V33.55H117.76V40.1h13.54V60" transform="translate(-1.92 -7.67)"/><path id="path52" class="cls-1" d="M264.44,68.26l-.23-1.07C262,56.26,249.58,43.79,247,42a6,6,0,0,0-5.78,0c-2.55,1.83-15,14.3-17.17,25.23l-.24,1.07h8.78l.17-.76a25.79,25.79,0,0,1,1.69-5H253.8a26,26,0,0,1,1.69,5l.17.76h8.78M237.59,56.92a49.22,49.22,0,0,1,6.55-8,49.24,49.24,0,0,1,6.55,8H237.59" transform="translate(-1.92 -7.67)"/></g></g></svg>