<?xml version="1.0" encoding="utf-8"?>
<!-- Generator: Adobe Illustrator 21.1.0, SVG Export Plug-In . SVG Version: 6.00 Build 0)  -->
<svg version="1.1"
	 id="svg2319" inkscape:output_extension="org.inkscape.output.svg.inkscape" inkscape:version="0.45.1" sodipodi:docbase="K:\Logos\Vektor\[--Convertme!--]\[--!fertig--]" sodipodi:docname="Total Logo.svg" sodipodi:version="0.32" xmlns:cc="http://web.resource.org/cc/" xmlns:dc="http://purl.org/dc/elements/1.1/" xmlns:inkscape="http://www.inkscape.org/namespaces/inkscape" xmlns:rdf="http://www.w3.org/1999/02/22-rdf-syntax-ns#" xmlns:sodipodi="http://sodipodi.sourceforge.net/DTD/sodipodi-0.dtd" xmlns:svg="http://www.w3.org/2000/svg"
	 xmlns="http://www.w3.org/2000/svg" xmlns:xlink="http://www.w3.org/1999/xlink" x="0px" y="0px" viewBox="0 0 744.1 926.9"
	 style="enable-background:new 0 0 744.1 926.9;" xml:space="preserve">
<style type="text/css">
	.st0{fill:#FFFFFF;}
</style>
<sodipodi:namedview  bordercolor="#666666" borderopacity="1.0" height="26.16cm" id="base" inkscape:current-layer="layer1" inkscape:cx="350" inkscape:cy="520" inkscape:document-units="px" inkscape:pageopacity="0.0" inkscape:pageshadow="2" inkscape:window-height="573" inkscape:window-width="797" inkscape:window-x="183" inkscape:window-y="104" inkscape:zoom="0.35" pagecolor="#ffffff" units="cm" width="21cm">
	</sodipodi:namedview>
<g id="layer1" transform="translate(-9.1806686,-22.499566)" inkscape:groupmode="layer" inkscape:label="Ebene 1">
	<g id="g2337" transform="translate(17.716511,17.670892)">
		<path id="path16" class="st0" d="M117,79.7c-0.1-0.2-0.2-0.5-0.3-0.7c-7.8,8.9-26.8,14.6-44,13.3c-10.1-0.7-28.8-6-38.3-11.8
			c10,9.6,21.7,16.8,34.9,20.7c15.7,4.7,32.5,4.3,41.9-0.6C118.2,96.1,119.8,87.8,117,79.7"/>
		<path id="path20" class="st0" d="M95.4,24c30.9,18.3,12.5,75.7-12.1,94.2c-22.9,17.2-47.3,9.3-52.6-6.6c4.6,6.9,13.8,9.4,21.9,6.6
			c22.6-9.1,34.3-50,35.8-64.2c1-12.2-0.6-20.5-4.8-25.7c-4.9-5.1-12.3-7.6-23.3-4.2C67.9,17.9,83.9,17.2,95.4,24"/>
		<path id="path24" class="st0" d="M112.7,100c0.1-0.1,0.2-0.2,0.4-0.2c0,0,0,0,0.1,0c0.6-0.4,1.3-0.9,1.8-1.4
			c0.3-0.3,0.6-0.5,0.8-0.8c12-12.2,14.6-46.2-15.1-62.3c-10.6-5.7-35.1-13.8-59.6-1.4C33.1,38,24.7,46.5,20.3,58
			c3.3-5.5,9.1-9.2,20.4-10.8c11.3-1.4,26.8,0.3,42.1,5.7c9.8,3.6,17.8,8.1,24,13.2c5.1,4.4,8.4,8.6,10.1,13
			c0.1,0.2,0.2,0.5,0.3,0.7c2.8,8.1,1.2,16.4-5.7,21.1c0,0,0,0,0,0c0.3-0.2,0.6-0.3,1-0.5c0,0,0.1-0.1,0.1-0.1
			C112.5,100.1,112.6,100.1,112.7,100"/>
		<path id="path28" class="st0" d="M24.1,77.5c0.6,0.9,1.8,2.4,2.7,3.4C32.7,67,65.3,57.9,74.9,58c-21.6-6.9-42.7-3.6-51.2,3.7
			C20.6,65.2,19.6,70.3,24.1,77.5"/>
		<path id="path32" class="st0" d="M87.6,109.2c-17.3-1-42.6-7.7-60.5-27.9c-0.1-0.1-0.2-0.2-0.3-0.4c-0.8-1-2.1-2.5-2.7-3.4
			c-4.5-7.2-3.5-12.4-0.4-15.8c0,0,0,0,0,0c0,0,0,0,0,0c-0.6,0.5-1.2,1.1-2,2.1c-4.6,5.9-5.1,15.5-2,25.7
			c6.8,22.1,36.6,35.4,60.8,31.8c15.5-2.3,25.1-11,29.2-14.6C100.9,109.3,94.4,109.6,87.6,109.2"/>
		<path id="path36" class="st0" d="M233.8,61.6c-15.1,0-23.8,6.5-23.8,17.8c0,11.3,8.7,17.8,23.8,17.8c15.1,0,23.8-6.5,23.8-17.8
			C257.6,68,248.9,61.6,233.8,61.6 M233.8,88.9c-8.3,0-12.5-3.2-12.5-9.5c0-6.3,4.2-9.5,12.5-9.5c8.3,0,12.5,3.2,12.5,9.5
			C246.2,85.6,242,88.9,233.8,88.9"/>
		<path id="path40" class="st0" d="M260.6,62.4V70c0,0,13.6,0,14.3,0c0,0.7,0,23.5,0,23.5c0,2.3,3.4,3.1,6.3,3.1
			c2.9,0,6.3-0.8,6.3-3.1c0,0,0-20.4,0-23.5c0.7,0,14.3,0,14.3,0v-7.6H260.6"/>
		<path id="path44" class="st0" d="M378.2,88.4c-3.5,0-5.9-0.6-7.2-1.7c-1.7-1.4-1.9-3.6-1.9-5.2l0-16.6c0-2.2-3.3-2.9-6-2.9
			c-2.8,0-6.1,0.8-6.1,2.9l0,5.3v10.8c0,6.2,2,10.5,5.9,12.8c4.8,2.8,13.6,2.7,22.1,2.6l10.5,0l0-1.5v-6.4H378.2"/>
		<path id="path48" class="st0" d="M182.4,85.9c0,6,5.1,10,13.6,10.8V60.5h19.2v-8.3h-50v8.3h17.2V85.9"/>
		<path id="path52" class="st0" d="M352,96.3l-0.3-1.4c-2.8-13.9-18.6-29.8-21.9-32.1c-1.1-0.8-2.2-0.9-3.7-0.9
			c-1.5,0-2.6,0.2-3.7,0.9c-3.3,2.3-19.1,18.2-21.9,32.1l-0.3,1.4h11.2l0.2-1c0.4-2,1.2-4.1,2.2-6.3h24.6c1,2.2,1.7,4.3,2.2,6.3
			l0.2,1H352 M317.8,81.9c2.3-3.6,5.2-7.1,8.3-10.2c3.2,3.1,6,6.6,8.3,10.2H317.8"/>
	</g>
</g>
</svg>
