<?xml version="1.0" encoding="utf-8"?>
<svg xmlns="http://www.w3.org/2000/svg"
	xmlns:xlink="http://www.w3.org/1999/xlink"
	width="24px" height="13px" viewBox="0 0 24 13">
<g><rect x="11" y="7" width="3" height="3" fill="rgb(201,201,201)"/><rect x="14" y="7" width="4" height="3" fill="rgb(201,201,201)"/><rect x="11" y="10" width="3" height="3" fill="rgb(201,201,201)"/><rect x="11" y="3" width="3" height="4" fill="rgb(201,201,201)"/><rect x="7" y="3" width="4" height="4" fill="rgb(201,201,201)"/><rect x="7" y="7" width="4" height="3" fill="rgb(201,201,201)"/><rect x="4" y="3" width="3" height="4" fill="rgb(201,201,201)"/><rect x="4" y="0" width="3" height="3" fill="rgb(201,201,201)"/><rect x="7" y="0" width="4" height="3" fill="rgb(201,201,201)"/><rect x="11" y="0" width="3" height="3" fill="rgb(201,201,201)"/><rect x="14" y="0" width="4" height="3" fill="rgb(201,201,201)"/><rect x="18" y="0" width="3" height="3" fill="rgb(201,201,201)"/><rect x="21" y="0" width="3" height="3" fill="rgb(201,201,201)"/><rect x="1" y="0" width="3" height="3" fill="rgb(201,201,201)"/><rect x="14" y="3" width="4" height="4" fill="rgb(201,201,201)"/><rect x="18" y="3" width="3" height="4" fill="rgb(201,201,201)"/></g></svg>