<?xml version="1.0" encoding="utf-8"?>
<svg xmlns="http://www.w3.org/2000/svg"
	xmlns:xlink="http://www.w3.org/1999/xlink"
	width="123px" height="192px" viewBox="0 0 123 192">
<path fillRule="evenodd" d="M 13 172.92C 13 172.92 10 172.97 10 172.97 9.99 172.56 10.01 167.93 10.03 161 10.03 161 13.03 161.01 13.03 161.01 13 170.41 12.99 172.67 13 172.92M 13.05 155.01C 13.05 155.01 10.05 155 10.05 155 10.06 151.32 10.08 147.26 10.09 143 10.09 143 13.09 143.01 13.09 143.01 13.09 143.01 13.05 155.01 13.05 155.01M 13.12 137.01C 13.12 137.01 10.12 137 10.12 137 10.13 133.05 10.15 129 10.16 125 10.16 125 13.16 125.01 13.16 125.01 13.16 125.01 13.12 137.01 13.12 137.01M 13.19 119.01C 13.19 119.01 10.19 119 10.19 119 10.2 115.73 10.21 112.53 10.23 109.49 10.23 108.65 10.23 107.82 10.24 107 10.24 107 13.24 107.01 13.24 107.01 13.24 107.01 13.23 109.51 13.23 109.51 13.23 109.51 13.19 119.01 13.19 119.01M 13.26 101.01C 13.26 101.01 10.26 101 10.26 101 10.28 96.01 10.29 91.84 10.3 89 10.3 89 13.3 89.01 13.3 89.01 13.3 89.01 13.26 101.01 13.26 101.01M 12.31 88C 12.31 88 12.31 85 12.31 85 14.63 85 18.85 85 24.31 84.99 24.31 84.99 24.31 87.99 24.31 87.99 24.31 87.99 12.31 88 12.31 88M 30.32 87.99C 30.32 87.99 30.32 84.99 30.32 84.99 34 84.99 38.05 84.99 42.32 84.99 42.32 84.99 42.32 87.99 42.32 87.99 42.32 87.99 30.32 87.99 30.32 87.99M 48.32 87.99C 48.32 87.99 48.32 84.99 48.32 84.99 52.22 84.99 56.25 84.99 60.32 84.99 60.32 84.99 60.32 87.99 60.32 87.99 60.32 87.99 48.32 87.99 48.32 87.99M 66.32 88C 66.32 88 66.32 85 66.32 85 70.36 85 74.39 85 78.32 85 78.32 85 78.32 88 78.32 88 78.32 88 66.32 88 66.32 88M 84.32 88C 84.32 88 84.32 85 84.32 85 88.53 85 92.57 85 96.32 85 96.32 85 96.32 88 96.32 88 96.32 88 84.32 88 84.32 88M 102.32 88C 102.32 88 102.32 85 102.32 85 107.17 85 111.29 85 114.32 85 114.32 85 114.32 88 114.32 88 114.32 88 102.32 88 102.32 88M 123 84.68C 123 84.68 120 84.68 120 84.68 120 84.68 120 72.68 120 72.68 120 72.68 123 72.68 123 72.68 123 72.68 123 84.68 123 84.68M 123 66.68C 123 66.68 120 66.68 120 66.68 120 66.68 120 54.68 120 54.68 120 54.68 123 54.68 123 54.68 123 54.68 123 66.68 123 66.68M 123 48.68C 123 48.68 120 48.68 120 48.68 120 48.68 120 36.68 120 36.68 120 36.68 123 36.68 123 36.68 123 36.68 123 48.68 123 48.68M 123 30.68C 123 30.68 120 30.68 120 30.68 120 30.68 120 18.68 120 18.68 120 18.68 123 18.68 123 18.68 123 18.68 123 30.68 123 30.68M 123 12.68C 123 12.68 120 12.68 120 12.68 120 12.68 120 0.68 120 0.68 120 0.68 123 0.68 123 0.68 123 0.68 123 12.68 123 12.68M 10 173C 10 173 10 170 10 170 10 170 10 173 10 173 10 173 13 172.92 13 172.92 13 172.92 10 173 10 173 10 173 10 173 10 173Z" fill="rgb(201,201,201)"/><g transform="translate(0.00 179.00)"><rect x="11" y="7" width="3" height="3" fill="rgb(201,201,201)"/><rect x="14" y="7" width="4" height="3" fill="rgb(201,201,201)"/><rect x="11" y="10" width="3" height="3" fill="rgb(201,201,201)"/><rect x="11" y="3" width="3" height="4" fill="rgb(201,201,201)"/><rect x="7" y="3" width="4" height="4" fill="rgb(201,201,201)"/><rect x="7" y="7" width="4" height="3" fill="rgb(201,201,201)"/><rect x="4" y="3" width="3" height="4" fill="rgb(201,201,201)"/><rect x="4" y="0" width="3" height="3" fill="rgb(201,201,201)"/><rect x="7" y="0" width="4" height="3" fill="rgb(201,201,201)"/><rect x="11" y="0" width="3" height="3" fill="rgb(201,201,201)"/><rect x="14" y="0" width="4" height="3" fill="rgb(201,201,201)"/><rect x="18" y="0" width="3" height="3" fill="rgb(201,201,201)"/><rect x="21" y="0" width="3" height="3" fill="rgb(201,201,201)"/><rect x="1" y="0" width="3" height="3" fill="rgb(201,201,201)"/><rect x="14" y="3" width="4" height="4" fill="rgb(201,201,201)"/><rect x="18" y="3" width="3" height="4" fill="rgb(201,201,201)"/></g></svg>