<svg xmlns="http://www.w3.org/2000/svg" width="334.562" height="28.47" viewBox="0 0 334.562 28.47">
  <metadata><?xpacket begin="﻿" id="W5M0MpCehiHzreSzNTczkc9d"?>
<x:xmpmeta xmlns:x="adobe:ns:meta/" x:xmptk="Adobe XMP Core 5.6-c138 79.159824, 2016/09/14-01:09:01        ">
   <rdf:RDF xmlns:rdf="http://www.w3.org/1999/02/22-rdf-syntax-ns#">
      <rdf:Description rdf:about=""/>
   </rdf:RDF>
</x:xmpmeta>
                                                                                                    
                                                                                                    
                                                                                                    
                                                                                                    
                                                                                                    
                                                                                                    
                                                                                                    
                                                                                                    
                                                                                                    
                                                                                                    
                                                                                                    
                                                                                                    
                                                                                                    
                                                                                                    
                                                                                                    
                                                                                                    
                                                                                                    
                                                                                                    
                                                                                                    
                                                                                                    
                           
<?xpacket end="w"?></metadata>
<defs>
    <style>
      .cls-1 {
        fill: #fff;
        fill-rule: evenodd;
      }
    </style>
  </defs>
  <path id="logo_outdor" class="cls-1" d="M178.865,7580.69q0,6.84-3.411,10.51t-9.78,3.67q-6.368,0-9.779-3.67t-3.412-10.54q0-6.885,3.421-10.5,3.422-3.63,9.808-3.63t9.77,3.65Q178.866,7573.84,178.865,7580.69Zm-20.223,0q0,4.62,1.763,6.95a6.179,6.179,0,0,0,5.269,2.34q7.03,0,7.031-9.29t-6.993-9.3a6.212,6.212,0,0,0-5.288,2.35Q158.644,7576.08,158.642,7580.69Zm48.518-13.73v17.82a10.231,10.231,0,0,1-1.373,5.35,8.96,8.96,0,0,1-3.971,3.52,14.217,14.217,0,0,1-6.14,1.22c-3.563,0-6.331-.9-8.3-2.72a9.6,9.6,0,0,1-2.956-7.44v-17.75h5.857v16.86a7.028,7.028,0,0,0,1.287,4.67c0.86,0.99,2.282,1.49,4.266,1.49a5.249,5.249,0,0,0,4.178-1.5,7.059,7.059,0,0,0,1.3-4.7v-16.82h5.855Zm17.476,27.54h-5.875v-22.68h-7.524v-4.86h20.924v4.86h-7.525v22.68Zm34.778-14.03q0,6.795-3.895,10.41t-11.247,3.62h-7.847v-27.54h8.7q6.786,0,10.538,3.56T259.414,7580.47Zm-6.1.15q0-8.88-7.885-8.87H242.3v17.93h2.52Q253.311,7589.68,253.312,7580.62Zm37,0.07q0,6.84-3.41,10.51t-9.781,3.67q-6.368,0-9.779-3.67t-3.412-10.54q0-6.885,3.421-10.5,3.422-3.63,9.808-3.63t9.77,3.65Q290.309,7573.84,290.307,7580.69Zm-20.222,0q0,4.62,1.762,6.95a6.179,6.179,0,0,0,5.269,2.34q7.032,0,7.032-9.29t-6.994-9.3a6.213,6.213,0,0,0-5.288,2.35Q270.085,7576.08,270.085,7580.69Zm51.115,0q0,6.84-3.411,10.51t-9.78,3.67q-6.368,0-9.78-3.67t-3.411-10.54q0-6.885,3.42-10.5,3.423-3.63,9.808-3.63t9.77,3.65Q321.2,7573.84,321.2,7580.69Zm-20.223,0q0,4.62,1.763,6.95a6.179,6.179,0,0,0,5.269,2.34q7.031,0,7.031-9.29t-6.994-9.3a6.212,6.212,0,0,0-5.287,2.35Q300.977,7576.08,300.977,7580.69Zm31.842,3.24v10.57h-5.875v-27.54h8.074c3.765,0,6.55.69,8.358,2.05s2.71,3.43,2.71,6.2a7.315,7.315,0,0,1-1.346,4.33,8.929,8.929,0,0,1-3.81,2.96q6.253,9.285,8.151,12h-6.52l-6.615-10.57h-3.127Zm0-4.74h1.895a7.243,7.243,0,0,0,4.113-.93,3.279,3.279,0,0,0,1.327-2.9,3,3,0,0,0-1.356-2.78,8.289,8.289,0,0,0-4.2-.83h-1.782v7.44ZM351.3,7591.8a3.147,3.147,0,0,1,.853-2.39,3.472,3.472,0,0,1,2.482-.81,3.385,3.385,0,0,1,2.436.83,3.645,3.645,0,0,1-.01,4.72,3.316,3.316,0,0,1-2.426.86,3.405,3.405,0,0,1-2.463-.84A3.134,3.134,0,0,1,351.3,7591.8Zm18.215-7.87v10.57h-5.876v-27.54h8.074c3.766,0,6.551.69,8.359,2.05a8.112,8.112,0,0,1,1.364,10.53,8.929,8.929,0,0,1-3.81,2.96q6.253,9.285,8.15,12h-6.52l-6.614-10.57h-3.127Zm0-4.74h1.895a7.246,7.246,0,0,0,4.113-.93,3.278,3.278,0,0,0,1.326-2.9,3,3,0,0,0-1.355-2.78,8.293,8.293,0,0,0-4.2-.83h-1.781v7.44Zm44.9,1.5q0,6.84-3.41,10.51t-9.781,3.67q-6.368,0-9.779-3.67t-3.412-10.54q0-6.885,3.421-10.5,3.423-3.63,9.808-3.63t9.77,3.65Q414.412,7573.84,414.409,7580.69Zm-20.222,0q0,4.62,1.762,6.95a6.179,6.179,0,0,0,5.269,2.34q7.03,0,7.032-9.29t-6.994-9.3a6.213,6.213,0,0,0-5.288,2.35Q394.188,7576.08,394.187,7580.69Zm37.735-9.26a5.979,5.979,0,0,0-5.135,2.48,11.438,11.438,0,0,0-1.82,6.9c0,6.13,2.318,9.21,6.955,9.21a22.308,22.308,0,0,0,7.071-1.45v4.89a19.78,19.78,0,0,1-7.62,1.41q-6.046,0-9.248-3.64t-3.2-10.46a16.969,16.969,0,0,1,1.573-7.52,11.311,11.311,0,0,1,4.52-4.96,13.427,13.427,0,0,1,6.908-1.72,18.785,18.785,0,0,1,8.112,1.94l-1.894,4.74a32.865,32.865,0,0,0-3.129-1.28A9.463,9.463,0,0,0,431.922,7571.43Zm35.252,23.07H460.5l-7.259-11.6-2.482,1.77v9.83h-5.876v-27.54h5.876v12.6l2.311-3.24,7.506-9.36h6.52l-9.666,12.19Zm19.843-7.65a7.1,7.1,0,0,1-2.7,5.88q-2.7,2.145-7.514,2.14a17.81,17.81,0,0,1-7.847-1.65v-5.43a32.4,32.4,0,0,0,4.748,1.75,14.1,14.1,0,0,0,3.554.51,5.074,5.074,0,0,0,2.966-.73,2.506,2.506,0,0,0,1.033-2.18,2.408,2.408,0,0,0-.455-1.45,5.086,5.086,0,0,0-1.337-1.21,35.087,35.087,0,0,0-3.59-1.87,17.349,17.349,0,0,1-3.811-2.27,8.575,8.575,0,0,1-2.027-2.55,7.184,7.184,0,0,1-.758-3.39,7.092,7.092,0,0,1,2.492-5.74,10.421,10.421,0,0,1,6.889-2.09,16.311,16.311,0,0,1,4.122.51,28,28,0,0,1,4.1,1.43l-1.9,4.54a27.007,27.007,0,0,0-3.666-1.26,11.823,11.823,0,0,0-2.854-.36,3.816,3.816,0,0,0-2.558.77,2.534,2.534,0,0,0-.89,2.01,2.474,2.474,0,0,0,.359,1.35,4.017,4.017,0,0,0,1.147,1.11,33.294,33.294,0,0,0,3.724,1.93,14.92,14.92,0,0,1,5.327,3.7A7.2,7.2,0,0,1,487.017,7586.85Z" transform="translate(-152.469 -7566.53)"/>
</svg>
