<svg xmlns="http://www.w3.org/2000/svg" width="298.531" height="70.53" viewBox="0 0 298.531 70.53">
  <metadata><?xpacket begin="﻿" id="W5M0MpCehiHzreSzNTczkc9d"?>
<x:xmpmeta xmlns:x="adobe:ns:meta/" x:xmptk="Adobe XMP Core 5.6-c138 79.159824, 2016/09/14-01:09:01        ">
   <rdf:RDF xmlns:rdf="http://www.w3.org/1999/02/22-rdf-syntax-ns#">
      <rdf:Description rdf:about=""/>
   </rdf:RDF>
</x:xmpmeta>
                                                                                                    
                                                                                                    
                                                                                                    
                                                                                                    
                                                                                                    
                                                                                                    
                                                                                                    
                                                                                                    
                                                                                                    
                                                                                                    
                                                                                                    
                                                                                                    
                                                                                                    
                                                                                                    
                                                                                                    
                                                                                                    
                                                                                                    
                                                                                                    
                                                                                                    
                                                                                                    
                           
<?xpacket end="w"?></metadata>
<defs>
    <style>
      .cls-1 {
        fill: #fff;
        fill-rule: evenodd;
      }
    </style>
  </defs>
  <path id="logo_educadio" class="cls-1" d="M437.347,7902.57a2.81,2.81,0,1,0-2.81,2.84A2.822,2.822,0,0,0,437.347,7902.57Zm-181-2.16h23.8v3.37H260.059v11.45h17.97v3.37h-17.97v11.68h20.322v3.38H256.343v-33.25Zm41.114,33.77a11.113,11.113,0,0,1-4.281-.86,11.438,11.438,0,0,1-3.717-2.49,12.19,12.19,0,0,1-2.634-3.99,13.817,13.817,0,0,1-.988-5.39v-0.1a13.84,13.84,0,0,1,.988-5.36,12.222,12.222,0,0,1,2.634-4.02,11.66,11.66,0,0,1,3.717-2.51,10.776,10.776,0,0,1,4.281-.88,10.5,10.5,0,0,1,3.1.43,9.986,9.986,0,0,1,2.54,1.14,10.5,10.5,0,0,1,2.047,1.66,14.959,14.959,0,0,1,1.623,1.99v-14.82h3.622v34.68h-3.622v-4.94a20.385,20.385,0,0,1-1.67,2.09,11.405,11.405,0,0,1-2.046,1.75,9.231,9.231,0,0,1-2.517,1.19A10.276,10.276,0,0,1,297.457,7934.18Zm0.658-3.28a8.077,8.077,0,0,0,3.27-.69,9.054,9.054,0,0,0,2.822-1.95,9.215,9.215,0,0,0,1.976-2.99,9.851,9.851,0,0,0,.729-3.87v-0.09a9.851,9.851,0,0,0-.729-3.87,9.021,9.021,0,0,0-1.976-2.97,9.161,9.161,0,0,0-2.822-1.93,8.235,8.235,0,0,0-3.27-.68,8.614,8.614,0,0,0-3.34.64,7.672,7.672,0,0,0-2.7,1.85,8.962,8.962,0,0,0-1.834,2.97,10.944,10.944,0,0,0-.682,3.99v0.09a10.784,10.784,0,0,0,.682,3.94,9.011,9.011,0,0,0,1.858,3A8.2,8.2,0,0,0,298.115,7930.9Zm29.307,3.28a10.273,10.273,0,0,1-3.929-.71,8.217,8.217,0,0,1-2.916-2.02,8.932,8.932,0,0,1-1.835-3.11,12.02,12.02,0,0,1-.635-3.99V7909.1h3.623v14.31a7.94,7.94,0,0,0,1.74,5.41,6.291,6.291,0,0,0,4.987,1.99,7.486,7.486,0,0,0,2.893-.55,6.437,6.437,0,0,0,2.3-1.56,7.652,7.652,0,0,0,1.529-2.44,8.4,8.4,0,0,0,.565-3.13V7909.1h3.575v24.56h-3.575v-4.28a11.61,11.61,0,0,1-3.2,3.4A8.7,8.7,0,0,1,327.422,7934.18Zm31,0.05a11.862,11.862,0,0,1-4.962-1.03,12.428,12.428,0,0,1-3.952-2.75,12.648,12.648,0,0,1-2.611-4.06,12.917,12.917,0,0,1-.94-4.89v-0.1a13.059,13.059,0,0,1,.94-4.94,12.849,12.849,0,0,1,2.611-4.08,12.353,12.353,0,0,1,3.952-2.78,12.014,12.014,0,0,1,4.962-1.02,13.873,13.873,0,0,1,3.152.33,11.649,11.649,0,0,1,4.751,2.33,19.318,19.318,0,0,1,1.835,1.71l-2.4,2.56a17.358,17.358,0,0,0-3.175-2.61,7.676,7.676,0,0,0-4.21-1.09,8.122,8.122,0,0,0-3.435.73,8.831,8.831,0,0,0-2.775,2.02,9.319,9.319,0,0,0-1.835,3.02,10.4,10.4,0,0,0-.658,3.73v0.09a10.11,10.11,0,0,0,.682,3.73,9.618,9.618,0,0,0,1.882,3.04,8.62,8.62,0,0,0,2.822,2.04,8.508,8.508,0,0,0,3.552.74,8.149,8.149,0,0,0,4.163-1.05,13.709,13.709,0,0,0,3.269-2.61l2.305,2.19a16.35,16.35,0,0,1-4.163,3.42A11.543,11.543,0,0,1,358.421,7934.23Zm23.145-.05a11.873,11.873,0,0,1-3.34-.48,8.575,8.575,0,0,1-2.917-1.45,7.392,7.392,0,0,1-2.046-2.39,6.849,6.849,0,0,1-.776-3.33v-0.09a7.644,7.644,0,0,1,.752-3.49,6.829,6.829,0,0,1,2.141-2.5,10.347,10.347,0,0,1,3.293-1.52,15.828,15.828,0,0,1,4.21-.52,24.079,24.079,0,0,1,4.069.29,28.934,28.934,0,0,1,3.363.75v-0.75a6.248,6.248,0,0,0-1.881-4.93,7.716,7.716,0,0,0-5.316-1.68,14.951,14.951,0,0,0-3.928.48,19.537,19.537,0,0,0-3.457,1.28l-1.083-3.01a25.082,25.082,0,0,1,4.093-1.54,17.524,17.524,0,0,1,4.751-.58q5.175,0,7.856,2.71c1.694,1.71,2.541,4.11,2.541,7.22v15.01h-3.576V7930a11.611,11.611,0,0,1-3.41,2.92A10.38,10.38,0,0,1,381.566,7934.18Zm0.732-2.99a9.959,9.959,0,0,0,3.141-.48,8.044,8.044,0,0,0,2.556-1.34,6.59,6.59,0,0,0,1.734-2.08,5.691,5.691,0,0,0,.633-2.67v-2.27c-0.907-.25-1.938-0.49-3.094-0.71a21.5,21.5,0,0,0-3.985-.33,8.758,8.758,0,0,0-5.229,1.35,4.182,4.182,0,0,0-1.851,3.56v0.1a4.278,4.278,0,0,0,.492,2.05,4.459,4.459,0,0,0,1.337,1.54,6.612,6.612,0,0,0,1.945.95A8.048,8.048,0,0,0,382.3,7931.19Zm29.468,2.99a11.116,11.116,0,0,1-4.281-.86,11.434,11.434,0,0,1-3.716-2.49,12.19,12.19,0,0,1-2.634-3.99,13.8,13.8,0,0,1-.988-5.39v-0.1a13.822,13.822,0,0,1,.988-5.36,12.222,12.222,0,0,1,2.634-4.02,11.655,11.655,0,0,1,3.716-2.51,10.78,10.78,0,0,1,4.281-.88,10.509,10.509,0,0,1,3.1.43,10,10,0,0,1,2.54,1.14,10.489,10.489,0,0,1,2.046,1.66,14.881,14.881,0,0,1,1.623,1.99v-14.82H424.7v34.68H421.08v-4.94a20.25,20.25,0,0,1-1.67,2.09,11.337,11.337,0,0,1-2.046,1.75,9.239,9.239,0,0,1-2.516,1.19A10.282,10.282,0,0,1,411.766,7934.18Zm0.659-3.28a8.069,8.069,0,0,0,3.269-.69,9.042,9.042,0,0,0,2.822-1.95,9.2,9.2,0,0,0,1.976-2.99,9.852,9.852,0,0,0,.73-3.87v-0.09a9.852,9.852,0,0,0-.73-3.87,9.005,9.005,0,0,0-1.976-2.97,9.15,9.15,0,0,0-2.822-1.93,8.227,8.227,0,0,0-3.269-.68,8.61,8.61,0,0,0-3.34.64,7.663,7.663,0,0,0-2.7,1.85,8.98,8.98,0,0,0-1.835,2.97,10.944,10.944,0,0,0-.682,3.99v0.09a10.784,10.784,0,0,0,.682,3.94,9.027,9.027,0,0,0,1.858,3A8.2,8.2,0,0,0,412.425,7930.9Zm20.7-21.8h3.622v24.56h-3.622V7909.1Zm23.144,25.13a12.139,12.139,0,0,1-5.033-1.03,12.634,12.634,0,0,1-4-2.75,12.462,12.462,0,0,1-2.634-4.04,12.815,12.815,0,0,1-.941-4.91v-0.1a13.041,13.041,0,0,1,.941-4.94,12.638,12.638,0,0,1,2.634-4.08,12.92,12.92,0,0,1,14.183-2.78,12.741,12.741,0,0,1,4.022,2.75,12.569,12.569,0,0,1,2.634,4.04,12.921,12.921,0,0,1,.941,4.92v0.09a12.793,12.793,0,0,1-.964,4.94,13.134,13.134,0,0,1-2.658,4.09A12.679,12.679,0,0,1,456.266,7934.23Zm0.094-3.28a8.489,8.489,0,0,0,3.622-.76,8.892,8.892,0,0,0,2.822-2.04,9.441,9.441,0,0,0,1.835-3,10.043,10.043,0,0,0,.659-3.65v-0.1a10.131,10.131,0,0,0-.682-3.73,9.653,9.653,0,0,0-1.906-3.04,9.029,9.029,0,0,0-2.869-2.06,8.379,8.379,0,0,0-3.575-.76,8.533,8.533,0,0,0-6.421,2.8,9.441,9.441,0,0,0-1.812,3.02,10.243,10.243,0,0,0-.658,3.68v0.09a10.11,10.11,0,0,0,.682,3.73,9.432,9.432,0,0,0,1.882,3.02,9.167,9.167,0,0,0,2.846,2.04A8.37,8.37,0,0,0,456.36,7930.95Zm-194.581,15.1h1.98l8.536,19.05H270.02l-2.194-5H257.632l-2.221,5h-2.168ZM267,7958.18l-4.255-9.64-4.281,9.64H267Zm14.877,7.24a6.785,6.785,0,0,1-2.823-.58,7.13,7.13,0,0,1-2.248-1.57,7.012,7.012,0,0,1-1.485-2.31,7.337,7.337,0,0,1-.535-2.78v-0.05a7.415,7.415,0,0,1,.535-2.81,7.315,7.315,0,0,1,1.485-2.33,7.157,7.157,0,0,1,2.248-1.58,6.946,6.946,0,0,1,2.823-.58,8.183,8.183,0,0,1,1.792.19,6.569,6.569,0,0,1,1.472.53,6.734,6.734,0,0,1,1.231.79,11.764,11.764,0,0,1,1.044.98l-1.365,1.46a9.478,9.478,0,0,0-1.806-1.49,4.413,4.413,0,0,0-2.4-.62,4.6,4.6,0,0,0-1.953.42,4.858,4.858,0,0,0-1.579,1.15,5.172,5.172,0,0,0-1.044,1.71,5.947,5.947,0,0,0-.374,2.12v0.06a5.764,5.764,0,0,0,.388,2.12,5.642,5.642,0,0,0,1.07,1.73,5,5,0,0,0,1.606,1.16,4.816,4.816,0,0,0,2.02.42,4.621,4.621,0,0,0,2.368-.6,7.909,7.909,0,0,0,1.859-1.48l1.312,1.24a9.175,9.175,0,0,1-2.368,1.94A6.466,6.466,0,0,1,281.874,7965.42Zm13.673-.08a5.2,5.2,0,0,1-1.552-.22,3.081,3.081,0,0,1-1.244-.69,3.135,3.135,0,0,1-.816-1.22,5,5,0,0,1-.3-1.81v-8.43h-1.926v-1.84h1.926v-4.22H293.7v4.22h4.388v1.84H293.7v8.13a2.19,2.19,0,0,0,.642,1.81,2.631,2.631,0,0,0,1.686.51,4.586,4.586,0,0,0,1-.1,4.8,4.8,0,0,0,1-.36v1.79a4.972,4.972,0,0,1-1.138.44A5.6,5.6,0,0,1,295.547,7965.34Zm5.94-3.08h2.462v2.84h-2.462v-2.84Zm7.144-16.07h2.114v16.93h10.542v1.98H308.631v-18.91Zm17.446,12.77a5.664,5.664,0,0,0,.535,1.98,4.779,4.779,0,0,0,4.335,2.67,5.264,5.264,0,0,0,2.474-.54,7.421,7.421,0,0,0,1.887-1.43l1.284,1.16a8.361,8.361,0,0,1-2.381,1.9,6.936,6.936,0,0,1-3.318.72,6.7,6.7,0,0,1-2.676-.53,6.551,6.551,0,0,1-2.194-1.48,7.077,7.077,0,0,1-1.485-2.31,7.812,7.812,0,0,1-.548-2.97,8.131,8.131,0,0,1,.494-2.85,7.159,7.159,0,0,1,1.379-2.33,6.549,6.549,0,0,1,2.1-1.55,6.2,6.2,0,0,1,2.662-.57,6.309,6.309,0,0,1,2.73.58,6.12,6.12,0,0,1,2.034,1.58,6.963,6.963,0,0,1,1.257,2.35,9.552,9.552,0,0,1,.428,2.89v0.31a3.817,3.817,0,0,1-.027.42h-10.97Zm8.91-1.7a6.514,6.514,0,0,0-.4-1.78,4.83,4.83,0,0,0-.869-1.49,4,4,0,0,0-1.338-1.03,4.158,4.158,0,0,0-1.806-.37,3.887,3.887,0,0,0-1.659.35,4.16,4.16,0,0,0-1.364.98,5.457,5.457,0,0,0-.977,1.49,6,6,0,0,0-.5,1.85h8.91Zm9.82,8.13a6.826,6.826,0,0,1-1.9-.27,4.936,4.936,0,0,1-1.659-.82,4.288,4.288,0,0,1-1.164-1.36,3.932,3.932,0,0,1-.441-1.9v-0.05a4.373,4.373,0,0,1,.428-1.99,3.829,3.829,0,0,1,1.217-1.41,5.822,5.822,0,0,1,1.873-.87,8.968,8.968,0,0,1,2.395-.3,14.056,14.056,0,0,1,2.315.17,15.316,15.316,0,0,1,1.913.43v-0.43a3.583,3.583,0,0,0-1.071-2.81,4.419,4.419,0,0,0-3.023-.95,8.586,8.586,0,0,0-2.234.27,11.2,11.2,0,0,0-1.967.73l-0.616-1.71a14.079,14.079,0,0,1,2.329-.88,10.03,10.03,0,0,1,2.7-.33,6.047,6.047,0,0,1,4.468,1.54,5.594,5.594,0,0,1,1.445,4.11v8.54h-2.033v-2.08a6.676,6.676,0,0,1-1.94,1.66A5.983,5.983,0,0,1,344.807,7965.39Zm0.416-1.7a5.724,5.724,0,0,0,1.787-.27,4.646,4.646,0,0,0,1.454-.76,3.675,3.675,0,0,0,.987-1.19,3.188,3.188,0,0,0,.359-1.52v-1.29c-0.515-.14-1.1-0.27-1.759-0.4a12.684,12.684,0,0,0-2.267-.19,4.992,4.992,0,0,0-2.974.77,2.392,2.392,0,0,0-1.053,2.03v0.05a2.443,2.443,0,0,0,.28,1.17,2.622,2.622,0,0,0,.76.88,3.566,3.566,0,0,0,1.106.53A4.418,4.418,0,0,0,345.223,7963.69Zm10.956-12.56h2.06v3.65a7.54,7.54,0,0,1,.936-1.6,6.416,6.416,0,0,1,1.285-1.25,5.239,5.239,0,0,1,1.579-.8,5.538,5.538,0,0,1,1.846-.24v2.24h-0.161a5.626,5.626,0,0,0-2.127.4,4.827,4.827,0,0,0-1.752,1.22,5.76,5.76,0,0,0-1.178,2.01,8.265,8.265,0,0,0-.428,2.77v5.57h-2.06v-13.97Zm10.836,0h2.061v2.43a6.489,6.489,0,0,1,1.819-1.93,4.944,4.944,0,0,1,2.917-.8,5.79,5.79,0,0,1,2.234.41,4.573,4.573,0,0,1,1.659,1.15,4.974,4.974,0,0,1,1.044,1.77,6.755,6.755,0,0,1,.361,2.26v8.68h-2.06v-8.14a4.529,4.529,0,0,0-.99-3.08,3.581,3.581,0,0,0-2.836-1.13,4.265,4.265,0,0,0-1.646.31,3.84,3.84,0,0,0-1.325.89,4.061,4.061,0,0,0-.869,1.39,4.964,4.964,0,0,0-.308,1.78v7.98h-2.061v-13.97Zm16.242,11.13h2.462v2.84h-2.462v-2.84Zm14.075-16.21h1.98l8.535,19.05h-2.274l-2.194-5H393.184l-2.221,5H388.8Zm5.217,12.13-4.254-9.64-4.281,9.64h8.535Zm8.643-7.05h2.06v2.81a10.542,10.542,0,0,1,.95-1.19,6.1,6.1,0,0,1,1.164-.99,5.919,5.919,0,0,1,1.431-.67,5.685,5.685,0,0,1,1.753-.26,6.251,6.251,0,0,1,2.422.49,6.424,6.424,0,0,1,2.127,1.42,6.876,6.876,0,0,1,1.5,2.27,7.84,7.84,0,0,1,.562,3.06v0.06a7.9,7.9,0,0,1-.562,3.05,7.02,7.02,0,0,1-1.486,2.28,6.447,6.447,0,0,1-2.113,1.43,6.4,6.4,0,0,1-4.215.26,5.843,5.843,0,0,1-1.445-.65,6.226,6.226,0,0,1-1.164-.94,8.226,8.226,0,0,1-.923-1.14v7h-2.06v-18.29Zm6.984,12.4a4.838,4.838,0,0,0,1.886-.37,4.347,4.347,0,0,0,1.552-1.05,5.05,5.05,0,0,0,1.043-1.69,6.194,6.194,0,0,0,.388-2.27v-0.05a6.1,6.1,0,0,0-.388-2.24,5,5,0,0,0-1.056-1.7,4.594,4.594,0,0,0-3.425-1.46,4.611,4.611,0,0,0-1.86.39,5.087,5.087,0,0,0-1.606,1.11,5.207,5.207,0,0,0-1.123,1.7,5.54,5.54,0,0,0-.415,2.17v0.06a5.67,5.67,0,0,0,.415,2.21,5,5,0,0,0,1.123,1.7,5.224,5.224,0,0,0,1.606,1.1A4.611,4.611,0,0,0,418.176,7963.53Zm10.782-12.4h2.061v2.81a10.431,10.431,0,0,1,.95-1.19,6.074,6.074,0,0,1,1.164-.99,5.919,5.919,0,0,1,1.431-.67,5.68,5.68,0,0,1,1.753-.26,6.25,6.25,0,0,1,2.421.49,6.4,6.4,0,0,1,2.127,1.42,6.86,6.86,0,0,1,1.5,2.27,7.822,7.822,0,0,1,.562,3.06v0.06a7.877,7.877,0,0,1-.562,3.05,7.034,7.034,0,0,1-1.485,2.28,6.451,6.451,0,0,1-2.114,1.43,6.392,6.392,0,0,1-4.214.26,5.81,5.81,0,0,1-1.445-.65,6.226,6.226,0,0,1-1.164-.94,8.226,8.226,0,0,1-.923-1.14v7h-2.061v-18.29Zm6.984,12.4a4.839,4.839,0,0,0,1.887-.37,4.365,4.365,0,0,0,1.552-1.05,5.082,5.082,0,0,0,1.043-1.69,6.194,6.194,0,0,0,.388-2.27v-0.05a6.1,6.1,0,0,0-.388-2.24,5,5,0,0,0-1.057-1.7,4.594,4.594,0,0,0-3.425-1.46,4.61,4.61,0,0,0-1.859.39,5.065,5.065,0,0,0-1.606,1.11,5.209,5.209,0,0,0-1.124,1.7,5.539,5.539,0,0,0-.414,2.17v0.06a5.67,5.67,0,0,0,.414,2.21,5.006,5.006,0,0,0,1.124,1.7,5.2,5.2,0,0,0,1.606,1.1A4.61,4.61,0,0,0,435.942,7963.53Zm10.97-18.16h2.061v19.73h-2.061v-19.73Zm8.991,24.13a6.2,6.2,0,0,1-1.552-.18,6.566,6.566,0,0,1-1.392-.52l0.7-1.65a4.3,4.3,0,0,0,1,.39,4.984,4.984,0,0,0,1.164.12,2.332,2.332,0,0,0,1.578-.56,5.76,5.76,0,0,0,1.258-2.06l-6.288-13.91h2.274l5.031,11.64,4.442-11.64h2.193l-5.806,14.43a7.72,7.72,0,0,1-1.966,3.05A4.039,4.039,0,0,1,455.9,7969.5Zm-214.087-42.49a1.034,1.034,0,0,0-1.319-1.18,34.235,34.235,0,0,0-16.542,5.57,22.84,22.84,0,0,0-4.993,4.68,1.928,1.928,0,0,0-.408.87,1.833,1.833,0,0,0-.037.36,1.8,1.8,0,0,0,1.84,1.77,1.843,1.843,0,0,0,1.039-.31h0a0.98,0.98,0,0,0,.237-0.19,0.252,0.252,0,0,1,.056-0.05c0.023-.03.047-0.05,0.073-0.08,0.171-.19.9-1.27,1.106-1.57a17.661,17.661,0,0,1,7.259-5.47,44.882,44.882,0,0,1,7.886-2.16c0.769-.16.9,0.05,0.889,0.75-0.042,2.68.021,5.37-.241,8.04-0.5,5.07-1.487,10.01-3.93,14.52-2.917,5.39-7.118,9.28-13.346,10.02a27.087,27.087,0,0,1-14.9-2.27,14.029,14.029,0,0,1-8.332-10.26,20.569,20.569,0,0,1,.712-10.88c0.721-2.1,1.545-4.16,2.283-6.25,0.42-1.19.125-2.18-.658-2.52a1.977,1.977,0,0,0-2.42,1.12,29.525,29.525,0,0,0-3.948,11.53c-0.679,6.43.975,12.15,5.6,16.68,6.01,5.89,13.6,7.52,21.526,6.43,8.53-1.17,14.43-6.39,17.812-14.39a43.458,43.458,0,0,0,3.021-17.87C242.131,7931.75,241.972,7929.38,241.816,7927.01Zm-71.283,5.07c0-1.8-.007-3.6,0-5.4,0-.69.171-1.16,1.056-1.05,6.987,0.88,13.611,2.71,19.183,7.35a21.785,21.785,0,0,1,2.992,3.14,1.5,1.5,0,0,1,.07,2.08,1.339,1.339,0,0,1-2.033.11c-1.312-.98-2.57-2.03-3.86-3.03a25.3,25.3,0,0,0-11.037-5.43c-3-.55-3.068-0.53-3.058,2.49a50.738,50.738,0,0,0,2.34,16.4c2.881,8.45,8.719,13.08,17.526,13.97,1.745,0.18,3.484.18,5.228,0.21a3.427,3.427,0,0,1,1.016.07,1.485,1.485,0,0,1,1.311,1.5,1.429,1.429,0,0,1-1.36,1.44c-9.47,1.31-19.353-.88-25-11.68a42.28,42.28,0,0,1-4.209-15.28A48.351,48.351,0,0,1,170.533,7932.08Zm46.917,12.11a31.772,31.772,0,0,1-4.509,15.78,2.053,2.053,0,0,1-2.558.78,1.8,1.8,0,0,1-.315-2.53c2.529-4.31,4.27-8.86,4.212-13.97-0.064-5.69-2.679-9.98-7.064-13.34a45.385,45.385,0,0,0-6-3.49,28.386,28.386,0,0,1-8.49-6.64,13.223,13.223,0,0,1-3.15-10.66,1.418,1.418,0,0,1,1.728-1.34,1.341,1.341,0,0,1,1.33,1.54,15.254,15.254,0,0,0,.323,3.18,12.483,12.483,0,0,0,5.3,7.48c2.241,1.65,4.692,2.95,7.07,4.38a31.2,31.2,0,0,1,9.06,7.39c1.741,2.24,2.3,4.95,2.8,7.66A16.879,16.879,0,0,1,217.45,7944.19Zm-11.742-30.77a6.3,6.3,0,1,1,6.315-6.26A6.249,6.249,0,0,1,205.708,7913.42Zm16.8-1.63a13.719,13.719,0,0,1-4.1,9.96,25.8,25.8,0,0,1-4.941,4.05,3.414,3.414,0,0,1-2.593.59,1.563,1.563,0,0,1-1.411-1.15,1.525,1.525,0,0,1,.786-1.65c0.91-.63,1.859-1.19,2.766-1.82,3.147-2.16,5.51-4.89,6.155-8.84a20.451,20.451,0,0,0,.127-2.52,1.51,1.51,0,0,1,1.5-1.65,1.484,1.484,0,0,1,1.636,1.61C222.474,7910.95,222.494,7911.52,222.507,7911.79Z" transform="translate(-170.469 -7898.97)"/>
</svg>
