<svg xmlns="http://www.w3.org/2000/svg" width="346.5" height="91.38" viewBox="0 0 346.5 91.38">
  <metadata><?xpacket begin="﻿" id="W5M0MpCehiHzreSzNTczkc9d"?>
<x:xmpmeta xmlns:x="adobe:ns:meta/" x:xmptk="Adobe XMP Core 5.6-c138 79.159824, 2016/09/14-01:09:01        ">
   <rdf:RDF xmlns:rdf="http://www.w3.org/1999/02/22-rdf-syntax-ns#">
      <rdf:Description rdf:about=""/>
   </rdf:RDF>
</x:xmpmeta>
                                                                                                    
                                                                                                    
                                                                                                    
                                                                                                    
                                                                                                    
                                                                                                    
                                                                                                    
                                                                                                    
                                                                                                    
                                                                                                    
                                                                                                    
                                                                                                    
                                                                                                    
                                                                                                    
                                                                                                    
                                                                                                    
                                                                                                    
                                                                                                    
                                                                                                    
                                                                                                    
                           
<?xpacket end="w"?></metadata>
<defs>
    <style>
      .cls-1 {
        fill: #fff;
        fill-rule: evenodd;
      }
    </style>
  </defs>
  <path id="logo_play_attention" class="cls-1" d="M202.6,7738.3a13.213,13.213,0,0,0,10.8-13.87c-0.356-6.42-4.278-10.04-9.809-12.37h-6.768c-0.414.84-1.344,0.73-2.023,1.04A13.289,13.289,0,0,0,202.6,7738.3Zm284.58,24.53c-1.308.88-.615,2.21-0.721,3.34-0.356,3.79.612,7.65-.545,11.41h0q-3.915-6.855-7.829-13.7c-1.555-2.73-4.185-1.8-6.362-1.6-2.284.21-1.546,2.38-1.558,3.82-0.057,6.85.061,13.71-.07,20.56-0.049,2.55.9,3.34,3.357,3.29,2.255-.05,3.7-0.43,3.6-3.12-0.14-3.7-.088-7.41-0.118-11.12,0.225-.43-0.012-1.1.69-1.27,2.278,3.97,4.529,7.94,6.842,11.89,2.375,4.05,4.105,4.59,8.8,2.88v-26.39A6.194,6.194,0,0,0,487.176,7762.83ZM157.86,7750.91c-4.381-1.3-8.073.63-11.121,5.82v5.41c0.539,0.82,1.041,1.66,1.623,2.45a8.675,8.675,0,0,0,9.913,3.03,8.767,8.767,0,0,0,5.948-8.49A8.891,8.891,0,0,0,157.86,7750.91Zm60.534,7.96a13.429,13.429,0,0,0-13.335,13.33,13.116,13.116,0,0,0,13.123,13.07,12.974,12.974,0,0,0,13.445-13.01A13.319,13.319,0,0,0,218.394,7758.87Zm-35.107-4.13q0,4.41,0,8.8c0,0.23,0,.45.017,0.68,0.422,4.77,3.845,6.97,8.028,4.71a177.218,177.218,0,0,0,15.548-9.47c4-2.74,3.859-7.08-.189-9.72-4.9-3.19-9.914-6.23-15.056-9-4.681-2.52-8.182-.22-8.334,5.21C183.219,7748.88,183.287,7751.81,183.287,7754.74Zm215.786,12.3c0-5.23-1.429-6.13-6.622-4.2-1.237.9-.746,2.24-0.826,3.42-0.239,3.56.456,7.15-.395,10.69q-3.825-6.54-7.648-13.08c-1.574-2.7-4.195-1.79-6.384-1.6-2.21.2-1.68,2.3-1.687,3.8-0.032,6.75.062,13.51-.053,20.26-0.043,2.55.706,3.64,3.448,3.64,2.623-.01,3.64-0.8,3.52-3.5-0.179-4.05-.046-8.13-0.046-12.76,3.062,5.1,5.876,9.55,8.436,14.13,1.645,2.95,4.277,2.18,6.559,1.91,2.38-.29,1.661-2.57,1.675-4.14C399.106,7779.42,399.074,7773.23,399.073,7767.04Zm-29.914,16.86c-1.914.06-3.838-.09-5.744,0.04-1.83.13-2.535-.38-2.535-2.37,0-2.01.432-2.95,2.6-2.65a22.357,22.357,0,0,0,3.376.03c1.829-.02,2.5-0.97,2.585-2.77,0.209-4.64-3.22-2.96-5.449-3.17-1.672-.15-3.182.37-3.157-2.44,0.024-2.71,1.386-2.52,3.147-2.46,1.576,0.05,3.157-.05,4.731.02,2.309,0.11,2.878-1.18,2.852-3.18-0.025-1.91-.706-2.89-2.806-2.84-3.828.1-7.665,0.14-11.49-.01-2.568-.1-3.4,1.03-3.339,3.42,0.089,3.49.023,6.98,0.023,10.48s0.05,6.98-.018,10.48c-0.045,2.32.691,3.56,3.309,3.45,3.938-.15,7.887-0.11,11.828-0.01,2.157,0.05,3.065-.78,3.077-2.95C372.16,7784.83,371.33,7783.83,369.159,7783.9Zm52.626-21.78c-2.928.09-5.862,0.02-8.794,0.02-3.044,0-6.09.05-9.132-.02-2.112-.04-2.7,1.01-2.682,2.94,0.015,1.86.438,3.12,2.588,3.06a11.887,11.887,0,0,0,1.689-.01c3.1-.54,4.341.4,4.083,3.84-0.354,4.71-.006,9.47-0.121,14.2-0.064,2.67.764,3.85,3.678,3.83,2.807-.02,3.473-1.19,3.393-3.69-0.129-4.05-.034-8.11-0.034-12.17,0-5.62,0-5.7,5.578-5.96,2.218-.11,2.91-1.1,2.91-3.18C424.941,7762.72,423.867,7762.05,421.785,7762.12Zm-72.729-.01c-2.927.1-5.859,0.03-8.789,0.03-3.043,0-6.089.09-9.127-.03-2.267-.09-2.936.94-2.944,3.04-0.009,2.17.879,3.13,3.038,2.98,0.785-.05,1.591.09,2.363-0.03,2.278-.33,3.142.38,3.039,2.87-0.211,5.06.036,10.14-.1,15.21-0.074,2.7.728,3.84,3.643,3.8,2.769-.04,3.506-1.18,3.433-3.69-0.118-4.05-.032-8.11-0.032-12.17,0-5.6,0-5.69,5.53-5.96,2.334-.11,2.752-1.25,2.747-3.25C351.85,7762.88,351.1,7762.05,349.056,7762.11Zm1.335-27.93c3.221,5.1,5.9,10.32,4.818,16.68-0.44,2.57.886,3.22,3.32,3.24,2.588,0.02,3.937-.72,3.537-3.44-0.854-5.79,1.046-10.78,4.235-15.48,1.257-1.85,2.184-3.92,3.3-5.87,0.548-.96.865-1.87-0.189-2.67-1.663-1.26-6.008-.17-7.008,1.82-1.238,2.47-2.373,4.99-3.751,7.9a54.123,54.123,0,0,1-3.118-6.62c-1.053-3.37-3.421-3.77-6.33-3.47-1.937.2-2.682,1.04-1.623,2.91C348.522,7730.85,349.372,7732.57,350.391,7734.18Zm-26.233,27.93c-2.918.14-5.847,0.03-8.771,0.03s-5.852.09-8.771-.03c-2.144-.09-3.009.63-3.033,2.88-0.026,2.34.795,3.36,3.136,3.14,0.781-.07,1.594.1,2.357-0.03,2.5-.44,2.927.72,2.856,2.97-0.168,5.29.027,10.58-.086,15.86-0.06,2.79,1.51,2.99,3.683,3.01,2.214,0.02,3.346-.56,3.268-3.03-0.134-4.27-.037-8.55-0.037-12.82,0-5.61,0-5.7,5.6-5.93,2.243-.09,2.984-1.17,2.959-3.15C327.3,7762.94,326.341,7762,324.158,7762.11Zm-15.993-8.05c4.157-.13,8.321-0.11,12.479-0.01,2.031,0.05,2.793-.67,2.793-2.73,0-2.03-.493-3.29-2.748-3.28-2.023.01-4.057-.12-6.069,0.03-1.924.15-2.478-.52-2.436-2.43,0.12-5.51.025-11.02,0.043-16.53,0.009-2.47-1.436-2.91-3.54-2.88-2.072.03-3.535,0.39-3.485,2.92,0.073,3.71.019,7.42,0.019,11.13,0,3.6.053,7.2-.02,10.8C305.158,7753.19,305.924,7754.13,308.165,7754.06Zm-89.635-18.4a8.787,8.787,0,0,0-.311,17.57,8.885,8.885,0,0,0,8.946-8.65A8.74,8.74,0,0,0,218.53,7735.66Zm-37.274,38.76a8.747,8.747,0,0,0-8.641-8.9,8.844,8.844,0,0,0-8.951,8.65,8.954,8.954,0,0,0,8.7,8.93A8.811,8.811,0,0,0,181.256,7774.42Zm60.537-17.36a8.691,8.691,0,1,0,8.833,8.65A8.653,8.653,0,0,0,241.793,7757.06Zm10.7-19.28a8.79,8.79,0,1,0,.011,17.58,8.714,8.714,0,0,0,8.725-8.82A8.618,8.618,0,0,0,252.494,7737.78Zm-77.822.55a8.862,8.862,0,0,0,8.714-8.89,8.64,8.64,0,0,0-8.814-8.69,8.76,8.76,0,0,0-8.768,8.79A9.031,9.031,0,0,0,174.672,7738.33Zm65.049,0.01a8.776,8.776,0,0,0,8.652-8.53,8.694,8.694,0,1,0-17.375-.66A8.861,8.861,0,0,0,239.721,7738.34Zm-44.7,33.61a8.734,8.734,0,0,0-8.916,8.61,8.552,8.552,0,0,0,8.648,8.77,8.4,8.4,0,0,0,8.835-8.52A8.538,8.538,0,0,0,195.024,7771.95Zm-16.3,13.88a8.534,8.534,0,0,0-8.422,7.21c-0.777,4.58,1.355,8.02,6.088,9.81a3.151,3.151,0,0,0,.124.58h4.738a3.237,3.237,0,0,0,.125-0.58c4.762-1.8,6.884-5.21,6.106-9.8A8.565,8.565,0,0,0,178.728,7785.83Zm255.09-9.59c0-3.83-.085-7.66.03-11.48,0.075-2.47-1.318-2.66-3.233-2.65-1.965.01-3.612,0.03-3.59,2.71q0.09,11.145-.006,22.28c-0.027,2.61,1.441,2.81,3.489,2.84,2.117,0.02,3.457-.31,3.348-2.9C433.705,7783.44,433.818,7779.84,433.818,7776.24ZM166.7,7751.98a5.821,5.821,0,0,0,11.642-.04,5.962,5.962,0,0,0-5.707-5.93A5.828,5.828,0,0,0,166.7,7751.98Zm56.054-22a5.972,5.972,0,0,0,5.76-5.87,6.079,6.079,0,0,0-5.812-5.85A5.861,5.861,0,1,0,222.755,7729.98Zm12.432,23.36a5.814,5.814,0,0,0,6.167-5.72,6,6,0,0,0-5.824-5.78A5.753,5.753,0,0,0,235.187,7753.34Zm-75.466-7.44a5.755,5.755,0,1,0,.114-11.51A5.757,5.757,0,1,0,159.721,7745.9Zm292.236,15.68c-8.4.01-14.635,6.19-14.536,14.4A14.556,14.556,0,1,0,451.957,7761.58Zm0.059,22.33c-4.31.03-7.57-3.56-7.47-8.21,0.1-4.37,3.192-7.56,7.35-7.58,4.347-.02,7.431,3.23,7.412,7.81C459.288,7780.54,456.232,7783.89,452.016,7783.91Zm-153.4-18.38c-0.81-2.53-1.985-3.98-4.471-3.39-1.974.05-3.836-.44-4.588,1.75q-3.989,11.61-7.958,23.23c-0.343,1.01-.341,2.01.826,2.6a4.592,4.592,0,0,0,6.359-2.82c0.322-1.02.174-2.56,1.568-2.67a26.376,26.376,0,0,1,7.05.14c1.584,0.31,1.12,2.45,1.711,3.71,1.323,2.81,3.92,2.06,5.895,1.57,2-.51.954-2.43,0.517-3.73C303.244,7779.12,300.81,7772.36,298.618,7765.53Zm-3.368,12.95c-4.1.15-4.173,0.13-2.918-3.81,0.5-1.57.469-3.36,1.658-4.72,0.748,2.76,1.483,5.46,2.234,8.23A4.174,4.174,0,0,1,295.25,7778.48Zm36.243-26.7c0.555-3.14,2.194-4.15,4.616-3.51,4.371,0,4.467-.04,6.045,3.87,1.259,3.12,3.878,1.98,5.78,1.68,2.131-.33,1.085-2.24.637-3.57-2.366-7.02-4.835-14-7.078-21.06-0.771-2.42-2.183-3.01-4.513-2.98-2.353.03-4.017,0.33-4.848,3.01-2.167,6.96-4.614,13.83-6.935,20.74-0.471,1.41-1.677,3.05.525,3.99C328.019,7754.93,331.13,7753.83,331.493,7751.78Zm5.289-18.18c0.947,3.35,1.693,6,2.5,8.87h-4.94C335.114,7739.67,335.84,7737.03,336.782,7733.6Zm-51.39,20.48c2.321-.01,3.531-0.5,3.528-3.17-0.006-4.97.125-4.97,5.1-5.35,5.188-.4,8.433-4.02,8.5-9.47,0.066-5.64-3.175-9.45-8.506-9.76-3.03-.17-6.08.01-9.118-0.08-2.186-.06-3,0.89-2.935,3.05,0.111,3.6.03,7.21,0.03,10.81s0.136,7.21-.045,10.81C281.806,7753.61,283.049,7754.09,285.392,7754.08Zm5.852-21.7c2.554-.32,4.167.75,4.242,3.39,0.08,2.79-1.619,3.76-4.264,3.99-3.136.27-2.493-1.86-2.292-3.41C289.128,7734.82,287.331,7731.84,291.244,7732.38Z" transform="translate(-146.75 -7712.06)"/>
</svg>
