<svg xmlns="http://www.w3.org/2000/svg" width="147.5" height="130.5" viewBox="0 0 147.5 130.5">
  <metadata><?xpacket begin="﻿" id="W5M0MpCehiHzreSzNTczkc9d"?>
<x:xmpmeta xmlns:x="adobe:ns:meta/" x:xmptk="Adobe XMP Core 5.6-c138 79.159824, 2016/09/14-01:09:01        ">
   <rdf:RDF xmlns:rdf="http://www.w3.org/1999/02/22-rdf-syntax-ns#">
      <rdf:Description rdf:about=""/>
   </rdf:RDF>
</x:xmpmeta>
                                                                                                    
                                                                                                    
                                                                                                    
                                                                                                    
                                                                                                    
                                                                                                    
                                                                                                    
                                                                                                    
                                                                                                    
                                                                                                    
                                                                                                    
                                                                                                    
                                                                                                    
                                                                                                    
                                                                                                    
                                                                                                    
                                                                                                    
                                                                                                    
                                                                                                    
                                                                                                    
                           
<?xpacket end="w"?></metadata>
<defs>
    <style>
      .cls-1 {
        fill: none;
        stroke: #c9c9c9;
        stroke-width: 3px;
        stroke-dasharray: 12 6;
      }

      .cls-1, .cls-2 {
        fill-rule: evenodd;
      }

      .cls-2 {
        fill: #c9c9c9;
      }
    </style>
  </defs>
  <path class="cls-1" d="M409,737H545V848" transform="translate(-407.5 -735.5)"/>
  <path id="Rectangle_19_copy_8" data-name="Rectangle 19 copy 8" class="cls-2" d="M541.812,859.5h3.376v3.25h-3.376V859.5Zm3.376,0h3.406v3.25h-3.406V859.5Zm-3.376,3.25h3.376V866h-3.376v-3.25Zm0-6.5h3.376v3.25h-3.376v-3.25Zm-3.406,0h3.406v3.25h-3.406v-3.25Zm0,3.25h3.406v3.25h-3.406V859.5ZM535,856.25h3.406v3.25H535v-3.25Zm0-3.25h3.406v3.25H535V853Zm3.406,0h3.406v3.25h-3.406V853Zm3.406,0h3.376v3.25h-3.376V853Zm3.376,0h3.406v3.25h-3.406V853Zm3.406,0H552v3.25h-3.406V853Zm3,0H555v3.25h-3.406V853Zm-20,0H535v3.25h-3.406V853Zm13.594,3.25h3.406v3.25h-3.406v-3.25Zm3.406,0H552v3.25h-3.406v-3.25Z" transform="translate(-407.5 -735.5)"/>
</svg>
