<?xml version="1.0" encoding="utf-8"?>
<!-- Generator: Adobe Illustrator 21.1.0, SVG Export Plug-In . SVG Version: 6.00 Build 0)  -->
<svg version="1.1" id="Слой_1" xmlns:svg="http://www.w3.org/2000/svg"
	 xmlns="http://www.w3.org/2000/svg" xmlns:xlink="http://www.w3.org/1999/xlink" x="0px" y="0px" viewBox="0 0 300 100"
	 style="enable-background:new 0 0 300 100;" xml:space="preserve">
<style type="text/css">
	.st0{fill:#FFFFFF;}
</style>
<g transform="matrix(1.25,0,0,-1.25,-178.10254,834.02091)">
	<g transform="matrix(0.73419876,0,0,0.73419876,47.261577,130.80475)">
		<path class="st0" d="M388.3,666.6c-3.6,0.2-5.7,4.5-5.5,8.9c0.4,7.8,6.9,15.6,6.9,15.6c1.5-1.4,6.1-8.9,5.8-14.6
			C395.4,670.9,391.9,666.4,388.3,666.6L388.3,666.6z M392.6,693.7c1.6,1.8,2.6,2.9,2.4,4.2c-0.2,1.3-4.5,2.1-6.4,0.4
			c-5.6,4.5-4.5-0.8-3.7-1.9c-6.7-4.7-11.2-17-7.5-26.6c3.5-9.4,14.2-10.6,19.9-4C402.2,671.6,401.3,682.3,392.6,693.7 M204.4,635.3
			l1.8,2.2 M204.4,635.3l1.8,2.2 M204.4,635.3l1.8,2.2 M204.4,635.3l1.8,2.2c1.3-1,2.6-1.7,4.2-1.7c1.3,0,2,0.5,2,1.3v0
			c0,0.8-0.5,1.2-2.8,1.8c-2.8,0.7-4.7,1.5-4.7,4.3v0c0,2.6,2.1,4.3,4.9,4.3c2.1,0,3.8-0.6,5.2-1.8l-1.6-2.3
			c-1.3,0.9-2.5,1.4-3.7,1.4c-1.2,0-1.8-0.5-1.8-1.2v0c0-0.9,0.6-1.2,3-1.9c2.9-0.7,4.5-1.8,4.5-4.2v0c0-2.8-2.1-4.4-5.2-4.4
			C208.2,633.1,206.1,633.8,204.4,635.3 M230.4,640.3L230.4,640.3c0,2.5-1.8,4.5-4.3,4.5c-2.5,0-4.2-2-4.2-4.4v0
			c0-2.4,1.8-4.4,4.3-4.4C228.6,635.9,230.4,637.9,230.4,640.3z M218.6,640.3L218.6,640.3c0,4.1,3.2,7.4,7.5,7.4s7.5-3.3,7.5-7.3v0
			c0-4-3.2-7.3-7.5-7.3C221.7,633,218.6,636.3,218.6,640.3 M237.2,647.4h2.9l6.6-8.7v8.7h3.1v-14.1h-2.6l-6.8,9v-9h-3.1V647.4z
			 M253.7,640.3L253.7,640.3c0,4.1,3.1,7.4,7.4,7.4c2.5,0,4.1-0.7,5.6-1.9l-2-2.4c-1.1,0.9-2.1,1.4-3.7,1.4c-2.3,0-4.1-2-4.1-4.4v0
			c0-2.6,1.8-4.5,4.3-4.5c1.1,0,2.1,0.3,2.9,0.8v2h-3.1v2.7h6.1v-6.1c-1.5-1.2-3.5-2.2-6-2.2C256.8,633,253.7,636.1,253.7,640.3
			 M278,640.3L278,640.3c0,4.1,3,7.4,7.4,7.4c2.7,0,4.3-0.9,5.6-2.2l-2-2.3c-1.1,1-2.2,1.6-3.6,1.6c-2.4,0-4.1-2-4.1-4.4v0
			c0-2.4,1.7-4.4,4.1-4.4c1.6,0,2.6,0.6,3.7,1.7l2-2c-1.5-1.6-3.1-2.5-5.8-2.5C281.1,633,278,636.2,278,640.3 M305.5,640.3
			L305.5,640.3c0,2.5-1.8,4.5-4.3,4.5c-2.5,0-4.2-2-4.2-4.4v0c0-2.4,1.8-4.4,4.3-4.4S305.5,637.9,305.5,640.3z M293.8,640.3
			L293.8,640.3c0,4.1,3.2,7.4,7.5,7.4c4.4,0,7.5-3.3,7.5-7.3v0c0-4-3.2-7.3-7.5-7.3S293.8,636.3,293.8,640.3 M312.4,647.4h2.9
			l6.6-8.7v8.7h3.1v-14.1h-2.6l-6.8,9v-9h-3.1V647.4z M332.5,644.5h-4.3v2.9h11.7v-2.9h-4.3v-11.3h-3.1L332.5,644.5L332.5,644.5z
			 M343.5,647.4h10.7v-2.8h-7.6v-2.9h6.7V639h-6.7v-3h7.7v-2.8h-10.8V647.4L343.5,647.4z M357.3,635.3l1.8,2.2
			c1.3-1,2.6-1.7,4.2-1.7c1.3,0,2,0.5,2,1.3v0c0,0.8-0.5,1.2-2.8,1.8c-2.8,0.7-4.7,1.5-4.7,4.3v0c0,2.6,2.1,4.3,4.9,4.3
			c2.1,0,3.8-0.6,5.2-1.8l-1.6-2.3c-1.3,0.9-2.5,1.4-3.7,1.4c-1.2,0-1.8-0.5-1.8-1.2v0c0-0.9,0.6-1.2,3-1.9c2.9-0.7,4.5-1.8,4.5-4.2
			v0c0-2.8-2.1-4.4-5.2-4.4C361.1,633.1,359,633.8,357.3,635.3 M375.4,644.5h-4.3v2.9h11.7v-2.9h-4.3v-11.3h-3.1V644.5z
			 M183.7,712.4c-12.6,0.9-26.5-9.5-25.9-23c0.1-1.3,1.1-2.5,2.7-2.5c1.9,0,7.6,0.2,7.6,0.2s-11.2-8.9-11.2-19.2
			c0-5.5,4.1-12,12.7-12c12,0,21,9.8,21,18.2c0,0.6-0.7,1.5-1.9,0.1c-1.9-2.3-11.8-12.5-21.7-12.5c-3.3,0-6.2,1.9-6.2,5.8
			c0,5.2,8.2,15.3,22.3,19.2c3.5,1,3.7,5.8-0.6,6c-4.3,0.2-19.2-1.4-20.3-1.4c-1.1,0-1.2,0.2-0.8,1.2c0.5,1.3,6,10.9,22.4,12.7
			C189.3,705.7,188.7,712.1,183.7,712.4 M201.5,696.7c0,3.3-4.8,5.3-6.7,0.6c-3.5-8.9-4.6-35.8,7.2-35.8c5.2,0,11.7,11.3,11.7,22.3
			c0,9.1-3.7,15-4.5,16.1c-0.8,1.1-1.9,0.5-1.7-1.5c0.1-2,0.7-20.6-5.1-27.3c-2.3-2.5-4,0.1-4.2,2.6
			C197.5,681,201.5,691.9,201.5,696.7 M255.2,667.8c-3.3,0-5.1,4.3-5.1,8.9c0,8.2,5.9,15.6,5.9,15.6c1.6-2.1,5.5-7.9,5.5-13.7
			C261.4,672.6,258.5,667.8,255.2,667.8L255.2,667.8z M257.8,694.8c0,0,1.9,2.5,0.7,4c-1.3,1.6-5.3,2.1-9.1-2.1
			c-5-5.6-8.5-17.4-4.7-27.2c3.6-9.4,13.7-10.2,18.4-3.1C267.4,672.7,266.3,683.3,257.8,694.8 M224.7,685.1c0.3,3.7,0.6,7.5,0.6,7.5
			s8.2,2.1,11,1.8c2.4-0.3,3-1.3,1.7-3.2C235.1,686.7,228.3,685.1,224.7,685.1L224.7,685.1z M242.3,660.8
			c-3.5,4.9-7.9,14.6-14.7,20.5c6.8,0.4,15.4,5.8,15.4,11.5c0,4.2-4.4,7.3-10.1,7.3c-5.7,0-12-1.9-14.3-3.4c-3.1-1.8-0.8-6,2.1-4.9
			c0,0-1.1-5-1.4-7.7c-2.3,0.3-2.8-0.1-2.7-0.6c0.1-0.5,1.2-0.9,2.3-2.4c-0.4-3.2-1-17.3-0.9-18.5c0.1-1.2,0.9-1.4,1.9-0.1
			c0.9,1.2,2.9,3.9,3.9,14.5c1.1-0.9,4-4.9,7.6-9.5c5.3-6.8,7-7.3,9.2-8C242,658.9,243.2,659.6,242.3,660.8 M329.8,699.1
			c0.2-7.3-6.2-19-6.7-27.5c-0.3-6.2,0.8-8.7,1.3-9.5c0.6-0.9,1.8-0.9,2.1,0.6c1,4.6,7.6,16.9,8.4,26.7c0.5,6-1.3,9.7-3.5,10.4
			C330.6,700.2,329.8,700.1,329.8,699.1 M353.9,700c-9,0-15.5-3.2-15.5-10.4c0-4.5,3.3-7.5,8.6-8.4c3.1-0.6,6.1-0.8,7.2-1.2
			c2-0.7-2.7-3-10.1-8c-5-3.4-8.7-7-10.6-10.8c-0.7-1.3,0.2-2.6,1.7-1.6c2.8,1.9,8.8,5.1,14.6,8.3c5.6,3.1,10.8,6.4,10.8,10.6
			c0,3.8-2.8,5.2-5,5.5c-3.8,0.4-12,0.1-12,4.8c0,1.8,2.4,4.1,9.9,4.1C359.2,692.9,358.6,700,353.9,700 M365.2,698.7
			c2.9-5.7-2.1-21-2.1-26.9s0.7-7.9,2.2-9.8c0.8-1,1.8-0.4,1.9,0.7c0.5,5.2,6,19.1,6.4,25.6c0.5,8.3-3.6,11.5-6,11.7
			C366.3,700.1,364.5,699.9,365.2,698.7 M367.2,706.7c-0.1-5.4,8.8-6.3,8.8,0.3c0,5.7-4.8,10.5-5.8,11.3c-1.5,1.2-3.6,1-3.1-1
			C368.3,713.2,367.3,708.6,367.2,706.7 M428.9,662.1c-1.2,7.2,0.4,16.6,0.4,25.3c0,6.7-5.6,10.1-8.9,10.1c-4.3,0-6.8-1.9-6.8-1.9
			c0,1.3,0.3,3.2,0.2,3.9c0,0.7-0.9,0.7-2.1,0c-6.8-4.2-7.7-16.3-7.7-24.6c0-8.4,1.3-11.3,1.5-12.4c0.1-1.1,1.5-1.2,2-0.3
			c3.6,7,4,19.7,5.2,26.8c1.7,2.3,8.6,2.7,8.9-2.8c0.3-5.6-0.3-19.8,5.5-24.8C427.9,660.7,429.1,661,428.9,662.1 M272.9,691.4
			c0.1,13.5,7.2,17.7,11,17.7c5.3,0,7.5-4.1,7.9-5.9c0.4-1.8,2.4-3.2,3-0.3c0.6,3,6.9,12,14.6,12c7.1,0,9.5-7.3,9.3-13.5
			c-0.6-16.9-22.3-30.3-25.1-38.8C291,667.8,272.7,675.2,272.9,691.4L272.9,691.4z M311.9,719.1c-6.3,0-13.8-4.7-18.4-12.5
			c-1.2,2.8-5.6,5.9-10.8,5.9c-4.2,0-15.9-5.2-15.9-22.1c0-21.8,22-26.2,26.5-33c0.3-0.5,1.3-0.8,1.7,0.3
			c3.5,10.5,31.1,22.3,31.1,43.6C326.1,713.3,318.3,719.1,311.9,719.1"/>
	</g>
</g>
</svg>
