<?xml version="1.0" encoding="utf-8"?>
<!-- Generator: Adobe Illustrator 21.1.0, SVG Export Plug-In . SVG Version: 6.00 Build 0)  -->
<svg version="1.1" id="Layer_1" xmlns="http://www.w3.org/2000/svg" xmlns:xlink="http://www.w3.org/1999/xlink" x="0px" y="0px"
	 viewBox="0 0 687.9 276" style="enable-background:new 0 0 687.9 276;" xml:space="preserve">
<style type="text/css">
	.st0{fill:#FFFFFF;}
</style>
<g>
	<path class="st0" d="M682.4,210.5h-35.8l5.5-23.7h-71.6l-5.5,23.7h-34.6v-4.9l0,0l1.2-8.5l0,0l3-9.7l3.6-9.1l5.5-8.5l2.4-4.2l3-3.6
		l3.6-3l3.6-3l3.6-3l4.2-2.4l4.2-1.8l4.9-1.2l4.9-0.6l5.5-0.6l0,0l4.2,0.6l4.2,0.6l3.6,1.2l3.6,1.8l2.4,3l1.8,3l1.2,4.9v5.5h42.5
		l0,0l1.8-6.7v-3.6v-4.2V148l-1.2-4.2l-1.2-4.2l-2.4-4.2l0,0l-4.2-4.9l-4.2-3.6l-5.5-3l-6.1-2.4l-7.3-1.8l-7.3-1.2l-7.9-0.6H603l0,0
		l-14,0.6l-7.3,0.6l-8.5,1.8l-7.9,1.8l-8.5,3l-8.5,3.6l-7.9,4.9V5.5h141.9L682.4,210.5L682.4,210.5z M598.7,245.1L598.7,245.1
		l-12.1,1.8l-12.1,0.6l0,0l-7.3-0.6l-6.7-1.2l-6.1-2.4l-4.9-3.6l-2.4-1.8l-1.8-2.4l-1.8-2.4l-1.2-3l-1.2-3l-0.6-3.6l-0.6-7.3H606
		L598.7,245.1L598.7,245.1z M516.8,128v29.1l0,0l-6.7,10.3l-5.5,10.9l-4.2,10.3l-2.4,9.1l0,0l-1.8,6.7l-0.6,6.1h-21.2l18.2-84.9
		h-60.1l-54,84.9h-3.6V5.5h141.9V128L516.8,128z M437.4,210.5h-21.2l32.1-51L437.4,210.5L437.4,210.5z M351.2,125.6H316l-24.3,84.9
		h-38.2l0,0l7.3-3l6.1-3.6l5.5-4.2l4.9-4.9l3.6-5.5l3-6.1l2.4-6.7l1.8-6.7l0,0l1.8-10.9v-4.9l-0.6-4.2l-0.6-4.2l-1.2-3l-1.8-3.6
		l-2.4-3l0,0l-3.6-3.6l-4.9-3l-5.5-1.8l-6.1-1.2l-6.1-0.6h-6.7h-12.7l0,0h-27.9V5.5h141.3L351.2,125.6L351.2,125.6z M328.8,210.5
		l14.6-53.4l0.6,53.4H328.8L328.8,210.5z M225.7,189.9L225.7,189.9L225.7,189.9l-4.9,0.6l0,0h-4.9h-9.1l4.2-15.8l1.8-7.9l4.9-17.6
		l0,0h6.1l0,0h7.3l0,0h7.9l6.7,0.6l4.9,1.2l1.2,1.2l1.2,1.2l0,0l1.2,2.4l0.6,3.6l-0.6,4.2l-1.8,5.5l0,0l-1.2,4.2l-2.4,4.2l-1.8,3.6
		l-3,2.4l-3,2.4l-4.2,1.8l-5.5,1.2L225.7,189.9L225.7,189.9z M186.2,132.8l-2.4,7.3l-20.6,67.9l-0.6,2.4H95.8l-5.5-10.9l72.2-74
		h-46.1l-56.4,60.7l18.2-60.7h-34V5.5h141.9L186.2,132.8L186.2,132.8z M535,0v137.7l0,0l-6.7,6.1l-6.1,6.1V0H369.4v125.6h-12.7V0
		H204.4v125.6h-12.7V0H38.8v143.2L0,273h34l17.6-57h4.9l28.5,57h41.2l-27.9-57h63.1l-17.6,57h37.6l17-57h7.9l0,0h12.1h0.6h71
		l-16.4,57h37.6l15.8-57h17l0.6,57h31.5l36.4-57h23.7L424,273h37l12.1-57H495l0,0v6.1v6.7l1.2,6.1l1.8,6.1l1.8,5.5l3,4.9l3.6,4.9
		l3.6,4.2l0,0l6.1,4.9l6.1,3.6l6.7,2.4l7.3,2.4l6.7,1.2l7.3,0.6l13.3,0.6l0,0l16.4-0.6l17.6-1.2l17-3l17.6-3.6l13.3-51.6h42.5V0H535
		L535,0z"/>
</g>
</svg>
