<?xml version="1.0" encoding="utf-8"?>
<svg xmlns="http://www.w3.org/2000/svg"
	xmlns:xlink="http://www.w3.org/1999/xlink"
	width="119px" height="135px" viewBox="0 0 119 135">
<path fillRule="evenodd" d="M 0.5 3.75C 0.5 3.75 0.5 0.75 0.5 0.75 0.5 0.75 12.5 0.75 12.5 0.75 12.5 0.75 12.5 3.75 12.5 3.75 12.5 3.75 0.5 3.75 0.5 3.75M 18.5 3.75C 18.5 3.75 18.5 0.75 18.5 0.75 18.5 0.75 30.5 0.75 30.5 0.75 30.5 0.75 30.5 3.75 30.5 3.75 30.5 3.75 18.5 3.75 18.5 3.75M 36.5 3.75C 36.5 3.75 36.5 0.75 36.5 0.75 36.5 0.75 48.5 0.75 48.5 0.75 48.5 0.75 48.5 3.75 48.5 3.75 48.5 3.75 36.5 3.75 36.5 3.75M 54.5 3.75C 54.5 3.75 54.5 0.75 54.5 0.75 54.5 0.75 66.5 0.75 66.5 0.75 66.5 0.75 66.5 3.75 66.5 3.75 66.5 3.75 54.5 3.75 54.5 3.75M 72.5 3.75C 72.5 3.75 72.5 0.75 72.5 0.75 72.5 0.75 84.5 0.75 84.5 0.75 84.5 0.75 84.5 3.75 84.5 3.75 84.5 3.75 72.5 3.75 72.5 3.75M 90.5 3.75C 90.5 3.75 90.5 0.75 90.5 0.75 90.5 0.75 101.5 0.75 101.5 0.75 101.5 0.75 101.5 3.75 101.5 3.75 101.5 3.75 90.5 3.75 90.5 3.75M 98.5 0.75C 98.5 0.75 101.5 0.75 101.5 0.75 101.5 0.75 101.5 1.75 101.5 1.75 101.5 1.75 98.5 1.75 98.5 1.75 98.5 1.75 98.5 0.75 98.5 0.75M 98.5 7.75C 98.5 7.75 101.5 7.75 101.5 7.75 101.5 7.75 101.5 19.75 101.5 19.75 101.5 19.75 98.5 19.75 98.5 19.75 98.5 19.75 98.5 7.75 98.5 7.75M 98.5 25.75C 98.5 25.75 101.5 25.75 101.5 25.75 101.5 25.75 101.5 37.75 101.5 37.75 101.5 37.75 98.5 37.75 98.5 37.75 98.5 37.75 98.5 25.75 98.5 25.75M 98.5 43.75C 98.5 43.75 101.5 43.75 101.5 43.75 101.5 43.75 101.5 55.75 101.5 55.75 101.5 55.75 98.5 55.75 98.5 55.75 98.5 55.75 98.5 43.75 98.5 43.75M 98.5 61.75C 98.5 61.75 101.5 61.75 101.5 61.75 101.5 61.75 101.5 73.75 101.5 73.75 101.5 73.75 98.5 73.75 98.5 73.75 98.5 73.75 98.5 61.75 98.5 61.75M 98.5 79.75C 98.5 79.75 101.5 79.75 101.5 79.75 101.5 79.75 101.5 91.75 101.5 91.75 101.5 91.75 98.5 91.75 98.5 91.75 98.5 91.75 98.5 79.75 98.5 79.75M 98.5 97.75C 98.5 97.75 101.5 97.75 101.5 97.75 101.5 97.75 101.5 107.25 101.5 107.25 101.5 107.25 98.5 107.25 98.5 107.25 98.5 107.25 98.5 97.75 98.5 97.75M 101.5 3.75C 101.5 3.75 101.5 0.75 101.5 0.75 101.5 0.75 101.5 0.75 101.5 0.75 101.5 0.75 101.5 3.75 101.5 3.75 101.5 3.75 101.5 3.75 101.5 3.75ZM 101.5 0.75C 101.5 0.75 98.5 0.75 98.5 0.75 98.5 0.75 101.5 0.75 101.5 0.75 101.5 0.75 101.5 0.75 101.5 0.75 101.5 0.75 101.5 0.75 101.5 0.75Z" fill="rgb(201,201,201)"/><path fillRule="evenodd" d="M 114 119.63C 114 119.63 114 124.5 114 124.5 114 124.5 108.91 124.5 108.91 124.5 108.91 124.5 108.91 129.38 108.91 129.38 108.91 129.38 103.78 129.38 103.78 129.38 103.78 129.38 103.78 134.25 103.78 134.25 103.78 134.25 98.72 134.25 98.72 134.25 98.72 134.25 98.72 129.38 98.72 129.38 98.72 129.38 93.63 129.38 93.63 129.38 93.63 129.38 93.63 124.5 93.63 124.5 93.63 124.5 88.5 124.5 88.5 124.5 88.5 124.5 88.5 119.63 88.5 119.63 88.5 119.63 83.41 119.63 83.41 119.63 83.41 119.63 83.41 114.75 83.41 114.75 83.41 114.75 88.5 114.75 88.5 114.75 88.5 114.75 93.63 114.75 93.63 114.75 93.63 114.75 98.72 114.75 98.72 114.75 98.72 114.75 103.78 114.75 103.78 114.75 103.78 114.75 108.91 114.75 108.91 114.75 108.91 114.75 113.41 114.75 113.41 114.75 113.41 114.75 114 114.75 114 114.75 114 114.75 118.5 114.75 118.5 114.75 118.5 114.75 118.5 119.63 118.5 119.63 118.5 119.63 114 119.63 114 119.63Z" fill="rgb(201,201,201)"/></svg>