<?xml version="1.0" encoding="utf-8"?>
<svg xmlns="http://www.w3.org/2000/svg"
	xmlns:xlink="http://www.w3.org/1999/xlink"
	width="183px" height="237px" viewBox="0 0 183 237">
<path fillRule="evenodd" d="M 17.1 208.24C 17.1 208.24 14.1 208.29 14.1 208.29 14.09 207.86 14.1 203.39 14.13 196.33 14.13 196.33 17.13 196.34 17.13 196.34 17.1 205.7 17.09 207.97 17.1 208.24M 17.15 190.34C 17.15 190.34 14.15 190.33 14.15 190.33 14.16 186.71 14.17 182.67 14.19 178.33 14.19 178.33 17.19 178.34 17.19 178.34 17.19 178.34 17.15 190.34 17.15 190.34M 17.21 172.34C 17.21 172.34 14.21 172.33 14.21 172.33 14.22 168.48 14.24 164.46 14.26 160.33 14.26 160.33 17.26 160.34 17.26 160.34 17.26 160.34 17.21 172.34 17.21 172.34M 17.28 154.34C 17.28 154.34 14.28 154.33 14.28 154.33 14.29 150.37 14.31 146.35 14.32 142.33 14.32 142.33 17.32 142.34 17.32 142.34 17.32 142.34 17.28 154.34 17.28 154.34M 17.35 136.34C 17.35 136.34 14.35 136.33 14.35 136.33 14.36 132.28 14.38 128.26 14.4 124.33 14.4 124.33 17.4 124.34 17.4 124.34 17.4 124.34 17.35 136.34 17.35 136.34M 17.42 118.34C 17.42 118.34 14.42 118.33 14.42 118.33 14.43 116.55 14.43 114.8 14.44 113.08 14.45 110.76 14.46 108.51 14.47 106.33 14.47 106.33 17.47 106.34 17.47 106.34 17.47 106.34 17.44 113.09 17.44 113.09 17.44 113.09 17.42 118.34 17.42 118.34M 17.49 100.34C 17.49 100.34 14.49 100.33 14.49 100.33 14.51 95.83 14.52 91.77 14.54 88.32 14.54 88.32 17.54 88.33 17.54 88.33 17.54 88.33 17.49 100.34 17.49 100.34M 17.56 82.34C 17.56 82.34 14.56 82.33 14.56 82.33 14.57 78.9 14.58 76.77 14.58 76.33 14.58 76.33 17.58 76.33 17.58 76.33 17.58 76.77 17.57 78.9 17.56 82.34M 14.63 79.33C 14.63 79.33 14.6 76.33 14.6 76.33 14.8 76.33 16.94 76.32 20.58 76.32 20.58 76.32 20.58 79.32 20.58 79.32 16.96 79.32 14.83 79.33 14.63 79.33M 26.58 79.32C 26.58 79.32 26.57 76.32 26.57 76.32 30 76.32 34.04 76.32 38.58 76.32 38.58 76.32 38.58 79.32 38.58 79.32 38.58 79.32 26.58 79.32 26.58 79.32M 44.58 79.32C 44.58 79.32 44.58 76.32 44.58 76.32 48.35 76.32 52.37 76.32 56.57 76.32 56.57 76.32 56.57 79.32 56.57 79.32 56.57 79.32 44.58 79.32 44.58 79.32M 62.58 79.32C 62.58 79.32 62.58 76.32 62.58 76.32 66.47 76.32 70.48 76.32 74.58 76.32 74.58 76.32 74.58 79.32 74.58 79.32 74.58 79.32 62.58 79.32 62.58 79.32M 80.58 79.32C 80.58 79.32 80.58 76.32 80.58 76.32 84.54 76.32 88.55 76.32 92.58 76.32 92.58 76.32 92.58 79.32 92.58 79.32 92.58 79.32 80.58 79.32 80.58 79.32M 98.58 79.32C 98.58 79.32 98.58 76.32 98.58 76.32 102.6 76.32 106.61 76.32 110.58 76.32 110.58 76.32 110.58 79.32 110.58 79.32 110.58 79.32 98.58 79.32 98.58 79.32M 116.58 79.32C 116.58 79.32 116.58 76.32 116.58 76.32 120.66 76.32 124.68 76.32 128.58 76.32 128.58 76.32 128.58 79.32 128.58 79.32 128.58 79.32 116.58 79.32 116.58 79.32M 134.58 79.32C 134.58 79.32 134.58 76.32 134.58 76.32 138.77 76.32 142.79 76.32 146.58 76.33 146.58 76.33 146.58 79.33 146.58 79.33 146.58 79.33 134.58 79.32 134.58 79.32M 152.58 79.33C 152.58 79.33 152.59 76.33 152.59 76.33 157.04 76.33 161.08 76.33 164.59 76.33 164.59 76.33 164.59 79.33 164.59 79.33 164.59 79.33 152.58 79.33 152.58 79.33M 170.59 79.33C 170.59 79.33 170.59 76.33 170.59 76.33 175.98 76.33 179.1 76.33 179.1 76.33 179.1 76.33 179.1 72.85 179.1 72.85 179.1 72.85 182.1 72.85 182.1 72.85 182.1 72.85 182.1 76.33 182.1 76.33 182.1 76.33 182.1 79.33 182.1 79.33 182.1 79.33 179.1 79.33 179.1 79.33 179.1 79.33 170.59 79.33 170.59 79.33M 182.1 66.85C 182.1 66.85 179.1 66.85 179.1 66.85 179.1 66.85 179.1 54.85 179.1 54.85 179.1 54.85 182.1 54.85 182.1 54.85 182.1 54.85 182.1 66.85 182.1 66.85M 182.1 48.85C 182.1 48.85 179.1 48.85 179.1 48.85 179.1 48.85 179.1 36.85 179.1 36.85 179.1 36.85 182.1 36.85 182.1 36.85 182.1 36.85 182.1 48.85 182.1 48.85M 182.1 30.85C 182.1 30.85 179.1 30.85 179.1 30.85 179.1 30.85 179.1 18.85 179.1 18.85 179.1 18.85 182.1 18.85 182.1 18.85 182.1 18.85 182.1 30.85 182.1 30.85M 182.1 12.85C 182.1 12.85 179.1 12.85 179.1 12.85 179.1 12.85 179.1 0.85 179.1 0.85 179.1 0.85 182.1 0.85 182.1 0.85 182.1 0.85 182.1 12.85 182.1 12.85M 14.1 208.33C 14.1 208.33 14.1 205.33 14.1 205.33 14.1 205.33 14.1 208.33 14.1 208.33 14.1 208.33 17.1 208.24 17.1 208.24 17.1 208.24 14.1 208.33 14.1 208.33 14.1 208.33 14.1 208.33 14.1 208.33ZM 14.63 79.33C 14.63 79.33 14.58 76.33 14.58 76.33 14.58 76.33 14.58 76.33 14.58 76.33 14.58 76.33 14.63 79.33 14.63 79.33 14.63 79.33 14.63 79.33 14.63 79.33ZM 17.58 76.33C 17.58 76.33 14.58 76.33 14.58 76.33 14.58 76.33 14.58 76.33 14.58 76.33 14.58 76.33 17.58 76.33 17.58 76.33 17.58 76.33 17.58 76.33 17.58 76.33Z" fill="rgb(201,201,201)"/><path fillRule="evenodd" d="M 30.59 222.22C 30.59 222.22 30.59 227.06 30.59 227.06 30.59 227.06 25.5 227.06 25.5 227.06 25.5 227.06 25.5 231.94 25.5 231.94 25.5 231.94 20.37 231.94 20.37 231.94 20.37 231.94 20.37 236.84 20.37 236.84 20.37 236.84 15.31 236.84 15.31 236.84 15.31 236.84 15.31 231.94 15.31 231.94 15.31 231.94 10.22 231.94 10.22 231.94 10.22 231.94 10.22 227.06 10.22 227.06 10.22 227.06 5.09 227.06 5.09 227.06 5.09 227.06 5.09 222.22 5.09 222.22 5.09 222.22-0 222.22-0 222.22-0 222.22-0 217.34-0 217.34-0 217.34 5.09 217.34 5.09 217.34 5.09 217.34 10.22 217.34 10.22 217.34 10.22 217.34 15.31 217.34 15.31 217.34 15.31 217.34 20.37 217.34 20.37 217.34 20.37 217.34 25.5 217.34 25.5 217.34 25.5 217.34 30 217.34 30 217.34 30 217.34 30.59 217.34 30.59 217.34 30.59 217.34 35.09 217.34 35.09 217.34 35.09 217.34 35.09 222.22 35.09 222.22 35.09 222.22 30.59 222.22 30.59 222.22Z" fill="rgb(201,201,201)"/></svg>