<svg xmlns="http://www.w3.org/2000/svg" width="20" height="23.03" viewBox="0 0 20 23.03">
  <metadata><?xpacket begin="﻿" id="W5M0MpCehiHzreSzNTczkc9d"?>
<x:xmpmeta xmlns:x="adobe:ns:meta/" x:xmptk="Adobe XMP Core 5.6-c138 79.159824, 2016/09/14-01:09:01        ">
   <rdf:RDF xmlns:rdf="http://www.w3.org/1999/02/22-rdf-syntax-ns#">
      <rdf:Description rdf:about=""/>
   </rdf:RDF>
</x:xmpmeta>
                                                                                                    
                                                                                                    
                                                                                                    
                                                                                                    
                                                                                                    
                                                                                                    
                                                                                                    
                                                                                                    
                                                                                                    
                                                                                                    
                                                                                                    
                                                                                                    
                                                                                                    
                                                                                                    
                                                                                                    
                                                                                                    
                                                                                                    
                                                                                                    
                                                                                                    
                                                                                                    
                           
<?xpacket end="w"?></metadata>
<defs>
    <style>
      .cls-1 {
        fill: #fff;
        fill-rule: evenodd;
      }
    </style>
  </defs>
  <path id="icon_bitbucket" class="cls-1" d="M1280.94,4483.6h0c-5.5,0-10.01,1.47-10.01,3.33,0,0.49,1.18,7.44,1.67,10.19,0.19,1.27,3.43,3.03,8.34,3.03h0c4.9,0,8.04-1.76,8.34-3.03,0.49-2.75,1.66-9.7,1.66-10.19-0.09-1.86-4.51-3.33-10-3.33h0Zm0,14.3a3.135,3.135,0,1,1,3.14-3.13,3.163,3.163,0,0,1-3.14,3.13h0Zm0-9.99c-3.54,0-6.38-.59-6.38-1.37s2.84-1.37,6.38-1.37,6.37,0.58,6.37,1.37-2.84,1.37-6.37,1.37h0Zm7.24,11.85a0.438,0.438,0,0,0-.3.1,13,13,0,0,1-13.73,0,1.007,1.007,0,0,0-.3-0.1,0.361,0.361,0,0,0-.39.39v0.1c0.39,2.06.69,3.53,0.69,3.72,0.29,1.47,3.24,2.65,6.77,2.65h0c3.53,0,6.47-1.18,6.77-2.65,0-.19.29-1.66,0.68-3.72v-0.1a0.246,0.246,0,0,0-.19-0.39h0Zm-7.24-6.66a1.565,1.565,0,1,1-1.57,1.57A1.573,1.573,0,0,1,1280.94,4493.1Z" transform="translate(-1270.94 -4483.59)"/>
</svg>
