<svg xmlns="http://www.w3.org/2000/svg" width="23.96" height="22.9" viewBox="0 0 23.96 22.9">
  <metadata><?xpacket begin="﻿" id="W5M0MpCehiHzreSzNTczkc9d"?>
<x:xmpmeta xmlns:x="adobe:ns:meta/" x:xmptk="Adobe XMP Core 5.6-c138 79.159824, 2016/09/14-01:09:01        ">
   <rdf:RDF xmlns:rdf="http://www.w3.org/1999/02/22-rdf-syntax-ns#">
      <rdf:Description rdf:about=""/>
   </rdf:RDF>
</x:xmpmeta>
                                                                                                    
                                                                                                    
                                                                                                    
                                                                                                    
                                                                                                    
                                                                                                    
                                                                                                    
                                                                                                    
                                                                                                    
                                                                                                    
                                                                                                    
                                                                                                    
                                                                                                    
                                                                                                    
                                                                                                    
                                                                                                    
                                                                                                    
                                                                                                    
                                                                                                    
                                                                                                    
                           
<?xpacket end="w"?></metadata>
<defs>
    <style>
      .cls-1 {
        fill: #fff;
        fill-rule: evenodd;
      }
    </style>
  </defs>
  <path id="icon_git_hub" class="cls-1" d="M1227.86,4483.67a11.728,11.728,0,0,0-3.79,22.91,0.6,0.6,0,0,0,.82-0.57c0-.28-0.01-1.02-0.01-2-3.34.71-4.04-1.57-4.04-1.57a3.148,3.148,0,0,0-1.33-1.72c-1.09-.73.08-0.72,0.08-0.72a2.522,2.522,0,0,1,1.83,1.22,2.587,2.587,0,0,0,3.49.97,2.45,2.45,0,0,1,.77-1.57c-2.67-.3-5.47-1.3-5.47-5.81a4.478,4.478,0,0,1,1.24-3.15,4.08,4.08,0,0,1,.12-3.11s1-.32,3.29,1.2a11.772,11.772,0,0,1,6.01,0c2.28-1.52,3.29-1.2,3.29-1.2a4.184,4.184,0,0,1,.12,3.11,4.471,4.471,0,0,1,1.23,3.15c0,4.52-2.8,5.51-5.47,5.8a2.776,2.776,0,0,1,.81,2.18c0,1.57-.01,2.84-0.01,3.22a0.6,0.6,0,0,0,.82.57A11.73,11.73,0,0,0,1227.86,4483.67Z" transform="translate(-1215.88 -4483.69)"/>
</svg>
