<svg xmlns="http://www.w3.org/2000/svg" width="12.97" height="23.03" viewBox="0 0 12.97 23.03">
  <metadata><?xpacket begin="﻿" id="W5M0MpCehiHzreSzNTczkc9d"?>
<x:xmpmeta xmlns:x="adobe:ns:meta/" x:xmptk="Adobe XMP Core 5.6-c138 79.159824, 2016/09/14-01:09:01        ">
   <rdf:RDF xmlns:rdf="http://www.w3.org/1999/02/22-rdf-syntax-ns#">
      <rdf:Description rdf:about=""/>
   </rdf:RDF>
</x:xmpmeta>
                                                                                                    
                                                                                                    
                                                                                                    
                                                                                                    
                                                                                                    
                                                                                                    
                                                                                                    
                                                                                                    
                                                                                                    
                                                                                                    
                                                                                                    
                                                                                                    
                                                                                                    
                                                                                                    
                                                                                                    
                                                                                                    
                                                                                                    
                                                                                                    
                                                                                                    
                                                                                                    
                           
<?xpacket end="w"?></metadata>
<defs>
    <style>
      .cls-1 {
        fill: #fff;
        fill-rule: evenodd;
      }
    </style>
  </defs>
  <path id="icon_facebook" class="cls-1" d="M1076.59,4483.6l-3.1-.01a5.347,5.347,0,0,0-5.74,5.67v2.61h-3.12a0.48,0.48,0,0,0-.49.47v3.78a0.48,0.48,0,0,0,.49.47h3.12v9.55a0.48,0.48,0,0,0,.49.47h4.07a0.48,0.48,0,0,0,.49-0.47v-9.55h3.64a0.48,0.48,0,0,0,.49-0.47v-3.78a0.471,0.471,0,0,0-.14-0.33,0.476,0.476,0,0,0-.34-0.14h-3.65v-2.21c0-1.07.26-1.61,1.7-1.61h2.09a0.48,0.48,0,0,0,.49-0.47v-3.51A0.48,0.48,0,0,0,1076.59,4483.6Z" transform="translate(-1064.12 -4483.59)"/>
</svg>
