<svg xmlns="http://www.w3.org/2000/svg" width="24" height="24.96" viewBox="0 0 24 24.96">
  <metadata><?xpacket begin="﻿" id="W5M0MpCehiHzreSzNTczkc9d"?>
<x:xmpmeta xmlns:x="adobe:ns:meta/" x:xmptk="Adobe XMP Core 5.6-c138 79.159824, 2016/09/14-01:09:01        ">
   <rdf:RDF xmlns:rdf="http://www.w3.org/1999/02/22-rdf-syntax-ns#">
      <rdf:Description rdf:about=""/>
   </rdf:RDF>
</x:xmpmeta>
                                                                                                    
                                                                                                    
                                                                                                    
                                                                                                    
                                                                                                    
                                                                                                    
                                                                                                    
                                                                                                    
                                                                                                    
                                                                                                    
                                                                                                    
                                                                                                    
                                                                                                    
                                                                                                    
                                                                                                    
                                                                                                    
                                                                                                    
                                                                                                    
                                                                                                    
                                                                                                    
                           
<?xpacket end="w"?></metadata>
<defs>
    <style>
      .cls-1 {
        fill: #fff;
        fill-rule: evenodd;
      }
    </style>
  </defs>
  <path id="icon_google_plus" class="cls-1" d="M1179.62,4482.38h-5.89a8.746,8.746,0,0,0-6.07,1.94,5.917,5.917,0,0,0-2.05,4.37,5.109,5.109,0,0,0,5.33,5.11c0.33,0,.7-0.03,1.03-0.06l-0.05.11a2.755,2.755,0,0,0-.27,1.16,3.343,3.343,0,0,0,.9,2.14l0.06,0.07-0.1.01a13.6,13.6,0,0,0-6.04,1.49,4.688,4.688,0,0,0-2.47,3.97c0,2.32,2.14,4.66,6.91,4.66,5.54,0,8.45-3.1,8.45-6.15,0-2.27-1.31-3.38-2.71-4.57l-1.17-.92a1.787,1.787,0,0,1-.81-1.39,2.194,2.194,0,0,1,.85-1.54l0.04-.04c1.27-1.02,2.7-2.16,2.7-4.64a5.487,5.487,0,0,0-2.28-4.4h1.96a0.1,0.1,0,0,0,.07-0.02l1.68-1.07a0.115,0.115,0,0,0,.05-0.14A0.111,0.111,0,0,0,1179.62,4482.38Zm-7.14,23.61c-3.38,0-5.65-1.6-5.65-3.98,0-1.55.93-2.68,2.76-3.35a12.911,12.911,0,0,1,3.37-.53,4.176,4.176,0,0,1,.74.04c2.37,1.7,3.51,2.59,3.51,4.3C1177.21,4504.64,1175.4,4505.99,1172.48,4505.99Zm-0.03-13.1c-2.84,0-4.02-3.78-4.02-5.8a3.779,3.779,0,0,1,.71-2.41,2.976,2.976,0,0,1,2.25-1.07c2.61,0,4.05,3.54,4.05,5.99a3.347,3.347,0,0,1-.81,2.38A3.279,3.279,0,0,1,1172.45,4492.89Zm15.42,1.15h-3.1v-3.13a0.132,0.132,0,0,0-.13-0.13h-1.33a0.132,0.132,0,0,0-.13.13v3.13h-3.09a0.124,0.124,0,0,0-.12.13v1.37a0.124,0.124,0,0,0,.12.13h3.09v3.14a0.126,0.126,0,0,0,.13.13h1.33a0.126,0.126,0,0,0,.13-0.13v-3.14h3.1a0.132,0.132,0,0,0,.13-0.13v-1.37A0.132,0.132,0,0,0,1187.87,4494.04Z" transform="translate(-1164 -4482.38)"/>
</svg>
