<?xml version="1.0" encoding="utf-8"?>
<svg xmlns="http://www.w3.org/2000/svg"
	xmlns:xlink="http://www.w3.org/1999/xlink"
	width="49px" height="25px" viewBox="0 0 49 25">
<path fillRule="evenodd" d="M 35.33 24.22C 35.33 24.22 9.09 24.17 9.09 24.17 9.08 24.17 9.08 24.17 9.08 24.17 8.4 24.17 5.98 24.05 3.72 22.48 2.16 21.4 0.3 19.33 0.3 15.64 0.3 11.86 2.03 9.8 3.48 8.75 5.57 7.23 7.99 7.06 8.94 7.06 8.94 7.06 8.94 7.06 8.95 7.06 8.95 7.06 35.34 7.1 35.34 7.1 36.3 7.11 38.61 7.1 40.18 8.67 41.14 9.63 41.63 10.95 41.63 12.6 41.63 15.72 39.28 17.58 35.33 17.58 35.33 17.58 9.05 17.59 9.05 17.59 9.05 17.59 9.05 17.59 9.05 17.59 8.15 17.59 7.42 16.87 7.42 15.98 7.42 15.08 8.15 14.36 9.04 14.36 9.04 14.36 35.33 14.35 35.33 14.35 38.38 14.34 38.38 13.12 38.38 12.6 38.38 11.84 38.21 11.28 37.88 10.96 37.26 10.34 35.96 10.34 35.34 10.34 35.34 10.34 8.94 10.3 8.94 10.3 8.94 10.3 8.94 10.3 8.94 10.3 8.31 10.3 6.71 10.4 5.4 11.36 4.17 12.25 3.55 13.69 3.55 15.64 3.55 17.48 4.23 18.89 5.58 19.82 6.76 20.65 8.21 20.94 9.09 20.94 9.09 20.94 9.09 20.94 9.09 20.94 9.09 20.94 35.34 20.98 35.34 20.98 39.18 20.98 45.65 19.84 45.65 12.24 45.65 5.18 40.04 3.7 35.34 3.7 35.34 3.7 13.59 3.77 13.59 3.77 13.59 3.77 13.59 3.77 13.59 3.77 12.69 3.77 11.96 3.05 11.96 2.16 11.96 1.26 12.68 0.54 13.58 0.53 13.58 0.53 35.34 0.46 35.34 0.46 43.96 0.46 48.9 4.76 48.9 12.24 48.9 19.74 43.82 24.22 35.33 24.22Z" fill="rgb(0,0,0)"/></svg>