<svg xmlns="http://www.w3.org/2000/svg" width="85" height="100" viewBox="0 0 85 100">
  <metadata><?xpacket begin="﻿" id="W5M0MpCehiHzreSzNTczkc9d"?>
<x:xmpmeta xmlns:x="adobe:ns:meta/" x:xmptk="Adobe XMP Core 5.6-c138 79.159824, 2016/09/14-01:09:01        ">
   <rdf:RDF xmlns:rdf="http://www.w3.org/1999/02/22-rdf-syntax-ns#">
      <rdf:Description rdf:about=""/>
   </rdf:RDF>
</x:xmpmeta>
                                                                                                    
                                                                                                    
                                                                                                    
                                                                                                    
                                                                                                    
                                                                                                    
                                                                                                    
                                                                                                    
                                                                                                    
                                                                                                    
                                                                                                    
                                                                                                    
                                                                                                    
                                                                                                    
                                                                                                    
                                                                                                    
                                                                                                    
                                                                                                    
                                                                                                    
                                                                                                    
                           
<?xpacket end="w"?></metadata>
<defs>
    <style>
      .cls-1 {
        fill: #fff;
        fill-rule: evenodd;
      }
    </style>
  </defs>
  <path id="icon_celebrate" class="cls-1" d="M525.914,2406.37h-1.125a8.911,8.911,0,0,0,2.045-5.69,9.068,9.068,0,0,0-9.085-9.03h-1.927a8.909,8.909,0,0,0,2.036-5.68,9.065,9.065,0,0,0-9.084-9.02H499.8a9.465,9.465,0,0,0,2.325-6.21,9.576,9.576,0,0,0-7.832-9.37A11.928,11.928,0,0,0,482.45,2351a1.665,1.665,0,1,0,0,3.33,8.594,8.594,0,0,1,8.452,7.02,9.571,9.571,0,0,0-7.981,9.39,9.465,9.465,0,0,0,2.325,6.21h-9.022a9.034,9.034,0,0,0-6.407,2.65,8.943,8.943,0,0,0-.629,12.05h-1.939a9.056,9.056,0,0,0-6.412,2.64,8.962,8.962,0,0,0-.631,12.08h-1.122a9.107,9.107,0,0,0-6.429,2.64,8.995,8.995,0,0,0,5.815,15.36l4,19.15a9.461,9.461,0,0,0,9.248,7.48h41.567a9.464,9.464,0,0,0,9.249-7.48l4-19.15a9.05,9.05,0,0,0,5.81-2.62,8.936,8.936,0,0,0,2.66-6.37A9.058,9.058,0,0,0,525.914,2406.37Zm-39.637-35.62a6.247,6.247,0,1,1,6.247,6.2A6.232,6.232,0,0,1,486.277,2370.75Zm-20.523,72.1L461.9,2424.4h12.746l2.285,23.27h-5.218A6.105,6.105,0,0,1,465.754,2442.85Zm41.225-18.45-2.286,23.27H494.177V2424.4h12.8Zm-16.157,23.27H480.305l-2.285-23.27h12.8v23.27Zm28.423-4.82a6.105,6.105,0,0,1-5.962,4.82h-5.218l2.285-23.27H523.1Zm10.721-23.46a5.732,5.732,0,0,1-4.052,1.68h-66.83a5.714,5.714,0,0,1-5.728-5.69,5.655,5.655,0,0,1,1.671-4.01,5.745,5.745,0,0,1,4.057-1.67h13.659a1.665,1.665,0,1,0,0-3.33h-5.494a5.721,5.721,0,0,1-5.729-5.69,5.636,5.636,0,0,1,1.69-4.03,5.708,5.708,0,0,1,4.039-1.66h28.189a1.67,1.67,0,1,0,0-3.34H476.223a5.7,5.7,0,0,1-5.715-5.68,5.593,5.593,0,0,1,1.676-4.01,5.716,5.716,0,0,1,4.039-1.68h32.553a5.721,5.721,0,0,1,5.729,5.69,5.656,5.656,0,0,1-1.672,4.01,5.746,5.746,0,0,1-4.057,1.67h-3.867a1.665,1.665,0,1,0,0,3.33H517.75a5.721,5.721,0,0,1,5.729,5.69,5.636,5.636,0,0,1-1.69,4.03,5.721,5.721,0,0,1-4.039,1.67H482.7a1.665,1.665,0,1,0,0,3.33h43.213a5.712,5.712,0,0,1,5.728,5.68A5.633,5.633,0,0,1,529.966,2419.39Z" transform="translate(-450 -2351)"/>
</svg>
