<svg xmlns="http://www.w3.org/2000/svg" width="100" height="100" viewBox="0 0 100 100">
  <metadata><?xpacket begin="﻿" id="W5M0MpCehiHzreSzNTczkc9d"?>
<x:xmpmeta xmlns:x="adobe:ns:meta/" x:xmptk="Adobe XMP Core 5.6-c138 79.159824, 2016/09/14-01:09:01        ">
   <rdf:RDF xmlns:rdf="http://www.w3.org/1999/02/22-rdf-syntax-ns#">
      <rdf:Description rdf:about=""/>
   </rdf:RDF>
</x:xmpmeta>
                                                                                                    
                                                                                                    
                                                                                                    
                                                                                                    
                                                                                                    
                                                                                                    
                                                                                                    
                                                                                                    
                                                                                                    
                                                                                                    
                                                                                                    
                                                                                                    
                                                                                                    
                                                                                                    
                                                                                                    
                                                                                                    
                                                                                                    
                                                                                                    
                                                                                                    
                                                                                                    
                           
<?xpacket end="w"?></metadata>
<defs>
    <style>
      .cls-1 {
        fill: #fff;
        fill-rule: evenodd;
      }
    </style>
  </defs>
  <path id="icon_presentation" class="cls-1" d="M1138.77,2350.5h-96.54a1.928,1.928,0,0,0-1.73,1.73v9.19a1.812,1.812,0,0,0,1.73,1.72h2.87v60.35a1.818,1.818,0,0,0,1.72,1.72h24.68l-0.47.85c-4.06,7.45-11.8,21.67-12.01,22.1a1.334,1.334,0,0,0-.13.61,1.722,1.722,0,0,0,3.13,1c0.19-.34,8.73-16.02,13.21-24.26l0.17-.3h13.38v23.56a1.72,1.72,0,1,0,3.44,0v-23.56h13.38l0.17,0.3c4.48,8.24,13.02,23.92,13.24,24.3a1.7,1.7,0,0,0,1.37.69,1.724,1.724,0,0,0,1.73-1.73,1.406,1.406,0,0,0-.13-0.62c-0.21-.42-7.95-14.64-12.01-22.09l-0.47-.85h24.68a1.818,1.818,0,0,0,1.72-1.72v-60.35h2.87a1.812,1.812,0,0,0,1.73-1.72v-9.19A1.821,1.821,0,0,0,1138.77,2350.5Zm-6.32,71.26h-83.9v-58.62h83.9v58.62Zm4.6-62.06h-93.1v-5.75h93.1v5.75Zm-70.79,47.08a1.738,1.738,0,0,0,1.26-.42l11.43-10.39,10.34,10.34a1.716,1.716,0,0,0,1.23.46,1.775,1.775,0,0,0,1.22-.49l21.17-22.23v11.85a1.742,1.742,0,0,0,.53,1.22,1.65,1.65,0,0,0,2.4,0,1.685,1.685,0,0,0,.52-1.21v-16.1a1.818,1.818,0,0,0-1.72-1.72h-16.09a1.811,1.811,0,0,0-1.73,1.72,1.927,1.927,0,0,0,1.73,1.72h12l-20.08,21.09-10.25-10.26a1.759,1.759,0,0,0-1.22-.47,1.7,1.7,0,0,0-1.15.42l-12.65,11.49a1.777,1.777,0,0,0-.54,1.22,1.752,1.752,0,0,0,.4,1.24A1.731,1.731,0,0,0,1066.26,2406.78Z" transform="translate(-1040.5 -2350.5)"/>
</svg>
