<svg xmlns="http://www.w3.org/2000/svg" width="100" height="100" viewBox="0 0 100 100">
  <metadata><?xpacket begin="﻿" id="W5M0MpCehiHzreSzNTczkc9d"?>
<x:xmpmeta xmlns:x="adobe:ns:meta/" x:xmptk="Adobe XMP Core 5.6-c138 79.159824, 2016/09/14-01:09:01        ">
   <rdf:RDF xmlns:rdf="http://www.w3.org/1999/02/22-rdf-syntax-ns#">
      <rdf:Description rdf:about=""/>
   </rdf:RDF>
</x:xmpmeta>
                                                                                                    
                                                                                                    
                                                                                                    
                                                                                                    
                                                                                                    
                                                                                                    
                                                                                                    
                                                                                                    
                                                                                                    
                                                                                                    
                                                                                                    
                                                                                                    
                                                                                                    
                                                                                                    
                                                                                                    
                                                                                                    
                                                                                                    
                                                                                                    
                                                                                                    
                                                                                                    
                           
<?xpacket end="w"?></metadata>
<defs>
    <style>
      .cls-1 {
        fill: #fff;
        fill-rule: evenodd;
      }
    </style>
  </defs>
  <path id="icon_building" class="cls-1" d="M809.982,2412.11a1.788,1.788,0,0,0,1.266-3.07,1.751,1.751,0,0,0-2.532,0A1.805,1.805,0,0,0,809.982,2412.11Zm10.849-3.61a1.805,1.805,0,1,1-1.809,1.81A1.809,1.809,0,0,1,820.831,2408.5Zm10.848,3.61a1.788,1.788,0,0,0,1.266-3.07,1.751,1.751,0,0,0-2.532,0A1.805,1.805,0,0,0,831.679,2412.11Zm-21.7-18.08a1.788,1.788,0,0,0,1.266-3.07,1.754,1.754,0,0,0-2.532,0,1.942,1.942,0,0,0-.542,1.26A1.849,1.849,0,0,0,809.982,2394.03Zm10.849-3.61a1.805,1.805,0,1,1-1.809,1.8A1.807,1.807,0,0,1,820.831,2390.42Zm10.848,3.61a1.788,1.788,0,0,0,1.266-3.07,1.754,1.754,0,0,0-2.532,0,1.942,1.942,0,0,0-.542,1.26A1.849,1.849,0,0,0,831.679,2394.03Zm-21.7-18.08a1.788,1.788,0,0,0,1.266-3.07,1.737,1.737,0,0,0-2.532,0A1.805,1.805,0,0,0,809.982,2375.95Zm10.849-3.61a1.805,1.805,0,1,1-1.809,1.8A1.8,1.8,0,0,1,820.831,2372.34Zm10.848,3.61a1.788,1.788,0,0,0,1.266-3.07,1.735,1.735,0,0,0-2.532,0A1.805,1.805,0,0,0,831.679,2375.95Zm-21.7,27.12a1.788,1.788,0,0,0,1.266-3.07,1.751,1.751,0,0,0-2.532,0,1.946,1.946,0,0,0-.542,1.27A1.849,1.849,0,0,0,809.982,2403.07Zm10.849-3.61a1.805,1.805,0,1,1-1.809,1.81A1.809,1.809,0,0,1,820.831,2399.46Zm10.848,3.61a1.788,1.788,0,0,0,1.266-3.07,1.751,1.751,0,0,0-2.532,0,1.946,1.946,0,0,0-.542,1.27A1.849,1.849,0,0,0,831.679,2403.07Zm-21.7-18.08a1.788,1.788,0,0,0,1.266-3.07,1.754,1.754,0,0,0-2.532,0A1.805,1.805,0,0,0,809.982,2384.99Zm10.849-3.61a1.805,1.805,0,1,1-1.809,1.8A1.807,1.807,0,0,1,820.831,2381.38Zm10.848,3.61a1.788,1.788,0,0,0,1.266-3.07,1.751,1.751,0,0,0-2.532,0,1.942,1.942,0,0,0-.542,1.26A1.849,1.849,0,0,0,831.679,2384.99Zm-21.7-18.08a1.788,1.788,0,0,0,1.266-3.07,1.735,1.735,0,0,0-2.532,0,1.942,1.942,0,0,0-.542,1.26A1.849,1.849,0,0,0,809.982,2366.91Zm10.849-3.62a1.81,1.81,0,1,1-1.809,1.81A1.809,1.809,0,0,1,820.831,2363.29Zm10.848,3.62a1.788,1.788,0,0,0,1.266-3.07,1.735,1.735,0,0,0-2.532,0,1.942,1.942,0,0,0-.542,1.26A1.849,1.849,0,0,0,831.679,2366.91Zm8.137-16.9H801.845a1.326,1.326,0,0,0-1.176,1.17v34.99H742.178a1.325,1.325,0,0,0-1.175,1.17v61.48a1.325,1.325,0,0,0,1.175,1.17h97.638a1.326,1.326,0,0,0,1.176-1.17v-97.64A1.178,1.178,0,0,0,839.816,2350.01Zm-39.147,97.63H743.353v-59.12h57.316v59.12Zm18.986,0h-8.5v-23.5h8.5v23.5Zm10.848,0h-8.5v-23.5h8.5v23.5Zm8.137,0h-5.785v-24.68a1.178,1.178,0,0,0-1.176-1.17h-21.7a1.178,1.178,0,0,0-1.176,1.17v24.68h-5.785v-95.28H838.64v95.28Zm-83.8-46.46h34.354a1.175,1.175,0,1,0,0-2.35H754.835A1.175,1.175,0,1,0,754.835,2401.18Zm0,12.65h34.354a1.175,1.175,0,1,0,0-2.35H754.835A1.175,1.175,0,1,0,754.835,2413.83Zm0,12.66h34.354a1.175,1.175,0,1,0,0-2.35H754.835A1.175,1.175,0,1,0,754.835,2426.49Zm0,12.66h34.354a1.18,1.18,0,0,0,0-2.36H754.835A1.18,1.18,0,0,0,754.835,2439.15Z" transform="translate(-741 -2350)"/>
</svg>
