<svg xmlns="http://www.w3.org/2000/svg" width="123" height="100" viewBox="0 0 123 100">
  <metadata><?xpacket begin="﻿" id="W5M0MpCehiHzreSzNTczkc9d"?>
<x:xmpmeta xmlns:x="adobe:ns:meta/" x:xmptk="Adobe XMP Core 5.6-c138 79.159824, 2016/09/14-01:09:01        ">
   <rdf:RDF xmlns:rdf="http://www.w3.org/1999/02/22-rdf-syntax-ns#">
      <rdf:Description rdf:about=""/>
   </rdf:RDF>
</x:xmpmeta>
                                                                                                    
                                                                                                    
                                                                                                    
                                                                                                    
                                                                                                    
                                                                                                    
                                                                                                    
                                                                                                    
                                                                                                    
                                                                                                    
                                                                                                    
                                                                                                    
                                                                                                    
                                                                                                    
                                                                                                    
                                                                                                    
                                                                                                    
                                                                                                    
                                                                                                    
                                                                                                    
                           
<?xpacket end="w"?></metadata>
<defs>
    <style>
      .cls-1 {
        fill: #fff;
        fill-rule: evenodd;
      }
    </style>
  </defs>
  <path id="icon_money" class="cls-1" d="M825.616,2379.37a4.61,4.61,0,1,0,4.622,4.61A4.621,4.621,0,0,0,825.616,2379.37Zm-68.253,9.22a4.61,4.61,0,1,0-4.621-4.61A4.622,4.622,0,0,0,757.363,2388.59Zm88.161-37.58H737.456a7.29,7.29,0,0,0-7.465,7.44v85.09a7.3,7.3,0,0,0,7.465,7.45H845.524a7.3,7.3,0,0,0,7.465-7.45v-85.09A7.291,7.291,0,0,0,845.524,2351.01Zm-32.35,14.89h16.375l0.219,0.77a11,11,0,0,0,7.515,7.49l0.775,0.22v19.19l-0.772.22a11.02,11.02,0,0,0-7.518,7.5l-0.219.77H813.174V2365.9Zm-43.369,81.54H737.456a3.734,3.734,0,0,1-3.91-3.9v-4.88l1.4,0.47a7.445,7.445,0,0,0,2.5.51h32.349v7.8Zm0-11.34H737.456a3.739,3.739,0,0,1-3.91-3.9v-4.89l1.4,0.48a7.445,7.445,0,0,0,2.5.51h32.349v7.8Zm0-11.35H737.456a3.734,3.734,0,0,1-3.91-3.9v-4.88l1.4,0.47a7.513,7.513,0,0,0,2.506.51h32.349v7.8Zm0-22.69H753.432l-0.221-.77a11.01,11.01,0,0,0-7.516-7.5l-0.774-.22v-19.19l0.774-.22a11,11,0,0,0,7.516-7.49l0.221-.77h16.373v36.16Zm0-39.71h-18.13a1.851,1.851,0,0,0-1.777,1.77,6.752,6.752,0,0,1-6.754,6.74,1.629,1.629,0,0,0-1.778,1.77v22.69a1.872,1.872,0,0,0,1.778,1.78,6.75,6.75,0,0,1,6.754,6.73,1.629,1.629,0,0,0,1.777,1.77h18.13v7.8H737.456a3.734,3.734,0,0,1-3.91-3.9v-51.05a3.734,3.734,0,0,1,3.91-3.9h32.349v7.8Zm39.815,85.09H773.36v-92.89h36.26v92.89Zm39.814-3.9a3.734,3.734,0,0,1-3.91,3.9h-32.35v-7.8h32.35a7.45,7.45,0,0,0,2.5-.51l1.4-.47v4.88Zm0-11.34a3.74,3.74,0,0,1-3.91,3.9h-32.35v-7.8h32.35a7.45,7.45,0,0,0,2.5-.51l1.4-.48v4.89Zm0-11.35a3.734,3.734,0,0,1-3.91,3.9h-32.35v-7.8h32.35a7.5,7.5,0,0,0,2.5-.51l1.4-.47v4.88Zm0-11.35a3.734,3.734,0,0,1-3.91,3.9h-32.35v-7.8H831.3a1.858,1.858,0,0,0,1.778-1.77,6.75,6.75,0,0,1,6.754-6.73,1.636,1.636,0,0,0,1.777-1.78v-22.69a1.857,1.857,0,0,0-1.777-1.77,6.752,6.752,0,0,1-6.754-6.74,1.629,1.629,0,0,0-1.778-1.77h-18.13v-7.8h32.35a3.734,3.734,0,0,1,3.91,3.9v51.05Z" transform="translate(-730 -2351)"/>
</svg>
