<svg xmlns="http://www.w3.org/2000/svg" width="127" height="100" viewBox="0 0 127 100">
  <metadata><?xpacket begin="﻿" id="W5M0MpCehiHzreSzNTczkc9d"?>
<x:xmpmeta xmlns:x="adobe:ns:meta/" x:xmptk="Adobe XMP Core 5.6-c138 79.159824, 2016/09/14-01:09:01        ">
   <rdf:RDF xmlns:rdf="http://www.w3.org/1999/02/22-rdf-syntax-ns#">
      <rdf:Description rdf:about=""/>
   </rdf:RDF>
</x:xmpmeta>
                                                                                                    
                                                                                                    
                                                                                                    
                                                                                                    
                                                                                                    
                                                                                                    
                                                                                                    
                                                                                                    
                                                                                                    
                                                                                                    
                                                                                                    
                                                                                                    
                                                                                                    
                                                                                                    
                                                                                                    
                                                                                                    
                                                                                                    
                                                                                                    
                                                                                                    
                                                                                                    
                           
<?xpacket end="w"?></metadata>
<defs>
    <style>
      .cls-1 {
        fill: #fff;
        fill-rule: evenodd;
      }
    </style>
  </defs>
  <path id="icon_bag" class="cls-1" d="M1143.59,2367.22h-25.15v-11.38a4.085,4.085,0,0,0-.61-2.05,4.647,4.647,0,0,0-2.1-1.99,5.642,5.642,0,0,0-2.86-.8h-48.01a4.525,4.525,0,0,0-1.82.36,3.505,3.505,0,0,0-1.81,1.92,5.589,5.589,0,0,0-.51,2.56v11.38h-25.29a9.419,9.419,0,0,0-9.43,9.39v65a9.419,9.419,0,0,0,9.43,9.39h108.16a9.417,9.417,0,0,0,9.42-9.39v-65a8.893,8.893,0,0,0-2.58-6.54A9.466,9.466,0,0,0,1143.59,2367.22Zm-80.3-11.38a2.646,2.646,0,0,1,.49-1.78l0.36-.35h48.73a4.029,4.029,0,0,1,1.96.69,1.4,1.4,0,0,1,.74,1l0.15,0.58v11.38h-52.43v-11.52Zm87.3,85.95a6.973,6.973,0,0,1-7,6.65H1035.43a6.77,6.77,0,0,1-6.86-6.83V2406.5l1.26,1.52a17.9,17.9,0,0,0,13.74,6.57h6.29v0.71a6.152,6.152,0,0,1-.08.81,4.76,4.76,0,0,0-.07.61,10.876,10.876,0,0,0,2.4,7.22,7.608,7.608,0,0,0,12.33.02,11.985,11.985,0,0,0,2.42-7.24,3.728,3.728,0,0,0-.11-1.2l-0.31-.93h44.71v0.71a6.152,6.152,0,0,1-.08.81,4.65,4.65,0,0,0-.06.61,10.858,10.858,0,0,0,2.4,7.22,7.608,7.608,0,0,0,12.33.02,12.064,12.064,0,0,0,2.41-7.24,4.086,4.086,0,0,0-.1-1.2l-0.32-.93h7.85a17.9,17.9,0,0,0,13.74-6.57l1.27-1.52v35.29Zm-98.3-25.07a4.985,4.985,0,0,1,.18-1.65l0.16-.48h11.03l0.16,0.48a4.985,4.985,0,0,1,.18,1.65,9.274,9.274,0,0,1-1.86,5.7,4.824,4.824,0,0,1-7.99,0A9.274,9.274,0,0,1,1052.29,2416.72Zm61.29,0a4.985,4.985,0,0,1,.18-1.65l0.16-.48h11.03l0.17,0.48a4.985,4.985,0,0,1,.18,1.65,9.282,9.282,0,0,1-1.87,5.7,4.815,4.815,0,0,1-7.98,0A9.219,9.219,0,0,1,1113.58,2416.72Zm36.86-19.77a14.811,14.811,0,0,1-4.35,10.6,14.992,14.992,0,0,1-10.65,4.33h-91.87a14.992,14.992,0,0,1-10.65-4.33,14.811,14.811,0,0,1-4.35-10.6v-20.34a6.77,6.77,0,0,1,6.86-6.83h108.16a6.768,6.768,0,0,1,6.85,6.83v20.34Z" transform="translate(-1026 -2351)"/>
</svg>
