<?xml version="1.0" encoding="utf-8"?>
<svg xmlns="http://www.w3.org/2000/svg"
	xmlns:xlink="http://www.w3.org/1999/xlink"
	width="24px" height="24px" viewBox="0 0 24 24">
<path fillRule="evenodd" d="M 23.27 0.71C 22.33-0.24 20.8-0.24 19.85 0.71 19.85 0.71 11.99 8.57 11.99 8.57 11.99 8.57 4.12 0.71 4.12 0.71 3.18-0.24 1.65-0.24 0.71 0.71-0.24 1.65-0.24 3.18 0.71 4.13 0.71 4.13 8.57 11.99 8.57 11.99 8.57 11.99 0.71 19.86 0.71 19.86-0.24 20.8-0.24 22.33 0.71 23.28 1.65 24.22 3.18 24.22 4.12 23.28 4.12 23.28 11.99 15.41 11.99 15.41 11.99 15.41 19.85 23.28 19.85 23.28 20.8 24.22 22.33 24.22 23.27 23.28 24.22 22.33 24.22 20.8 23.27 19.86 23.27 19.86 15.41 11.99 15.41 11.99 15.41 11.99 23.27 4.13 23.27 4.13 24.22 3.18 24.22 1.65 23.27 0.71 23.27 0.71 23.27 0.71 23.27 0.71Z" fill="rgb(255,255,255)"/></svg>