<svg xmlns="http://www.w3.org/2000/svg" width="84" height="100" viewBox="0 0 84 100">
  <metadata><?xpacket begin="﻿" id="W5M0MpCehiHzreSzNTczkc9d"?>
<x:xmpmeta xmlns:x="adobe:ns:meta/" x:xmptk="Adobe XMP Core 5.6-c138 79.159824, 2016/09/14-01:09:01        ">
   <rdf:RDF xmlns:rdf="http://www.w3.org/1999/02/22-rdf-syntax-ns#">
      <rdf:Description rdf:about=""/>
   </rdf:RDF>
</x:xmpmeta>
                                                                                                    
                                                                                                    
                                                                                                    
                                                                                                    
                                                                                                    
                                                                                                    
                                                                                                    
                                                                                                    
                                                                                                    
                                                                                                    
                                                                                                    
                                                                                                    
                                                                                                    
                                                                                                    
                                                                                                    
                                                                                                    
                                                                                                    
                                                                                                    
                                                                                                    
                                                                                                    
                           
<?xpacket end="w"?></metadata>
<defs>
    <style>
      .cls-1 {
        fill: #fff;
        fill-rule: evenodd;
      }
    </style>
  </defs>
  <path id="icon_celebrate_2" class="cls-1" d="M526.272,2406.74h-1.825l0.446-.55a8.648,8.648,0,0,0,1.961-5.52,8.735,8.735,0,0,0-8.712-8.74H515.52l0.444-.55a8.751,8.751,0,0,0-6.759-14.26h-9.663l0.475-.55a9.26,9.26,0,0,0-5.293-15.13l-0.24-.05-0.03-.24A11.588,11.588,0,0,0,482.993,2351a1.34,1.34,0,0,0,0,2.68,8.9,8.9,0,0,1,8.745,7.35l0.06,0.33-0.333.06a9.256,9.256,0,0,0-5.434,15.15l0.474,0.55h-9.712a8.751,8.751,0,0,0-8.7,8.75,8.786,8.786,0,0,0,1.953,5.51l0.443,0.55h-2.633a8.749,8.749,0,0,0-8.713,8.74,8.8,8.8,0,0,0,1.959,5.52l0.444,0.55h-1.82a8.736,8.736,0,0,0-.589,17.45l0.253,0.02,4.032,19.54A9.113,9.113,0,0,0,472.3,2451H513.7a9.113,9.113,0,0,0,8.881-7.25l4.034-19.54,0.252-.01A8.741,8.741,0,0,0,526.272,2406.74Zm-39.8-36.2a6.555,6.555,0,1,1,6.555,6.59A6.574,6.574,0,0,1,486.469,2370.54ZM472.3,2448.32a6.426,6.426,0,0,1-6.264-5.12l-3.917-18.98h13.405l2.341,24.1H472.3Zm19.359,0H480.555l-2.341-24.09h13.449v24.09Zm13.782,0H494.336v-24.09h13.45Zm14.514-5.12a6.427,6.427,0,0,1-6.264,5.12H508.13l2.341-24.09h13.4Zm10.584-23.45a5.972,5.972,0,0,1-4.271,1.79H459.727a6.06,6.06,0,0,1,0-12.12h13.6a1.34,1.34,0,0,0,0-2.68h-5.47a6.06,6.06,0,0,1-4.259-10.35,5.955,5.955,0,0,1,4.259-1.78h28.069a1.34,1.34,0,0,0,0-2.68H476.792a6.051,6.051,0,0,1-6.025-6.06,6.074,6.074,0,0,1,6.025-6.06h32.415a6.06,6.06,0,0,1,0,12.12h-3.851a1.34,1.34,0,0,0,0,2.68h12.787a6.059,6.059,0,0,1,4.257,10.35,5.954,5.954,0,0,1-4.257,1.78h-34.9a1.34,1.34,0,0,0,0,2.68h43.028A6.054,6.054,0,0,1,530.543,2419.75Z" transform="translate(-451 -2351)"/>
</svg>
