<svg xmlns="http://www.w3.org/2000/svg" width="123" height="100" viewBox="0 0 123 100">
  <metadata><?xpacket begin="﻿" id="W5M0MpCehiHzreSzNTczkc9d"?>
<x:xmpmeta xmlns:x="adobe:ns:meta/" x:xmptk="Adobe XMP Core 5.6-c138 79.159824, 2016/09/14-01:09:01        ">
   <rdf:RDF xmlns:rdf="http://www.w3.org/1999/02/22-rdf-syntax-ns#">
      <rdf:Description rdf:about=""/>
   </rdf:RDF>
</x:xmpmeta>
                                                                                                    
                                                                                                    
                                                                                                    
                                                                                                    
                                                                                                    
                                                                                                    
                                                                                                    
                                                                                                    
                                                                                                    
                                                                                                    
                                                                                                    
                                                                                                    
                                                                                                    
                                                                                                    
                                                                                                    
                                                                                                    
                                                                                                    
                                                                                                    
                                                                                                    
                                                                                                    
                           
<?xpacket end="w"?></metadata>
<defs>
    <style>
      .cls-1 {
        fill: #fff;
        fill-rule: evenodd;
      }
    </style>
  </defs>
  <path id="icon_money_2" class="cls-1" d="M845.84,2351H737.16a6.989,6.989,0,0,0-7.15,7.14v85.72a6.989,6.989,0,0,0,7.15,7.14H845.84a6.989,6.989,0,0,0,7.15-7.14v-85.72A6.989,6.989,0,0,0,845.84,2351Zm-32.89,14.29h17.095l0.3,1.03a10.708,10.708,0,0,0,7.311,7.31l1.038,0.29v19.87l-1.036.3a10.712,10.712,0,0,0-7.313,7.3l-0.3,1.04H812.95v-37.14Zm-42.9,82.85H737.16a4.1,4.1,0,0,1-4.29-4.28v-5.42l1.885,0.64a7.248,7.248,0,0,0,2.4.49h32.89v8.57Zm0-11.43H737.16a4.1,4.1,0,0,1-4.29-4.28v-5.41l1.885,0.63a7.248,7.248,0,0,0,2.4.49h32.89v8.57Zm0-11.42H737.16a4.108,4.108,0,0,1-4.29-4.29v-5.41l1.882,0.63a7.251,7.251,0,0,0,2.408.49h32.89v8.58Zm0-22.86H752.957l-0.3-1.04a10.712,10.712,0,0,0-7.313-7.3l-1.036-.3v-19.87l1.038-.29a10.708,10.708,0,0,0,7.311-7.31l0.3-1.03H770.05v37.14Zm0-40H751.46a1.2,1.2,0,0,0-.99.44,1.187,1.187,0,0,0-.44.99,7.152,7.152,0,0,1-7.15,7.14,1.291,1.291,0,0,0-1.43,1.43v22.86a1.51,1.51,0,0,0,1.43,1.42,7.16,7.16,0,0,1,7.15,7.15,1.291,1.291,0,0,0,1.43,1.43h18.59v8.57H737.16a4.108,4.108,0,0,1-4.29-4.29v-51.43a4.144,4.144,0,0,1,4.29-4.28h32.89v8.57Zm40.04,85.71H772.91v-94.28h37.18v94.28Zm40.04-4.28a4.1,4.1,0,0,1-4.29,4.28H812.95v-8.57h32.89a7.248,7.248,0,0,0,2.4-.49l1.885-.64v5.42Zm0-11.43a4.1,4.1,0,0,1-4.29,4.28H812.95v-8.57h32.89a7.248,7.248,0,0,0,2.4-.49l1.885-.63v5.41Zm0-11.43a4.108,4.108,0,0,1-4.29,4.29H812.95v-8.58h32.89a7.251,7.251,0,0,0,2.408-.49l1.882-.63V2421Zm0-11.43a4.108,4.108,0,0,1-4.29,4.29H812.95v-8.57h18.59a1.532,1.532,0,0,0,1.43-1.43,7.16,7.16,0,0,1,7.15-7.15,1.284,1.284,0,0,0,1.43-1.42v-22.86a1.186,1.186,0,0,0-.441-0.99,1.2,1.2,0,0,0-.989-0.44,7.152,7.152,0,0,1-7.15-7.14,1.291,1.291,0,0,0-1.43-1.43H812.95v-8.57h32.89a4.144,4.144,0,0,1,4.29,4.28v51.43Zm-92.95-21.43a4.285,4.285,0,1,0-4.29-4.28A4.29,4.29,0,0,0,757.18,2388.14Zm68.64-8.57a4.285,4.285,0,1,0,4.29,4.29A4.292,4.292,0,0,0,825.82,2379.57Z" transform="translate(-730 -2351)"/>
</svg>
