<svg xmlns="http://www.w3.org/2000/svg" width="129.219" height="100" viewBox="0 0 129.219 100">
  <metadata><?xpacket begin="﻿" id="W5M0MpCehiHzreSzNTczkc9d"?>
<x:xmpmeta xmlns:x="adobe:ns:meta/" x:xmptk="Adobe XMP Core 5.6-c138 79.159824, 2016/09/14-01:09:01        ">
   <rdf:RDF xmlns:rdf="http://www.w3.org/1999/02/22-rdf-syntax-ns#">
      <rdf:Description rdf:about=""/>
   </rdf:RDF>
</x:xmpmeta>
                                                                                                    
                                                                                                    
                                                                                                    
                                                                                                    
                                                                                                    
                                                                                                    
                                                                                                    
                                                                                                    
                                                                                                    
                                                                                                    
                                                                                                    
                                                                                                    
                                                                                                    
                                                                                                    
                                                                                                    
                                                                                                    
                                                                                                    
                                                                                                    
                                                                                                    
                                                                                                    
                           
<?xpacket end="w"?></metadata>
<defs>
    <style>
      .cls-1 {
        fill: #fff;
        fill-rule: evenodd;
      }
    </style>
  </defs>
  <path id="icon_heads" class="cls-1" d="M556.732,2397.2l-6.14-8.76a5.316,5.316,0,0,1,.529-1.01,5.514,5.514,0,0,0,1.006-3.15A33.746,33.746,0,0,0,518.5,2350.5c-10.046,0-18.295,2.47-24.384,7.05q-9.618-7.035-26.649-7.05a33.746,33.746,0,0,0-33.626,33.78,5.514,5.514,0,0,0,1.006,3.15,5.626,5.626,0,0,1,.53,1.01l-6.143,8.76a4.667,4.667,0,0,0,3.8,7.35h1.109a0.313,0.313,0,0,1,.247.13,0.3,0.3,0,0,1,.033.28l-2.061,5.42a1.349,1.349,0,0,0,.34,1.47l1.153,1.08-0.869.72a1.349,1.349,0,0,0-.267,1.78l2.829,4.32a1.5,1.5,0,0,1-.1,1.77l-0.9,1.08a4.671,4.671,0,0,0,2.942,7.62l8.892,1.01a9.074,9.074,0,0,1,8.02,9.19l-0.159,8.7a1.331,1.331,0,0,0,.385.97,1.345,1.345,0,0,0,.96.41h34.748a1.338,1.338,0,0,0,.975-0.42,1.365,1.365,0,0,0,.369-1l-1.375-28.35a7.945,7.945,0,0,1,3.393-7.01,30.439,30.439,0,0,0,3.563-3.06c0.5,0.37.967,0.76,1.491,1.11a10.944,10.944,0,0,1,4.866,9.58l-1.255,27.74a1.353,1.353,0,0,0,1.344,1.41h26.676a1.345,1.345,0,0,0,.961-0.41,1.331,1.331,0,0,0,.385-0.97l-0.159-8.7a9.153,9.153,0,0,1,1.8-5.6,9.06,9.06,0,0,1,6.223-3.59l8.931-1.02a4.618,4.618,0,0,0,3.327-2.21,4.685,4.685,0,0,0-.424-5.4l-0.9-1.08a1.5,1.5,0,0,1-.1-1.77l2.829-4.32a1.35,1.35,0,0,0-.266-1.78l-0.87-.72,1.153-1.08a1.349,1.349,0,0,0,.34-1.47l-2.061-5.42a0.3,0.3,0,0,1,.033-0.28,0.313,0.313,0,0,1,.247-0.13h1.108A4.666,4.666,0,0,0,556.732,2397.2Zm-64.6,14.32a10.627,10.627,0,0,0-4.52,9.35l1.307,26.93H456.956l0.134-7.33a11.873,11.873,0,0,0-2.333-7.27,11.749,11.749,0,0,0-8.075-4.65l-8.852-1.01a1.97,1.97,0,0,1-1.223-3.21l0.9-1.07a4.235,4.235,0,0,0,.289-5l-2.164-3.3,1.123-.93a1.365,1.365,0,0,0,.059-2.04l-1.614-1.5,1.736-4.56a3,3,0,0,0-2.791-4.08h-1.109a1.928,1.928,0,0,1-1.736-1.06,1.948,1.948,0,0,1,.136-2.04l7.717-11a1.348,1.348,0,0,0-2.025-1.76,2.83,2.83,0,0,1-.594-1.71,31.048,31.048,0,0,1,30.936-31.08c10.452,0,18.587,2.04,24.5,6.13-6.328,5.81-9.782,14.3-9.782,24.95,0,8.99,4.75,17.99,12.9,24.76A27.658,27.658,0,0,1,492.135,2411.52Zm11.65-24.53c0,7.93-2.4,14.85-6.836,20.08-7.621-6.27-12.075-14.55-12.075-22.79,0-9.95,3.308-17.84,9.339-23.18C500.608,2366.69,503.785,2375.28,503.785,2386.99Zm50.886,13.8a1.931,1.931,0,0,1-1.737,1.06h-1.108a3,3,0,0,0-2.791,4.08l1.736,4.56-1.614,1.5a1.365,1.365,0,0,0,.059,2.04l1.123,0.93-2.164,3.3a4.236,4.236,0,0,0,.286,5l0.9,1.08a1.96,1.96,0,0,1-1.184,3.19l-8.891,1.02a11.753,11.753,0,0,0-8.075,4.65,11.888,11.888,0,0,0-2.335,7.27l0.134,7.33h-23.9l1.19-26.33a13.635,13.635,0,0,0-6.068-11.95c-0.39-.26-0.732-0.56-1.109-0.83,4.779-5.69,7.349-13.17,7.349-21.7,0-12.3-3.405-21.51-10.133-27.6,5.6-4.02,13.083-6.19,22.159-6.19a31.048,31.048,0,0,1,30.936,31.08,2.83,2.83,0,0,1-.594,1.71,1.348,1.348,0,0,0-2.025,1.76l7.715,11A1.944,1.944,0,0,1,554.671,2400.79Zm-13.124-13.68c-0.22-.05-5.376-1.18-8.891,2.48a1.353,1.353,0,0,0,.969,2.29,1.326,1.326,0,0,0,.968-0.42,6.816,6.816,0,0,1,5.309-1.83v0.28a1.345,1.345,0,1,0,2.69,0v-1.48A1.352,1.352,0,0,0,541.547,2387.11Zm-16.127,36.78c-4.9,0-7.729-5.07-7.756-5.12a1.346,1.346,0,1,0-2.363,1.29c0.143,0.27,3.6,6.53,10.119,6.53A1.35,1.35,0,0,0,525.42,2423.89Zm-81-36.78a1.352,1.352,0,0,0-1.045,1.32v1.48a1.345,1.345,0,1,0,2.69,0v-0.28a6.9,6.9,0,0,1,5.309,1.83,1.326,1.326,0,0,0,.968.42,1.353,1.353,0,0,0,.969-2.29C449.8,2385.93,444.642,2387.06,444.422,2387.11Zm25.7,31.12a1.341,1.341,0,0,0-1.823.54c-0.028.06-2.816,5.12-7.755,5.12a1.35,1.35,0,0,0,0,2.7c6.523,0,9.976-6.26,10.119-6.53A1.354,1.354,0,0,0,470.127,2418.23Z" transform="translate(-428.375 -2350.5)"/>
</svg>
