<svg xmlns="http://www.w3.org/2000/svg" width="100" height="100" viewBox="0 0 100 100">
  <metadata><?xpacket begin="﻿" id="W5M0MpCehiHzreSzNTczkc9d"?>
<x:xmpmeta xmlns:x="adobe:ns:meta/" x:xmptk="Adobe XMP Core 5.6-c138 79.159824, 2016/09/14-01:09:01        ">
   <rdf:RDF xmlns:rdf="http://www.w3.org/1999/02/22-rdf-syntax-ns#">
      <rdf:Description rdf:about=""/>
   </rdf:RDF>
</x:xmpmeta>
                                                                                                    
                                                                                                    
                                                                                                    
                                                                                                    
                                                                                                    
                                                                                                    
                                                                                                    
                                                                                                    
                                                                                                    
                                                                                                    
                                                                                                    
                                                                                                    
                                                                                                    
                                                                                                    
                                                                                                    
                                                                                                    
                                                                                                    
                                                                                                    
                                                                                                    
                                                                                                    
                           
<?xpacket end="w"?></metadata>
<defs>
    <style>
      .cls-1 {
        fill: #fff;
        fill-rule: evenodd;
      }
    </style>
  </defs>
  <path id="icon_presentation_2" class="cls-1" d="M1066.63,2407.03a1.481,1.481,0,0,0,1.06-.35l11.7-10.63,10.59,10.59a1.528,1.528,0,0,0,2.05-.03l21.79-22.88v12.65a1.465,1.465,0,0,0,.45,1.02,1.367,1.367,0,0,0,2,0,1.407,1.407,0,0,0,.44-1.01v-16.2a1.541,1.541,0,0,0-1.44-1.44h-16.18a1.549,1.549,0,0,0-1.45,1.44,1.646,1.646,0,0,0,1.45,1.45h12.75l-20.87,21.9-10.52-10.52a1.445,1.445,0,0,0-1.02-.39,1.508,1.508,0,0,0-.97.34l-12.71,11.56a1.574,1.574,0,0,0-.12,2.07A1.448,1.448,0,0,0,1066.63,2407.03Zm72.91-56.02h-97.1a1.633,1.633,0,0,0-1.44,1.44v9.25a1.541,1.541,0,0,0,1.44,1.44h3.18v60.98a1.542,1.542,0,0,0,1.45,1.44h25.3l-0.7,1.29c-4.07,7.46-11.83,21.71-12.08,22.21a1.221,1.221,0,0,0-.1.49,1.451,1.451,0,0,0,1.45,1.45,1.429,1.429,0,0,0,1.17-.62c0.22-.37,8.78-16.11,13.28-24.36l0.24-.46h13.92v23.99a1.445,1.445,0,1,0,2.89,0v-23.99h13.92l0.24,0.46c4.5,8.25,13.06,23.99,13.31,24.42a1.44,1.44,0,0,0,2.58-.89,1.222,1.222,0,0,0-.1-0.51c-0.24-.48-8-14.73-12.07-22.19l-0.7-1.29h25.3a1.533,1.533,0,0,0,1.44-1.44v-60.98h3.18a1.542,1.542,0,0,0,1.45-1.44v-9.25A1.542,1.542,0,0,0,1139.54,2351.01Zm-6.07,71.66h-84.96v-59.53h84.96v59.53Zm4.63-62.42h-94.21v-6.35h94.21v6.35Z" transform="translate(-1041 -2351)"/>
</svg>
