<svg xmlns="http://www.w3.org/2000/svg" width="23.406" height="13" viewBox="0 0 23.406 13">
  <metadata><?xpacket begin="﻿" id="W5M0MpCehiHzreSzNTczkc9d"?>
<x:xmpmeta xmlns:x="adobe:ns:meta/" x:xmptk="Adobe XMP Core 5.6-c138 79.159824, 2016/09/14-01:09:01        ">
   <rdf:RDF xmlns:rdf="http://www.w3.org/1999/02/22-rdf-syntax-ns#">
      <rdf:Description rdf:about=""/>
   </rdf:RDF>
</x:xmpmeta>
                                                                                                    
                                                                                                    
                                                                                                    
                                                                                                    
                                                                                                    
                                                                                                    
                                                                                                    
                                                                                                    
                                                                                                    
                                                                                                    
                                                                                                    
                                                                                                    
                                                                                                    
                                                                                                    
                                                                                                    
                                                                                                    
                                                                                                    
                                                                                                    
                                                                                                    
                                                                                                    
                           
<?xpacket end="w"?></metadata>
<defs>
    <style>
      .cls-1 {
        fill: #c9c9c9;
        fill-rule: evenodd;
      }
    </style>
  </defs>
  <path id="arrow_bottom" class="cls-1" d="M432.812,1409.5h3.375v3.25h-3.375v-3.25Zm3.375,0h3.407v3.25h-3.407v-3.25Zm-3.375,3.25h3.375V1416h-3.375v-3.25Zm0-6.5h3.375v3.25h-3.375v-3.25Zm-3.406,0h3.406v3.25h-3.406v-3.25Zm0,3.25h3.406v3.25h-3.406v-3.25ZM426,1406.25h3.406v3.25H426v-3.25Zm0-3.25h3.406v3.25H426V1403Zm3.406,0h3.406v3.25h-3.406V1403Zm3.406,0h3.375v3.25h-3.375V1403Zm3.375,0h3.407v3.25h-3.407V1403Zm3.407,0H443v3.25h-3.406V1403Zm3,0H446v3.25h-3.406V1403Zm-20,0H426v3.25h-3.406V1403Zm13.593,3.25h3.407v3.25h-3.407v-3.25Zm3.407,0H443v3.25h-3.406v-3.25Z" transform="translate(-422.594 -1403)"/>
</svg>
