<svg xmlns="http://www.w3.org/2000/svg" width="216.344" height="172" viewBox="0 0 216.344 172">
  <metadata><?xpacket begin="﻿" id="W5M0MpCehiHzreSzNTczkc9d"?>
<x:xmpmeta xmlns:x="adobe:ns:meta/" x:xmptk="Adobe XMP Core 5.6-c138 79.159824, 2016/09/14-01:09:01        ">
   <rdf:RDF xmlns:rdf="http://www.w3.org/1999/02/22-rdf-syntax-ns#">
      <rdf:Description rdf:about=""/>
   </rdf:RDF>
</x:xmpmeta>
                                                                                                    
                                                                                                    
                                                                                                    
                                                                                                    
                                                                                                    
                                                                                                    
                                                                                                    
                                                                                                    
                                                                                                    
                                                                                                    
                                                                                                    
                                                                                                    
                                                                                                    
                                                                                                    
                                                                                                    
                                                                                                    
                                                                                                    
                                                                                                    
                                                                                                    
                                                                                                    
                           
<?xpacket end="w"?></metadata>
<defs>
    <style>
      .cls-1 {
        fill-rule: evenodd;
      }
    </style>
  </defs>
  <path id="icon_eye" class="cls-1" d="M397.965,3409.91a4.135,4.135,0,0,0-3.055,1.33c-9.051,9.69-19.837,27.56-19.837,57.67,0,23.17,6.642,42.54,19.739,57.57a4.172,4.172,0,1,0,6.3-5.47c-11.738-13.48-17.689-31-17.689-52.1,0-27.39,9.566-43.39,17.589-51.98A4.171,4.171,0,0,0,397.965,3409.91ZM271.92,3377.03a85.95,85.95,0,0,1,64.566,29.2,87.388,87.388,0,0,1,7.43,9.72,85.634,85.634,0,0,1,10.48,71.71c-0.351,1.17-.733,2.33-1.134,3.48-0.493,1.42-1.019,2.83-1.584,4.21q-0.887,2.19-1.886,4.3c-0.576,1.22-1.186,2.43-1.818,3.62-0.674,1.26-1.376,2.51-2.111,3.74-0.641,1.08-1.312,2.13-2,3.17q-1.107,1.68-2.283,3.3c-1.59,2.18-3.284,4.29-5.063,6.31A86.027,86.027,0,1,1,271.92,3377.03Zm61.993,39.21c-0.9-1.18-1.835-2.34-2.8-3.47-0.66.17-1.325,0.32-1.982,0.49l9.025,22.69a26.4,26.4,0,0,1,3.47-.32Zm-12.2,21.05-7.034-17.68c-0.966.62-1.9,1.27-2.821,1.95l6.294,15.82a13.027,13.027,0,0,0-2.924.85l-5.871-14.76c-0.913.76-1.785,1.57-2.643,2.4l5.628,14.14a12.745,12.745,0,0,0-2.317,2.37l-5.622-14.12c-0.852.92-1.679,1.86-2.462,2.85l6.079,15.27a12.577,12.577,0,0,0,5.921,14.89l1.028,2.58c-0.009-.28-0.042-0.54-0.042-0.82,0-.4.058-0.79,0.072-1.19a12.9,12.9,0,0,0,13.031-22.12c0.4-.26.779-0.54,1.2-0.77l-8.931-22.43c-1.011.47-2.019,0.96-2.994,1.5l8.009,20.13A12.694,12.694,0,0,0,321.715,3437.29Zm10.26,0.35a28.242,28.242,0,0,1,3.177-1.06l-8.945-22.47c-1.063.35-2.11,0.73-3.141,1.15Zm9.869,59.28c0.68-1.39,1.315-2.81,1.911-4.24l-0.886-2.23c-0.159,0-.309.02-0.465,0.02a28.17,28.17,0,0,1-3.2-.2Zm-4,7.18q1.123-1.785,2.15-3.63l-4.322-10.86a27.665,27.665,0,0,1-4.147-1.38Zm-4.364,6.26q1.2-1.56,2.331-3.18l-8.432-21.19a27.958,27.958,0,0,1-5.484-4.75Zm-2.386,2.94c0.108,0.02.214,0.06,0.323,0.08l-0.125-.31-31.478-79.12c-0.785,1.14-1.5,2.33-2.191,3.53l29.789,74.88C328.619,3512.72,329.853,3513.02,331.1,3513.3Zm-21.062-10.17a52.228,52.228,0,0,0,5,3.53l-22.53-56.62a51.445,51.445,0,0,0-1.2,6.03Zm-19.246-40.17c0,0.02,0,.04,0,0.07a50.009,50.009,0,0,0,1.067,10.18l6.792,17.08a51.99,51.99,0,0,0,6.2,7.99Zm28.45,46.07c1.423,0.73,2.879,1.38,4.375,1.97l-27.832-69.96q-1.023,2.16-1.843,4.41Zm-47.317,31.64a77.541,77.541,0,0,0,54.908-22.73c-0.167-.05-0.337-0.08-0.5-0.13-1.417-.42-2.8-0.91-4.163-1.43-1.334-.51-2.637-1.06-3.918-1.66-1.554-.73-3.069-1.51-4.54-2.37q-2.263-1.32-4.388-2.83a57.345,57.345,0,0,1-5.3-4.28,58.1,58.1,0,0,1-5.514-5.68,56.787,56.787,0,0,1-13.1-32.92c-0.075-1.2-.181-2.4-0.181-3.62,0-1.51.109-2.99,0.226-4.47a56.708,56.708,0,0,1,.9-6.78c0.34-1.7.777-3.37,1.267-5.01s1.059-3.23,1.685-4.8c0.524-1.32,1.109-2.59,1.724-3.85,0.641-1.32,1.326-2.61,2.061-3.86,0.64-1.09,1.273-2.19,1.98-3.23,0.735-1.09,1.543-2.11,2.35-3.14,0.708-.9,1.448-1.77,2.209-2.63,0.821-.93,1.632-1.86,2.509-2.73,0.763-.76,1.587-1.46,2.395-2.17,0.877-.78,1.771-1.54,2.7-2.27,0.822-.64,1.655-1.28,2.512-1.88,0.93-.65,1.894-1.24,2.863-1.84,0.872-.53,1.727-1.1,2.629-1.59,0.98-.52,2-0.98,3.019-1.45,0.913-.43,1.824-0.85,2.765-1.23,1.031-.42,2.08-0.79,3.139-1.15,0.885-.3,1.785-0.57,2.693-0.82A77.681,77.681,0,1,0,271.92,3540.67Z" transform="translate(-185.812 -3377.03)"/>
</svg>
