<svg xmlns="http://www.w3.org/2000/svg" viewBox="0 0 180 179.62"><defs><style>.cls-1{fill:#fff;}</style></defs><title>icon_mission</title><g id="Слой_2" data-name="Слой 2"><g id="Слой_1-2" data-name="Слой 1"><circle class="cls-1" cx="90" cy="89.81" r="48.8"/><path d="M88.26,0a5.56,5.56,0,0,0-3.82,5.9V32.68A57.35,57.35,0,0,0,32.71,84.06H5.63a5.56,5.56,0,0,0-.16,11.11H32.71A57.7,57.7,0,0,0,84.45,146.9V174a5.56,5.56,0,1,0,11.11.16q0-.08,0-.16V146.9a57.7,57.7,0,0,0,51.73-51.73h27.08a5.56,5.56,0,1,0,.16-11.11H147.29A57.35,57.35,0,0,0,95.55,32.68V5.95A5.56,5.56,0,0,0,89.31,0,5.56,5.56,0,0,0,88.26,0ZM89,42.75a5.56,5.56,0,0,0,1,0h.69a47,47,0,0,1,46.18,46.18q0,.17,0,.35c0,.11,0,.23,0,.35a5.55,5.55,0,0,0,0,.69A47,47,0,0,1,91,136.84H89.31A47,47,0,0,1,43.13,90.66a5.56,5.56,0,0,0,0-1.74A46.64,46.64,0,0,1,89,42.75Zm1,20.48A26.33,26.33,0,0,0,63.61,89.62c0,14.61,11.77,27.08,26.39,27.08s26.39-12.47,26.39-27.08A26.33,26.33,0,0,0,90,63.23Zm0,11.11a15.06,15.06,0,0,1,15.28,15.28,15.28,15.28,0,1,1-30.55,0A15.06,15.06,0,0,1,90,74.34Z"/></g></g></svg>