<svg xmlns="http://www.w3.org/2000/svg" width="125.97" height="99.15" viewBox="0 0 125.97 99.15">
  <metadata><?xpacket begin="﻿" id="W5M0MpCehiHzreSzNTczkc9d"?>
<x:xmpmeta xmlns:x="adobe:ns:meta/" x:xmptk="Adobe XMP Core 5.6-c138 79.159824, 2016/09/14-01:09:01        ">
   <rdf:RDF xmlns:rdf="http://www.w3.org/1999/02/22-rdf-syntax-ns#">
      <rdf:Description rdf:about=""/>
   </rdf:RDF>
</x:xmpmeta>
                                                                                                    
                                                                                                    
                                                                                                    
                                                                                                    
                                                                                                    
                                                                                                    
                                                                                                    
                                                                                                    
                                                                                                    
                                                                                                    
                                                                                                    
                                                                                                    
                                                                                                    
                                                                                                    
                                                                                                    
                                                                                                    
                                                                                                    
                                                                                                    
                                                                                                    
                                                                                                    
                           
<?xpacket end="w"?></metadata>
<defs>
    <style>
      .cls-1 {
        fill: #fff;
        fill-rule: evenodd;
      }
    </style>
  </defs>
  <path id="icon_case" class="cls-1" d="M1143.11,2859.46h-24.94v-11.29a4.045,4.045,0,0,0-.61-2.03,4.562,4.562,0,0,0-2.08-1.97,5.507,5.507,0,0,0-2.84-.79h-47.61a4.519,4.519,0,0,0-1.81.35,3.463,3.463,0,0,0-1.79,1.9,5.558,5.558,0,0,0-.51,2.54v11.29h-25.08a9.332,9.332,0,0,0-9.35,9.3v64.46a9.332,9.332,0,0,0,9.35,9.3h107.27a9.332,9.332,0,0,0,9.35-9.3v-64.46a8.8,8.8,0,0,0-2.56-6.48A9.4,9.4,0,0,0,1143.11,2859.46Zm-79.64-11.29a2.645,2.645,0,0,1,.49-1.76l0.35-.35h48.33a4.082,4.082,0,0,1,1.95.68,1.4,1.4,0,0,1,.73,1l0.16,0.57v11.29h-52.01v-11.43Zm86.58,85.22a6.911,6.911,0,0,1-6.94,6.6H1035.84a6.712,6.712,0,0,1-6.8-6.77V2898.4l1.25,1.51a17.765,17.765,0,0,0,13.63,6.51h6.23v0.7a5.993,5.993,0,0,1-.08.81,4.509,4.509,0,0,0-.06.6,10.753,10.753,0,0,0,2.38,7.16,7.536,7.536,0,0,0,12.22.03,11.908,11.908,0,0,0,2.4-7.19,3.941,3.941,0,0,0-.1-1.18l-0.31-.93h44.34v0.7a5.913,5.913,0,0,1-.07.81,3.356,3.356,0,0,0-.07.6,10.753,10.753,0,0,0,2.38,7.16,7.545,7.545,0,0,0,12.23.03,11.973,11.973,0,0,0,2.4-7.19,3.6,3.6,0,0,0-.11-1.18l-0.31-.93h7.79a17.76,17.76,0,0,0,13.62-6.51l1.25-1.51v34.99Zm-97.49-24.86a4.866,4.866,0,0,1,.18-1.63l0.16-.48h10.94l0.16,0.48a4.866,4.866,0,0,1,.18,1.63,9.234,9.234,0,0,1-1.85,5.66,4.784,4.784,0,0,1-7.92,0A9.234,9.234,0,0,1,1052.56,2908.53Zm60.79,0a4.866,4.866,0,0,1,.18-1.63l0.16-.48h10.94l0.16,0.48a4.866,4.866,0,0,1,.18,1.63,9.234,9.234,0,0,1-1.85,5.66,4.784,4.784,0,0,1-7.92,0A9.234,9.234,0,0,1,1113.35,2908.53Zm36.56-19.6a14.707,14.707,0,0,1-4.31,10.51,14.879,14.879,0,0,1-10.57,4.3h-91.11a14.879,14.879,0,0,1-10.57-4.3,14.707,14.707,0,0,1-4.31-10.51v-20.17a6.712,6.712,0,0,1,6.8-6.77h107.27a6.719,6.719,0,0,1,6.8,6.77v20.17Z" transform="translate(-1026.5 -2843.38)"/>
</svg>
