<svg xmlns="http://www.w3.org/2000/svg" width="130" height="100.62" viewBox="0 0 130 100.62">
  <metadata><?xpacket begin="﻿" id="W5M0MpCehiHzreSzNTczkc9d"?>
<x:xmpmeta xmlns:x="adobe:ns:meta/" x:xmptk="Adobe XMP Core 5.6-c138 79.159824, 2016/09/14-01:09:01        ">
   <rdf:RDF xmlns:rdf="http://www.w3.org/1999/02/22-rdf-syntax-ns#">
      <rdf:Description rdf:about=""/>
   </rdf:RDF>
</x:xmpmeta>
                                                                                                    
                                                                                                    
                                                                                                    
                                                                                                    
                                                                                                    
                                                                                                    
                                                                                                    
                                                                                                    
                                                                                                    
                                                                                                    
                                                                                                    
                                                                                                    
                                                                                                    
                                                                                                    
                                                                                                    
                                                                                                    
                                                                                                    
                                                                                                    
                                                                                                    
                                                                                                    
                           
<?xpacket end="w"?></metadata>
<defs>
    <style>
      .cls-1 {
        fill: #fff;
        fill-rule: evenodd;
      }
    </style>
  </defs>
  <path id="icon_people" class="cls-1" d="M556.972,2889.19l-6.165-8.79a5.386,5.386,0,0,1,.531-1.01,5.507,5.507,0,0,0,1.01-3.16,33.869,33.869,0,0,0-33.758-33.9c-10.085,0-18.366,2.48-24.479,7.07q-9.656-7.05-26.752-7.07a33.869,33.869,0,0,0-33.758,33.9,5.507,5.507,0,0,0,1.01,3.16,5.568,5.568,0,0,1,.531,1.01l-6.166,8.79a4.686,4.686,0,0,0,3.814,7.38H433.9a0.287,0.287,0,0,1,.247.13,0.294,0.294,0,0,1,.033.28l-2.069,5.43a1.358,1.358,0,0,0,.342,1.48l1.158,1.08-0.873.72a1.369,1.369,0,0,0-.268,1.8l2.841,4.33a1.493,1.493,0,0,1-.105,1.77l-0.9,1.09a4.69,4.69,0,0,0-.426,5.41,4.627,4.627,0,0,0,3.38,2.23l8.926,1.02a9.1,9.1,0,0,1,8.052,9.22l-0.159,8.73a1.359,1.359,0,0,0,1.35,1.39h34.884a1.367,1.367,0,0,0,1.349-1.43l-1.381-28.45a8.1,8.1,0,0,1,1.8-5.55,8.494,8.494,0,0,1,1.609-1.49,29.657,29.657,0,0,0,3.577-3.06c0.5,0.36.971,0.76,1.5,1.11a10.987,10.987,0,0,1,4.884,9.62l-1.259,27.83a1.361,1.361,0,0,0,.373,1,1.377,1.377,0,0,0,.976.42h26.781a1.359,1.359,0,0,0,1.35-1.39l-0.16-8.73a9.178,9.178,0,0,1,1.806-5.62,9.078,9.078,0,0,1,6.248-3.6l8.965-1.02a4.636,4.636,0,0,0,3.341-2.23,4.688,4.688,0,0,0-.426-5.41l-0.905-1.09a1.5,1.5,0,0,1-.1-1.77l2.841-4.33a1.371,1.371,0,0,0-.268-1.8l-0.873-.72,1.158-1.08a1.36,1.36,0,0,0,.342-1.48l-2.069-5.43a0.294,0.294,0,0,1,.033-0.28,0.287,0.287,0,0,1,.247-0.13h1.112A4.685,4.685,0,0,0,556.972,2889.19Zm-64.85,14.37a10.684,10.684,0,0,0-4.538,9.38l1.313,27.02H456.805l0.135-7.35a11.829,11.829,0,0,0-10.45-11.97l-8.886-1.01a1.935,1.935,0,0,1-1.407-.93,1.977,1.977,0,0,1,.179-2.28l0.9-1.08a4.238,4.238,0,0,0,.29-5.01l-2.173-3.32,1.128-.93a1.368,1.368,0,0,0,.49-1.01,1.346,1.346,0,0,0-.431-1.03l-1.621-1.51,1.744-4.58a3.007,3.007,0,0,0-2.8-4.09H432.79a1.977,1.977,0,0,1-1.607-3.11l7.748-11.04a1.355,1.355,0,0,0-2.034-1.77,2.825,2.825,0,0,1-.6-1.71,31.158,31.158,0,0,1,31.058-31.19c10.492,0,18.659,2.05,24.593,6.15-6.353,5.83-9.82,14.34-9.82,25.04,0,9.02,4.769,18.05,12.953,24.84A26.642,26.642,0,0,1,492.122,2903.56Zm11.695-24.62c0,7.96-2.407,14.9-6.862,20.15-7.651-6.28-12.123-14.6-12.123-22.86,0-9.99,3.321-17.9,9.376-23.27C500.628,2858.58,503.817,2867.19,503.817,2878.94Zm51.086,13.85a1.932,1.932,0,0,1-1.745,1.07h-1.112a3.007,3.007,0,0,0-2.8,4.09l1.744,4.58-1.621,1.51a1.346,1.346,0,0,0-.431,1.03,1.365,1.365,0,0,0,.49,1.01l1.128,0.93-2.173,3.32a4.238,4.238,0,0,0,.287,5.01l0.9,1.08a1.98,1.98,0,0,1,.179,2.28,1.945,1.945,0,0,1-1.368.93l-8.926,1.01a11.831,11.831,0,0,0-10.45,11.97l0.134,7.35H505.15l1.2-26.41a13.691,13.691,0,0,0-6.092-12c-0.391-.26-0.735-0.56-1.113-0.83,4.8-5.71,7.378-13.22,7.378-21.78,0-12.34-3.419-21.58-10.173-27.69,5.617-4.03,13.134-6.21,22.245-6.21a31.158,31.158,0,0,1,31.058,31.19,2.825,2.825,0,0,1-.6,1.71,1.355,1.355,0,0,0-2.034,1.77l7.746,11.04A1.94,1.94,0,0,1,554.9,2892.79Zm-24.387,50.02H503.737a1.489,1.489,0,0,1-1.485-1.56l1.261-27.83a10.823,10.823,0,0,0-4.824-9.49c-0.327-.22-0.633-0.46-0.928-0.69-0.159-.12-0.32-0.25-0.483-0.37a28.27,28.27,0,0,1-3.512,3,8.29,8.29,0,0,0-1.582,1.47,7.951,7.951,0,0,0-1.767,5.45l1.381,28.46a1.523,1.523,0,0,1-.408,1.1,1.5,1.5,0,0,1-1.076.46H455.43a1.467,1.467,0,0,1-1.06-.45,1.487,1.487,0,0,1-.425-1.07l0.16-8.73a8.975,8.975,0,0,0-7.933-9.09l-8.927-1.01a4.821,4.821,0,0,1-3.041-7.87l0.9-1.08a1.372,1.372,0,0,0,.095-1.62l-2.84-4.33a1.5,1.5,0,0,1,.295-1.97l0.754-.63-1.045-.97a1.48,1.48,0,0,1-.376-1.62l2.069-5.44a0.152,0.152,0,0,0-.017-0.15,0.163,0.163,0,0,0-.137-0.08H432.79a4.818,4.818,0,0,1-3.925-7.59l6.125-8.73a5.9,5.9,0,0,0-.494-0.92,5.657,5.657,0,0,1-1.03-3.23,34,34,0,0,1,33.893-34.04c11.311,0,20.311,2.37,26.75,7.04,6.263-4.67,14.5-7.04,24.481-7.04a34,34,0,0,1,33.893,34.04,5.63,5.63,0,0,1-1.029,3.23,5.827,5.827,0,0,0-.5.92l6.123,8.73a4.817,4.817,0,0,1-3.924,7.59h-1.11a0.153,0.153,0,0,0-.135.08,0.144,0.144,0,0,0-.021.15l2.071,5.44a1.482,1.482,0,0,1-.378,1.62l-1.044.97,0.754,0.63a1.5,1.5,0,0,1,.3,1.97l-2.844,4.33a1.382,1.382,0,0,0,.093,1.62l0.9,1.08a4.816,4.816,0,0,1-3,7.86l-8.967,1.02a8.974,8.974,0,0,0-7.936,9.09l0.158,8.73A1.489,1.489,0,0,1,530.516,2942.81Zm-33.265-40.29,0.093,0.07c0.2,0.14.39,0.29,0.583,0.44,0.29,0.22.593,0.46,0.909,0.67a11.109,11.109,0,0,1,4.946,9.73l-1.261,27.83a1.227,1.227,0,0,0,1.216,1.28h26.779a1.185,1.185,0,0,0,.868-0.37,1.206,1.206,0,0,0,.348-0.87l-0.158-8.73a9.247,9.247,0,0,1,8.173-9.37l8.964-1.02a4.5,4.5,0,0,0,3.242-2.16,4.564,4.564,0,0,0-.414-5.26l-0.9-1.08a1.647,1.647,0,0,1-.113-1.94l2.843-4.33a1.218,1.218,0,0,0-.243-1.61l-0.992-.82,1.272-1.19a1.221,1.221,0,0,0,.308-1.33l-2.07-5.43a0.432,0.432,0,0,1,.053-0.41,0.4,0.4,0,0,1,.356-0.19h1.11a4.546,4.546,0,0,0,3.7-7.17l-6.2-8.84,0.024-.07a5.928,5.928,0,0,1,.54-1.04,5.333,5.333,0,0,0,.992-3.08,33.736,33.736,0,0,0-33.624-33.77c-9.966,0-18.174,2.37-24.4,7.05l-0.079.06-0.08-.06c-6.4-4.68-15.372-7.05-26.673-7.05a33.736,33.736,0,0,0-33.624,33.77,5.418,5.418,0,0,0,.99,3.09,5.972,5.972,0,0,1,.544,1.03l0.025,0.07-6.207,8.84a4.549,4.549,0,0,0,3.7,7.17H433.9a0.417,0.417,0,0,1,.36.2,0.427,0.427,0,0,1,.047.4l-2.069,5.43a1.214,1.214,0,0,0,.307,1.33l1.27,1.19-0.992.82a1.222,1.222,0,0,0-.24,1.61l2.841,4.33a1.64,1.64,0,0,1-.115,1.94l-0.9,1.08a4.552,4.552,0,0,0,2.869,7.43l8.922,1.01a9.25,9.25,0,0,1,8.171,9.37l-0.16,8.73a1.223,1.223,0,0,0,.348.87,1.194,1.194,0,0,0,.868.37h34.884a1.224,1.224,0,0,0,.881-0.38,1.242,1.242,0,0,0,.334-0.9l-1.381-28.45a8.211,8.211,0,0,1,1.828-5.64,8.577,8.577,0,0,1,1.635-1.52,28.193,28.193,0,0,0,3.559-3.05Zm32.028,37.58H505.008l0.008-.14,1.195-26.42a13.551,13.551,0,0,0-6.032-11.88c-0.235-.15-0.454-0.32-0.665-0.48-0.15-.12-0.3-0.24-0.453-0.35l-0.119-.08,0.095-.12c4.805-5.72,7.345-13.22,7.345-21.69,0-12.22-3.407-21.51-10.127-27.59l-0.127-.12,0.137-.09c5.766-4.14,13.277-6.24,22.325-6.24a31.3,31.3,0,0,1,31.192,31.33,3.028,3.028,0,0,1-.614,1.79l-0.087.14-0.122-.12a1.218,1.218,0,0,0-1.83,1.59l7.746,11.04a2.075,2.075,0,0,1,.148,2.18h0a2.051,2.051,0,0,1-1.865,1.14h-1.11a2.879,2.879,0,0,0-2.677,3.91l1.775,4.67-1.685,1.56a1.266,1.266,0,0,0-.391.94,1.208,1.208,0,0,0,.443.9l1.221,1.02-2.239,3.41a4.1,4.1,0,0,0,.274,4.85l0.908,1.08a2.114,2.114,0,0,1-1.274,3.44l-8.93,1.01a11.653,11.653,0,0,0-8.015,4.62,11.78,11.78,0,0,0-2.316,7.21Zm-23.986-.27h23.712l-0.132-7.21a12.085,12.085,0,0,1,2.369-7.39,11.953,11.953,0,0,1,8.2-4.72l8.928-1.02a1.782,1.782,0,0,0,1.268-.86,1.843,1.843,0,0,0-.166-2.12l-0.907-1.09a4.367,4.367,0,0,1-.295-5.17l2.107-3.21-1.037-.86a1.492,1.492,0,0,1-.063-2.24l1.553-1.45-1.711-4.49a3.154,3.154,0,0,1,2.93-4.28h1.11a1.788,1.788,0,0,0,1.622-.99h0a1.806,1.806,0,0,0-.13-1.9l-7.745-11.04a1.5,1.5,0,0,1,.356-2.08,1.479,1.479,0,0,1,1.756.03,2.557,2.557,0,0,0,.493-1.51,31.031,31.031,0,0,0-30.923-31.06c-8.919,0-16.33,2.05-22.029,6.09,6.7,6.14,10.09,15.45,10.09,27.68,0,8.48-2.529,16-7.316,21.76,0.116,0.08.23,0.17,0.345,0.26,0.206,0.16.423,0.33,0.647,0.48a13.818,13.818,0,0,1,6.153,12.12Zm-16.254.27H456.668l0.137-7.49a11.767,11.767,0,0,0-2.315-7.21,11.646,11.646,0,0,0-8.015-4.62l-8.887-1.01a2.107,2.107,0,0,1-1.315-3.44l0.9-1.08a4.1,4.1,0,0,0,.28-4.85l-2.239-3.41,1.221-1.02a1.214,1.214,0,0,0,.442-0.9,1.26,1.26,0,0,0-.389-0.94l-1.687-1.56,0.032-.09,1.743-4.58a2.879,2.879,0,0,0-2.675-3.91H432.79a2.053,2.053,0,0,1-1.864-1.14,2.076,2.076,0,0,1,.147-2.18l7.747-11.04a1.218,1.218,0,0,0-1.829-1.59l-0.122.12-0.087-.14a3,3,0,0,1-.615-1.79,31.3,31.3,0,0,1,31.192-31.33c10.445,0,18.746,2.08,24.669,6.18l0.14,0.1-0.125.11c-6.4,5.87-9.777,14.49-9.777,24.94,0,8.91,4.7,17.93,12.9,24.73l0.117,0.1-0.109.11a28.026,28.026,0,0,1-2.979,2.5h0a10.415,10.415,0,0,0-2.11,1.96,10.651,10.651,0,0,0-2.371,7.3Zm-32.1-.27h31.811l-1.3-26.89a10.785,10.785,0,0,1,4.594-9.49h0a26.152,26.152,0,0,0,2.838-2.38c-8.19-6.84-12.885-15.89-12.885-24.84,0-10.46,3.365-19.11,9.739-25.02-5.87-4-14.071-6.04-24.377-6.04a31.031,31.031,0,0,0-30.923,31.06,2.551,2.551,0,0,0,.494,1.51,1.486,1.486,0,0,1,2.361.93,1.5,1.5,0,0,1-.25,1.12l-7.747,11.04a1.835,1.835,0,0,0,1.5,2.89H433.9a3.154,3.154,0,0,1,2.928,4.28l-1.711,4.49,1.554,1.45a1.492,1.492,0,0,1-.065,2.24l-1.035.86,2.108,3.21a4.387,4.387,0,0,1-.3,5.18l-0.9,1.08a1.836,1.836,0,0,0-.166,2.12,1.808,1.808,0,0,0,1.309.87l8.884,1.01a11.953,11.953,0,0,1,8.2,4.72,12.093,12.093,0,0,1,2.368,7.39Zm40.026-40.55-0.1-.08c-7.735-6.36-12.171-14.73-12.171-22.97,0-9.83,3.257-17.91,9.42-23.37l0.09-.08,0.088,0.08c6.5,5.68,9.654,14.22,9.654,26.08,0,7.93-2.384,14.93-6.893,20.24Zm-2.761-46.14c-6.046,5.41-9.241,13.39-9.241,23.09,0,8.12,4.361,16.38,11.971,22.67,4.412-5.25,6.743-12.14,6.743-19.96C503.681,2867.21,500.582,2858.77,494.208,2853.14Zm47.518,25.93c-0.22-.05-5.4-1.19-8.924,2.48a1.357,1.357,0,0,0,.972,2.3,1.332,1.332,0,0,0,.971-0.42,6.875,6.875,0,0,1,5.331-1.84v0.28a1.35,1.35,0,1,0,2.7,0v-1.48A1.353,1.353,0,0,0,541.726,2879.07Zm-7.952,4.91a1.463,1.463,0,0,1-1.032-.41,1.5,1.5,0,0,1-.039-2.11c3.581-3.73,8.835-2.58,9.051-2.52h0a1.473,1.473,0,0,1,1.155,1.45v1.48a1.485,1.485,0,1,1-2.969,0v-0.15a6.719,6.719,0,0,0-5.1,1.81A1.487,1.487,0,0,1,533.774,2883.98Zm5.818-4.98a9.092,9.092,0,0,0-6.694,2.65,1.217,1.217,0,0,0,.034,1.72,1.216,1.216,0,0,0,1.717-.03,6.826,6.826,0,0,1,4.979-1.9c0.161,0,.314.01,0.454,0.01l0.127,0.01v0.41a1.216,1.216,0,1,0,2.431,0v-1.48a1.217,1.217,0,0,0-.944-1.19h0A10.21,10.21,0,0,0,539.592,2879Zm-14.055,36.97c-4.923,0-7.759-5.08-7.787-5.13a1.35,1.35,0,0,0-2.372,1.29c0.144,0.27,3.611,6.56,10.159,6.56A1.36,1.36,0,0,0,525.537,2915.97Zm0,2.85c-6.672,0-10.135-6.35-10.278-6.62a1.488,1.488,0,0,1,2.611-1.43c0.029,0.05,2.817,5.07,7.667,5.07A1.49,1.49,0,0,1,525.537,2918.82Zm-8.975-8.55a1.218,1.218,0,0,0-1.065,1.8c0.142,0.26,3.526,6.48,10.04,6.48a1.22,1.22,0,0,0,0-2.44c-5,0-7.88-5.16-7.907-5.21A1.218,1.218,0,0,0,516.562,2910.27Zm-72.34-31.2a1.354,1.354,0,0,0-1.049,1.32v1.48a1.35,1.35,0,1,0,2.7,0v-0.28a6.925,6.925,0,0,1,5.331,1.84,1.332,1.332,0,0,0,.971.42,1.357,1.357,0,0,0,.972-2.3C449.618,2877.88,444.443,2879.02,444.222,2879.07Zm7.953,4.91a1.479,1.479,0,0,1-1.069-.45,6.651,6.651,0,0,0-5.1-1.81v0.15a1.485,1.485,0,1,1-2.97,0v-1.48a1.474,1.474,0,0,1,1.154-1.45l0.03,0.13-0.03-.13c0.226-.05,5.477-1.2,9.053,2.52a1.5,1.5,0,0,1-.038,2.11A1.463,1.463,0,0,1,452.175,2883.98Zm-5.914-2.53a6.779,6.779,0,0,1,5.04,1.89,1.242,1.242,0,0,0,1.718.03,1.218,1.218,0,0,0,.031-1.72c-3.474-3.61-8.582-2.5-8.8-2.45a1.218,1.218,0,0,0-.946,1.19v1.48a1.216,1.216,0,1,0,2.432,0v-0.41l0.129-.01h0.393Zm23.767,28.84a1.354,1.354,0,0,0-1.831.55c-0.027.05-2.827,5.13-7.785,5.13a1.36,1.36,0,0,0,0,2.72c6.548,0,10.015-6.29,10.159-6.56A1.361,1.361,0,0,0,470.028,2910.29Zm-9.616,8.53a1.49,1.49,0,0,1,0-2.98c4.911,0,7.639-5.01,7.665-5.06a1.5,1.5,0,0,1,2.015-.61,1.525,1.525,0,0,1,.716.89,1.5,1.5,0,0,1-.118,1.14C470.545,2912.47,467.053,2918.82,460.412,2918.82Zm8.975-8.56a1.053,1.053,0,0,0-.348.06,1.205,1.205,0,0,0-.723.58c-0.026.05-2.863,5.21-7.9,5.21a1.22,1.22,0,0,0,0,2.44c6.481,0,9.9-6.22,10.04-6.48a1.209,1.209,0,0,0,.1-0.93,1.236,1.236,0,0,0-.585-0.73A1.3,1.3,0,0,0,469.387,2910.26Z" transform="translate(-427.969 -2842.19)"/>
</svg>
