<svg xmlns="http://www.w3.org/2000/svg" width="26.97" height="21.97" viewBox="0 0 26.97 21.97">
  <metadata><?xpacket begin="﻿" id="W5M0MpCehiHzreSzNTczkc9d"?>
<x:xmpmeta xmlns:x="adobe:ns:meta/" x:xmptk="Adobe XMP Core 5.6-c138 79.159824, 2016/09/14-01:09:01        ">
   <rdf:RDF xmlns:rdf="http://www.w3.org/1999/02/22-rdf-syntax-ns#">
      <rdf:Description rdf:about=""/>
   </rdf:RDF>
</x:xmpmeta>
                                                                                                    
                                                                                                    
                                                                                                    
                                                                                                    
                                                                                                    
                                                                                                    
                                                                                                    
                                                                                                    
                                                                                                    
                                                                                                    
                                                                                                    
                                                                                                    
                                                                                                    
                                                                                                    
                                                                                                    
                                                                                                    
                                                                                                    
                                                                                                    
                                                                                                    
                                                                                                    
                           
<?xpacket end="w"?></metadata>
<defs>
    <style>
      .cls-1 {
        fill: #fff;
        fill-rule: evenodd;
      }
    </style>
  </defs>
  <path id="icon_twitter" class="cls-1" d="M1136.78,4486.41a10.945,10.945,0,0,1-3.18.88,5.6,5.6,0,0,0,2.44-3.07,11.024,11.024,0,0,1-3.52,1.34,5.533,5.533,0,0,0-9.57,3.8,5.792,5.792,0,0,0,.14,1.26,15.7,15.7,0,0,1-11.4-5.79,5.555,5.555,0,0,0,1.71,7.4,5.6,5.6,0,0,1-2.51-.69v0.07a5.549,5.549,0,0,0,4.44,5.44,5.782,5.782,0,0,1-1.46.19,5.165,5.165,0,0,1-1.04-.1,5.546,5.546,0,0,0,5.17,3.85,11.067,11.067,0,0,1-6.87,2.38,11.412,11.412,0,0,1-1.32-.08,15.673,15.673,0,0,0,8.48,2.49c10.18,0,15.75-8.45,15.75-15.78,0-.24-0.01-0.48-0.02-0.72A11.083,11.083,0,0,0,1136.78,4486.41Z" transform="translate(-1109.81 -4483.81)"/>
</svg>
