<svg xmlns="http://www.w3.org/2000/svg" width="40" height="19.562" viewBox="0 0 40 19.562">
  <metadata><?xpacket begin="﻿" id="W5M0MpCehiHzreSzNTczkc9d"?>
<x:xmpmeta xmlns:x="adobe:ns:meta/" x:xmptk="Adobe XMP Core 5.6-c138 79.159824, 2016/09/14-01:09:01        ">
   <rdf:RDF xmlns:rdf="http://www.w3.org/1999/02/22-rdf-syntax-ns#">
      <rdf:Description rdf:about=""/>
   </rdf:RDF>
</x:xmpmeta>
                                                                                                    
                                                                                                    
                                                                                                    
                                                                                                    
                                                                                                    
                                                                                                    
                                                                                                    
                                                                                                    
                                                                                                    
                                                                                                    
                                                                                                    
                                                                                                    
                                                                                                    
                                                                                                    
                                                                                                    
                                                                                                    
                                                                                                    
                                                                                                    
                                                                                                    
                                                                                                    
                           
<?xpacket end="w"?></metadata>
<defs>
    <style>
      .cls-1 {
        fill-rule: evenodd;
      }
    </style>
  </defs>
  <path id="icon_attach" class="cls-1" d="M991.832,933.777l-21.6-.036h0a8.067,8.067,0,0,1-4.414-1.4A6.52,6.52,0,0,1,963,926.712a6.614,6.614,0,0,1,2.617-5.673,7.887,7.887,0,0,1,4.494-1.385h0l21.724,0.034a5.544,5.544,0,0,1,3.981,1.287,4.387,4.387,0,0,1,1.192,3.241c0,2.562-1.937,4.094-5.184,4.1l-21.63.011h0a1.332,1.332,0,1,1,0-2.664l21.63-.011c2.512,0,2.512-1,2.511-1.433a1.87,1.87,0,0,0-.409-1.357,3.194,3.194,0,0,0-2.091-.508l-21.725-.034h0a5.144,5.144,0,0,0-2.914.872,4.077,4.077,0,0,0-1.522,3.523,3.941,3.941,0,0,0,1.668,3.448,5.415,5.415,0,0,0,2.887.917h0l21.6,0.036c3.167,0,8.486-.938,8.486-7.2,0-5.812-4.612-7.032-8.481-7.032l-17.9.057h0a1.332,1.332,0,1,1,0-2.664l17.905-.057c7.092,0,11.155,3.534,11.155,9.7S998.82,933.774,991.832,933.777Z" transform="translate(-963 -914.219)"/>
</svg>
