<svg xmlns="http://www.w3.org/2000/svg" viewBox="0 0 125 276.28"><defs><style>.cls-1{fill:#fff;}</style></defs><title>icon_hand</title><g id="Слой_2" data-name="Слой 2"><g id="Слой_1-2" data-name="Слой 1"><path class="cls-1" d="M89.88,33.28V4.47H4.47V166.22H60l-8.42-16.38a10,10,0,1,1,17.84-9.09l14.81,25.46h36.34V35.12H91.72A1.85,1.85,0,0,1,89.88,33.28Zm13.71,60.87H49.89a1.84,1.84,0,0,1,0-3.69h53.7a1.84,1.84,0,1,1,0,3.69Zm0-10.1H25.74a1.84,1.84,0,1,1,0-3.69h77.85a1.84,1.84,0,1,1,0,3.69Zm0-10.06-77.85.16a1.84,1.84,0,1,1,0-3.69l77.85-.16h0a1.84,1.84,0,1,1,0,3.69Zm0-10.1H25.74a1.84,1.84,0,1,1,0-3.69h77.85a1.84,1.84,0,1,1,0,3.69Zm1.85-11.94a1.85,1.85,0,0,1-1.85,1.84H25.74a1.84,1.84,0,1,1,0-3.69h77.85A1.85,1.85,0,0,1,105.44,51.95Z"/><path class="cls-1" d="M101.57,273.66V263.51c-1.32.72-2.72,1.45-4.28,2.2a1.81,1.81,0,0,1-.79.18,1.84,1.84,0,0,1-.8-3.51c2.35-1.12,4.28-2.16,5.87-3.1V249c-1.32.72-2.72,1.45-4.28,2.2a1.77,1.77,0,0,1-.79.18,1.84,1.84,0,0,1-.8-3.51c2.35-1.12,4.28-2.16,5.87-3.1v-9.54c-1.32.72-2.72,1.45-4.28,2.2a1.81,1.81,0,0,1-.79.18,1.84,1.84,0,0,1-.8-3.51C98,233,100,232,101.57,231V169.9H88.78a12.83,12.83,0,0,1,3.1,7.66,1.84,1.84,0,0,1-1.67,2H90a1.84,1.84,0,0,1-1.84-1.68c-.57-6.4-5.25-7.64-5.29-7.66h0a1.85,1.85,0,0,1-1.15-.86l-12.9-22.19a2,2,0,0,1-1,.88l-6.5,2.45a2,2,0,0,1-.7.13,2,2,0,0,1-1.76-1.06c-2.52-4.75-2.06-8-1.15-10l-.14.05a6.33,6.33,0,0,0-2.77,8.5l9.85,19.16,0,0,2,3.87a1.85,1.85,0,0,1-.76,2.47c-1.05.58-25.78,14.54-14.47,47.15a1.84,1.84,0,0,1-1.14,2.34,1.77,1.77,0,0,1-.6.1A1.84,1.84,0,0,1,48,222.06c-10.66-30.73,8.9-46.72,14.67-50.64l-.78-1.51H28.36c-2.74,16.42-3.33,45.51,19.72,67.4H63.81a1.84,1.84,0,1,1,0,3.69H48.51v3.81h7.42a1.84,1.84,0,1,1,0,3.68H48.51v25.17a1.84,1.84,0,0,1-1.84,1.85h56.74A1.85,1.85,0,0,1,101.57,273.66Z"/><polygon class="cls-1" points="93.57 31.43 117.93 31.43 93.57 7.08 93.57 31.43"/><path class="cls-1" d="M62.56,139.36a2,2,0,0,1-.67,1.1c-.14.12-1.77,1.7-.22,5.66l4.77-1.79a2,2,0,0,1,.68-.11l-1-1.7A6.44,6.44,0,0,0,62.56,139.36Z"/><path d="M90,179.57a1.84,1.84,0,0,1-1.84-1.68c-.57-6.4-5.25-7.64-5.29-7.66a1.84,1.84,0,1,1,.9-3.58c.3.07,7.27,1.92,8.07,10.9a1.84,1.84,0,0,1-1.67,2Z"/><path d="M90,180.35A2.61,2.61,0,0,1,87.43,178c-.51-5.74-4.55-6.93-4.72-7A2.62,2.62,0,0,1,84,165.9c.32.08,7.81,2.08,8.66,11.59a2.63,2.63,0,0,1-2.37,2.85Zm-6.68-13a1.06,1.06,0,0,0-.26,2.1c.23.06,5.27,1.53,5.88,8.34a1.07,1.07,0,0,0,1.06,1v.78l.12-.79a1.06,1.06,0,0,0,.93-1.15c-.75-8.42-7.21-10.15-7.48-10.22A1.13,1.13,0,0,0,83.36,167.38Z"/><path d="M103.41,275.5a1.85,1.85,0,0,1-1.85-1.85V168.06a1.85,1.85,0,0,1,3.69,0v105.6A1.84,1.84,0,0,1,103.41,275.5Z"/><path d="M103.41,276.28a2.63,2.63,0,0,1-2.62-2.62V168.06a2.62,2.62,0,0,1,5.25,0v105.6A2.63,2.63,0,0,1,103.41,276.28Zm0-109.28a1.07,1.07,0,0,0-1.07,1.06V273.66a1.07,1.07,0,0,0,2.13,0V168.06A1.07,1.07,0,0,0,103.41,167Z"/><path d="M46.67,275.5a1.84,1.84,0,0,1-1.84-1.85V239.14a1.84,1.84,0,1,1,3.68,0v34.51A1.84,1.84,0,0,1,46.67,275.5Z"/><path d="M46.67,276.28A2.63,2.63,0,0,1,44,273.66V239.14a2.62,2.62,0,0,1,5.24,0v34.51A2.63,2.63,0,0,1,46.67,276.28Zm0-38.2a1.06,1.06,0,0,0-1.06,1.06v34.51a1.06,1.06,0,1,0,2.13,0V239.14A1.07,1.07,0,0,0,46.67,238.08Z"/><path d="M44.83,273.31c0-1.21,1.31-2.19,2.92-2.19h54.6c1.61,0,2.91,1,2.91,2.19s-1.31,2.19-2.91,2.19H47.75C46.13,275.5,44.83,274.52,44.83,273.31Z"/><path d="M102.34,276.28H47.75c-2.07,0-3.7-1.31-3.7-3s1.62-3,3.7-3h54.6c2.07,0,3.69,1.31,3.69,3S104.38,276.28,102.34,276.28Zm-54.6-4.39c-1.16,0-2.14.65-2.14,1.42s1,1.41,2.14,1.41h54.6c1.16,0,2.13-.65,2.13-1.41s-1-1.42-2.13-1.42Z"/><path d="M55.93,248.48H46.67a1.84,1.84,0,0,1,0-3.68h9.27a1.84,1.84,0,1,1,0,3.68Z"/><path d="M55.93,249.26H46.67a2.62,2.62,0,0,1,0-5.24h9.27a2.62,2.62,0,1,1,0,5.24Zm-9.27-3.68a1.06,1.06,0,0,0,0,2.12h9.27a1.06,1.06,0,1,0,0-2.12Z"/><path d="M96.49,237.66a1.84,1.84,0,0,1-.8-3.51c12.57-6,13.22-9.51,13.13-10.43-.21-1.95-4.09-3.51-5.84-3.93a1.84,1.84,0,0,1,.85-3.59c.83.2,8.12,2.07,8.65,7.12.48,4.47-4.35,9-15.2,14.15A1.81,1.81,0,0,1,96.49,237.66Z"/><path d="M96.5,238.44a2.63,2.63,0,0,1-2.48-3.5,2.61,2.61,0,0,1,1.35-1.49c12.67-6.06,12.72-9.3,12.69-9.65-.13-1.25-3.19-2.76-5.25-3.25a2.62,2.62,0,1,1,1.21-5.1c.88.21,8.65,2.19,9.25,7.8.51,4.84-4.46,9.59-15.65,14.94A2.62,2.62,0,0,1,96.5,238.44Zm6.9-21.51a1,1,0,0,0-.55.16,1.06,1.06,0,0,0,.31,1.94c1.59.38,6.16,2,6.44,4.61.17,1.69-1.36,5.39-13.57,11.22a1.06,1.06,0,0,0-.5,1.42,1.07,1.07,0,0,0,1.42.5c10.36-5,15.19-9.32,14.76-13.36-.49-4.62-7.74-6.37-8.05-6.45A1.09,1.09,0,0,0,103.4,216.93Z"/><path d="M96.49,251.43a1.84,1.84,0,0,1-.8-3.51c12.57-6,13.22-9.5,13.13-10.43-.21-2-4-3.49-5.84-3.93a1.84,1.84,0,0,1,.85-3.59c.83.2,8.11,2.07,8.65,7.12.48,4.47-4.35,9-15.2,14.15A1.77,1.77,0,0,1,96.49,251.43Z"/><path d="M96.5,252.21a2.64,2.64,0,0,1-2.37-1.49,2.62,2.62,0,0,1,1.24-3.5c12.67-6.06,12.72-9.3,12.69-9.65-.13-1.26-3.14-2.75-5.25-3.25a2.62,2.62,0,0,1-1.94-3.16,2.63,2.63,0,0,1,3.16-1.94c.88.21,8.65,2.19,9.25,7.8.51,4.84-4.46,9.59-15.65,14.94A2.55,2.55,0,0,1,96.5,252.21Zm6.91-21.51a1.06,1.06,0,0,0-1,.82,1.06,1.06,0,0,0,.79,1.28c1.7.41,6.16,2,6.44,4.61.17,1.69-1.36,5.38-13.57,11.22a1.06,1.06,0,0,0-.5,1.42,1.07,1.07,0,0,0,1.41.5c10.37-5,15.19-9.33,14.77-13.37-.49-4.62-7.74-6.37-8.05-6.45Z"/><path d="M96.49,265.89a1.84,1.84,0,0,1-.8-3.51c12.57-6,13.22-9.51,13.13-10.43-.21-1.95-4.09-3.51-5.84-3.93a1.84,1.84,0,0,1,.85-3.59c.83.2,8.12,2.07,8.65,7.12.48,4.47-4.35,9-15.2,14.15A1.81,1.81,0,0,1,96.49,265.89Z"/><path d="M96.5,266.67a2.62,2.62,0,0,1-1.14-5c12.67-6.06,12.73-9.3,12.69-9.65-.13-1.25-3.19-2.76-5.24-3.25a2.63,2.63,0,0,1-1.95-3.16A2.59,2.59,0,0,1,102,244a2.56,2.56,0,0,1,2-.32c.89.21,8.66,2.22,9.25,7.8.51,4.84-4.46,9.59-15.65,14.94A2.55,2.55,0,0,1,96.5,266.67Zm6.92-21.51a1.06,1.06,0,0,0-1,.82,1.07,1.07,0,0,0,.79,1.28c1.58.37,6.16,2,6.43,4.6.17,1.69-1.36,5.39-13.57,11.22a1.06,1.06,0,0,0-.54.61,1,1,0,0,0,0,.81,1.07,1.07,0,0,0,1.41.51c10.37-5,15.19-9.33,14.77-13.37-.47-4.51-7.28-6.26-8.06-6.45Z"/><path d="M49.71,223.29A1.84,1.84,0,0,1,48,222.06c-10.66-30.73,8.9-46.72,14.67-50.64L51.54,149.84a10,10,0,1,1,17.84-9.09l15.57,26.76a1.85,1.85,0,0,1-3.19,1.85L66.14,142.52a6.32,6.32,0,1,0-11.32,5.64l11.86,23.07a1.85,1.85,0,0,1-.76,2.47c-1.05.58-25.78,14.54-14.47,47.15a1.84,1.84,0,0,1-1.14,2.34A1.77,1.77,0,0,1,49.71,223.29Z"/><path d="M49.71,224.07a2.62,2.62,0,0,1-2.48-1.76c-10.47-30.19,7.64-46.36,14.4-51.14l-10.78-21a10.79,10.79,0,1,1,19.22-9.8l15.55,26.72a2.63,2.63,0,0,1-.95,3.59,2.64,2.64,0,0,1-3.59-.95L65.47,142.91a5.62,5.62,0,0,0-7.52-2.55,5.55,5.55,0,0,0-2.43,7.45l11.85,23.06a2.61,2.61,0,0,1-1.08,3.51c-1,.56-25.19,14.24-14.11,46.22a2.61,2.61,0,0,1-2.47,3.48Zm10.73-88a9.16,9.16,0,0,0-4.16,1,9.25,9.25,0,0,0-4,12.42l11.41,22.18-.57.39c-6,4.07-24.78,19.71-14.37,49.74a1.11,1.11,0,0,0,1.35.66,1,1,0,0,0,.61-.54,1.05,1.05,0,0,0,0-.81C39.19,187.9,64.46,173.6,65.54,173a1.06,1.06,0,0,0,.44-1.43L54.13,148.52A7.1,7.1,0,0,1,57.23,139a7.17,7.17,0,0,1,9.6,3.2L82.42,169a1.08,1.08,0,0,0,1.46.39,1.06,1.06,0,0,0,.49-.65,1,1,0,0,0-.11-.81L68.7,141.15A9.27,9.27,0,0,0,60.44,136.07Z"/><path d="M60.64,150.64a2,2,0,0,1-1.76-1.06c-4.43-8.35.35-12.11.56-12.26a2,2,0,0,1,2.45,3.15c-.14.12-1.77,1.7-.22,5.66l4.77-1.79a2,2,0,0,1,1.41,3.73l-6.5,2.45A2,2,0,0,1,60.64,150.64Z"/><path d="M60.64,151.42a2.77,2.77,0,0,1-2.45-1.47c-4.76-9,.55-13.08.78-13.25a2.7,2.7,0,0,1,2-.53,2.77,2.77,0,0,1,1.35,4.92s-1.16,1.11-.23,4l4-1.51a2.77,2.77,0,0,1,3.57,1.62,2.78,2.78,0,0,1-1.62,3.57l-6.5,2.44A2.71,2.71,0,0,1,60.64,151.42Zm0-13.72a1.21,1.21,0,0,0-.73.25c-.19.14-4.47,3.48-.34,11.27a1.26,1.26,0,0,0,1.5.57l6.51-2.45a1.22,1.22,0,0,0,.71-1.57,1.2,1.2,0,0,0-1.56-.71l-5.49,2.07-.28-.72c-1.73-4.41.19-6.32.42-6.52a1.24,1.24,0,0,0,.24-1.72,1.21,1.21,0,0,0-.8-.47Z"/><path d="M63.8,241H47.34a1.84,1.84,0,0,1-1.25-.5C20.5,216.69,21.88,184.69,25,167.73a1.84,1.84,0,1,1,3.63.66c-2.94,16.1-4.29,46.35,19.47,68.91H63.81a1.84,1.84,0,1,1,0,3.69Z"/><path d="M63.8,241.77H47.34a2.62,2.62,0,0,1-1.78-.7C19.7,217,21.09,184.71,24.21,167.59a2.62,2.62,0,0,1,1.1-1.69,2.58,2.58,0,0,1,2-.42,2.63,2.63,0,0,1,2.11,3c-2.89,15.84-4.25,45.7,19,68H63.81a2.62,2.62,0,1,1,0,5.25ZM26.79,167a1,1,0,0,0-.59.19,1.06,1.06,0,0,0-.45.69c-3.07,16.8-4.44,48.5,20.87,72.05a1.07,1.07,0,0,0,.72.29H63.8a1.07,1.07,0,1,0,0-2.13h-16l-.23-.21c-24-22.82-22.65-53.41-19.7-69.61A1.07,1.07,0,0,0,27,167Z"/><path d="M123.68,32,93,1.32A1.84,1.84,0,0,0,91.72.78H2.62A1.84,1.84,0,0,0,.78,2.62V168.06a1.84,1.84,0,0,0,1.84,1.84H63a1.84,1.84,0,1,0,0-3.68H4.46V4.47H89.88V33.28a1.85,1.85,0,0,0,1.85,1.85h28.81v131.1H83.35a1.84,1.84,0,1,0,0,3.68h39a1.84,1.84,0,0,0,1.84-1.84V33.28A1.85,1.85,0,0,0,123.68,32ZM93.57,7.08l24.36,24.36H93.57Z"/><path d="M122.38,170.68h-39a2.62,2.62,0,1,1,0-5.24h36.4V35.9h-28a2.63,2.63,0,0,1-2.62-2.62v-28H5.24V165.44H63a2.62,2.62,0,1,1,0,5.24H2.62A2.62,2.62,0,0,1,0,168.06V2.62A2.62,2.62,0,0,1,2.62,0h89.1a2.62,2.62,0,0,1,1.86.77l30.65,30.66a2.61,2.61,0,0,1,.77,1.86V168.06A2.62,2.62,0,0,1,122.38,170.68Zm-39-3.69a1.06,1.06,0,1,0,0,2.13h39a1.07,1.07,0,0,0,1.06-1.06V33.28a1.06,1.06,0,0,0-.31-.76L92.48,1.87a1.07,1.07,0,0,0-.76-.31H2.62A1.07,1.07,0,0,0,1.56,2.62V168.06a1.06,1.06,0,0,0,1.06,1.06H63A1.06,1.06,0,1,0,63,167H3.68V3.69h87V33.28a1.07,1.07,0,0,0,1.07,1.07h29.59V167ZM119.81,32.21h-27V5.2ZM94.35,30.65H116L94.35,9Z"/><path d="M103.59,53.79H25.74a1.84,1.84,0,1,1,0-3.69h77.85a1.84,1.84,0,1,1,0,3.69Z"/><path d="M103.59,54.57H25.74a2.62,2.62,0,1,1,0-5.25h77.85a2.62,2.62,0,1,1,0,5.25ZM25.74,50.88a1.06,1.06,0,1,0,0,2.13h77.85a1.06,1.06,0,1,0,0-2.13Z"/><path d="M103.59,63.89H25.74a1.84,1.84,0,1,1,0-3.69h77.85a1.84,1.84,0,1,1,0,3.69Z"/><path d="M103.59,64.67H25.74a2.62,2.62,0,1,1,0-5.25h77.85a2.62,2.62,0,1,1,0,5.25ZM25.74,61a1.06,1.06,0,1,0,0,2.13h77.85a1.06,1.06,0,1,0,0-2.13Z"/><path d="M103.59,84H25.74a1.84,1.84,0,1,1,0-3.69h77.85a1.84,1.84,0,1,1,0,3.69Z"/><path d="M103.59,84.83H25.74a2.62,2.62,0,1,1,0-5.25h77.85a2.62,2.62,0,1,1,0,5.25ZM25.74,81.14a1.06,1.06,0,1,0,0,2.13h77.85a1.06,1.06,0,1,0,0-2.13Z"/><path d="M103.59,94.15H49.89a1.84,1.84,0,0,1,0-3.69h53.7a1.84,1.84,0,1,1,0,3.69Z"/><path d="M103.59,94.93H49.89a2.62,2.62,0,0,1,0-5.25h53.7a2.62,2.62,0,1,1,0,5.25Zm-53.7-3.69a1.06,1.06,0,0,0,0,2.13h53.7a1.06,1.06,0,1,0,0-2.13Z"/><path d="M25.74,74.15a1.84,1.84,0,1,1,0-3.69l77.85-.16h0a1.84,1.84,0,1,1,0,3.69l-77.85.16Z"/><path d="M25.74,74.93h0a2.62,2.62,0,1,1,0-5.25l77.85-.16a2.62,2.62,0,1,1,0,5.25Zm77.84-3.85-77.85.16a1.06,1.06,0,1,0,0,2.13l77.85-.16a1.06,1.06,0,1,0,0-2.13Z"/></g></g></svg>