<svg xmlns="http://www.w3.org/2000/svg" width="24" height="23" viewBox="0 0 24 23">
  <metadata><?xpacket begin="﻿" id="W5M0MpCehiHzreSzNTczkc9d"?>
<x:xmpmeta xmlns:x="adobe:ns:meta/" x:xmptk="Adobe XMP Core 5.6-c138 79.159824, 2016/09/14-01:09:01        ">
   <rdf:RDF xmlns:rdf="http://www.w3.org/1999/02/22-rdf-syntax-ns#">
      <rdf:Description rdf:about=""/>
   </rdf:RDF>
</x:xmpmeta>
                                                                                                    
                                                                                                    
                                                                                                    
                                                                                                    
                                                                                                    
                                                                                                    
                                                                                                    
                                                                                                    
                                                                                                    
                                                                                                    
                                                                                                    
                                                                                                    
                                                                                                    
                                                                                                    
                                                                                                    
                                                                                                    
                                                                                                    
                                                                                                    
                                                                                                    
                                                                                                    
                           
<?xpacket end="w"?></metadata>
<defs>
    <style>
      .cls-1 {
        fill: #fff;
        fill-rule: evenodd;
      }
    </style>
  </defs>
  <path id="icon_linkedin" class="cls-1" d="M1030.01,4498.11v8.9h-5.15v-8.3c0-2.09-.74-3.51-2.6-3.51a2.8,2.8,0,0,0-2.64,1.89,3.423,3.423,0,0,0-.18,1.26v8.66h-5.14s0.07-14.06,0-15.52h5.14v2.2a0.219,0.219,0,0,1-.03.05h0.03v-0.05a5.133,5.133,0,0,1,4.64-2.56C1027.47,4491.13,1030.01,4493.35,1030.01,4498.11Zm-21.1-14.1a2.692,2.692,0,1,0-.06,5.37h0.03A2.693,2.693,0,1,0,1008.91,4484.01Zm-2.6,23h5.14v-15.52h-5.14v15.52Z" transform="translate(-1006 -4484)"/>
</svg>
