<svg xmlns="http://www.w3.org/2000/svg" width="99" height="98.96" viewBox="0 0 99 98.96">
  <metadata><?xpacket begin="﻿" id="W5M0MpCehiHzreSzNTczkc9d"?>
<x:xmpmeta xmlns:x="adobe:ns:meta/" x:xmptk="Adobe XMP Core 5.6-c138 79.159824, 2016/09/14-01:09:01        ">
   <rdf:RDF xmlns:rdf="http://www.w3.org/1999/02/22-rdf-syntax-ns#">
      <rdf:Description rdf:about=""/>
   </rdf:RDF>
</x:xmpmeta>
                                                                                                    
                                                                                                    
                                                                                                    
                                                                                                    
                                                                                                    
                                                                                                    
                                                                                                    
                                                                                                    
                                                                                                    
                                                                                                    
                                                                                                    
                                                                                                    
                                                                                                    
                                                                                                    
                                                                                                    
                                                                                                    
                                                                                                    
                                                                                                    
                                                                                                    
                                                                                                    
                           
<?xpacket end="w"?></metadata>
<defs>
    <style>
      .cls-1 {
        fill: #fff;
        fill-rule: evenodd;
      }
    </style>
  </defs>
  <path id="icon_bilding" class="cls-1" d="M810.66,2904.79a1.765,1.765,0,0,0,1.246-3.03,1.721,1.721,0,0,0-2.492,0,1.621,1.621,0,0,0-.534,1.25A1.836,1.836,0,0,0,810.66,2904.79Zm10.681-3.56a1.78,1.78,0,1,1-1.78,1.78A1.776,1.776,0,0,1,821.341,2901.23Zm10.681,3.56a1.765,1.765,0,0,0,1.246-3.03,1.721,1.721,0,0,0-2.492,0,1.621,1.621,0,0,0-.534,1.25A1.836,1.836,0,0,0,832.022,2904.79Zm-21.362-17.81a1.6,1.6,0,0,0,1.246-.53,1.621,1.621,0,0,0,.534-1.25,1.6,1.6,0,0,0-.534-1.24,1.724,1.724,0,0,0-2.492,0,1.909,1.909,0,0,0-.534,1.24,1.621,1.621,0,0,0,.534,1.25A1.6,1.6,0,0,0,810.66,2886.98Zm10.681-3.56a1.78,1.78,0,1,1-1.78,1.78A1.782,1.782,0,0,1,821.341,2883.42Zm10.681,3.56a1.6,1.6,0,0,0,1.246-.53,1.621,1.621,0,0,0,.534-1.25,1.6,1.6,0,0,0-.534-1.24,1.724,1.724,0,0,0-2.492,0,1.909,1.909,0,0,0-.534,1.24,1.621,1.621,0,0,0,.534,1.25A1.6,1.6,0,0,0,832.022,2886.98Zm-21.362-17.8a1.818,1.818,0,0,0,1.78-1.78,1.6,1.6,0,0,0-.534-1.24,1.708,1.708,0,0,0-2.492,0,1.6,1.6,0,0,0-.534,1.24A1.818,1.818,0,0,0,810.66,2869.18Zm10.681-3.56a1.78,1.78,0,1,1-1.78,1.78A1.782,1.782,0,0,1,821.341,2865.62Zm10.681,3.56a1.818,1.818,0,0,0,1.78-1.78,1.6,1.6,0,0,0-.534-1.24,1.7,1.7,0,0,0-2.492,0,1.6,1.6,0,0,0-.534,1.24A1.818,1.818,0,0,0,832.022,2869.18Zm-21.362,26.71a1.765,1.765,0,0,0,1.246-3.03,1.721,1.721,0,0,0-2.492,0,1.932,1.932,0,0,0-.534,1.25A1.836,1.836,0,0,0,810.66,2895.89Zm10.681-3.56a1.78,1.78,0,1,1-1.78,1.78A1.776,1.776,0,0,1,821.341,2892.33Zm10.681,3.56a1.765,1.765,0,0,0,1.246-3.03,1.721,1.721,0,0,0-2.492,0,1.932,1.932,0,0,0-.534,1.25A1.836,1.836,0,0,0,832.022,2895.89Zm-21.362-17.81a1.6,1.6,0,0,0,1.246-.53,1.621,1.621,0,0,0,.534-1.25,1.6,1.6,0,0,0-.534-1.24,1.724,1.724,0,0,0-2.492,0,1.6,1.6,0,0,0-.534,1.24,1.621,1.621,0,0,0,.534,1.25A1.6,1.6,0,0,0,810.66,2878.08Zm10.681-3.56a1.78,1.78,0,1,1-1.78,1.78A1.782,1.782,0,0,1,821.341,2874.52Zm10.681,3.56a1.6,1.6,0,0,0,1.246-.53,1.621,1.621,0,0,0,.534-1.25,1.6,1.6,0,0,0-.534-1.24,1.721,1.721,0,0,0-2.492,0,1.909,1.909,0,0,0-.534,1.24,1.621,1.621,0,0,0,.534,1.25A1.6,1.6,0,0,0,832.022,2878.08Zm-21.362-17.8a1.818,1.818,0,0,0,1.78-1.78,1.6,1.6,0,0,0-.534-1.24,1.7,1.7,0,0,0-2.492,0,1.909,1.909,0,0,0-.534,1.24A1.818,1.818,0,0,0,810.66,2860.28Zm10.681-3.56a1.78,1.78,0,1,1-1.78,1.78A1.782,1.782,0,0,1,821.341,2856.72Zm10.681,3.56a1.818,1.818,0,0,0,1.78-1.78,1.6,1.6,0,0,0-.534-1.24,1.7,1.7,0,0,0-2.492,0,1.909,1.909,0,0,0-.534,1.24A1.818,1.818,0,0,0,832.022,2860.28Zm8.01-16.64H802.649a1.3,1.3,0,0,0-1.158,1.15v34.45H743.9a1.314,1.314,0,0,0-1.157,1.16v60.52a1.314,1.314,0,0,0,1.157,1.16h96.128a1.315,1.315,0,0,0,1.158-1.16v-96.13A1.157,1.157,0,0,0,840.032,2843.64Zm-38.541,96.13h-56.43v-58.21h56.43v58.21Zm18.692,0h-8.365v-23.15h8.365v23.15Zm10.681,0H822.5v-23.15h8.365v23.15Zm8.011,0h-5.7v-24.3a1.16,1.16,0,0,0-1.158-1.16H810.66a1.16,1.16,0,0,0-1.158,1.16v24.3h-5.695v-93.82h35.068v93.82Zm1.157,2.58H743.9a1.564,1.564,0,0,1-1.424-1.43V2880.4a1.572,1.572,0,0,1,1.424-1.43h57.32v-34.18a1.564,1.564,0,0,1,1.425-1.42h37.383a1.432,1.432,0,0,1,1.426,1.42v96.13A1.566,1.566,0,0,1,840.032,2942.35ZM743.9,2879.51a1.06,1.06,0,0,0-.89.89v60.52a1.06,1.06,0,0,0,.89.89h96.128a1.06,1.06,0,0,0,.891-0.89v-96.13a0.9,0.9,0,0,0-.891-0.89H802.649a1.06,1.06,0,0,0-.89.89v34.72H743.9Zm95.238,60.52h-6.23v-24.56a0.892,0.892,0,0,0-.89-0.89H810.66a0.892,0.892,0,0,0-.89.89v24.56h-6.231v-94.35h35.6v94.35Zm-5.7-.53h5.16v-93.28H804.075v93.28h5.159v-24.03a1.434,1.434,0,0,1,1.426-1.43h21.362a1.433,1.433,0,0,1,1.425,1.43v24.03Zm-2.315.53h-8.9v-23.67h8.9v23.67Zm-8.366-.53h7.83v-22.61h-7.83v22.61Zm-2.315.53h-8.9v-23.67h8.9v23.67Zm-8.366-.53h7.83v-22.61h-7.83v22.61Zm-10.326.53H744.794v-58.74h56.965v58.74Zm-56.431-.53h55.9v-57.68h-55.9v57.68Zm11.037-45.48h33.823a1.16,1.16,0,0,0,0-2.32H756.365A1.16,1.16,0,0,0,756.365,2894.02Zm33.823,0.26H756.365a1.42,1.42,0,1,1,0-2.84h33.823A1.42,1.42,0,1,1,790.188,2894.28Zm-33.823-2.31a0.89,0.89,0,0,0,0,1.78h33.823a0.89,0.89,0,1,0,0-1.78H756.365Zm0,14.51h33.823a1.16,1.16,0,0,0,0-2.32H756.365A1.16,1.16,0,0,0,756.365,2906.48Zm33.823,0.26H756.365a1.42,1.42,0,1,1,0-2.84h33.823A1.42,1.42,0,1,1,790.188,2906.74Zm-33.823-2.31a0.89,0.89,0,0,0,0,1.78h33.823a0.89,0.89,0,1,0,0-1.78H756.365Zm0,14.51h33.823a1.16,1.16,0,0,0,0-2.32H756.365A1.16,1.16,0,0,0,756.365,2918.94Zm33.823,0.27H756.365a1.425,1.425,0,0,1,0-2.85h33.823A1.425,1.425,0,0,1,790.188,2919.21Zm-33.823-2.32a0.89,0.89,0,0,0,0,1.78h33.823a0.89,0.89,0,1,0,0-1.78H756.365Zm0,14.51h33.823a1.16,1.16,0,0,0,0-2.32H756.365A1.16,1.16,0,0,0,756.365,2931.4Zm33.823,0.27H756.365a1.425,1.425,0,0,1,0-2.85h33.823A1.425,1.425,0,0,1,790.188,2931.67Zm-33.823-2.32a0.89,0.89,0,0,0,0,1.78h33.823a0.89,0.89,0,1,0,0-1.78H756.365Z" transform="translate(-742.469 -2843.38)"/>
</svg>
